<svg xmlns="http://www.w3.org/2000/svg" viewBox="0 0 1280 720"><defs><style>.a,.b,.d{fill:none;stroke:#8ec21e;}.a,.b,.d,.e{stroke-miterlimit:10;}.a{stroke-width:8px;}.b{stroke-width:6px;}.c{fill:#8ec21e;}.d{stroke-width:2px;}.e{fill:#f2f7fa;stroke:#dadedf;stroke-width:1.5px;}</style></defs><title>kumeyu_bg</title><path class="a" d="M1012,217s-69,68-257,87c0,0-95,11-142,44"/><path class="b" d="M772,302c36,2-74.63-22.8-110-26C485,260,422,159,422,159"/><path class="a" d="M249,408s113,98,309,47c25-6,90-34,157-78l67-46"/><path class="b" d="M877,552S741,523,699,390"/><path class="c" d="M891,329c15,2,38,22,9,21C882,371,880,343,891,329Z"/><line class="d" x1="892" y1="331" x2="873" y2="286"/><path class="c" d="M926.91,315.25c15.13.14,40.41,17.16,11.51,19.73C923.14,358,917.71,330.49,926.91,315.25Z"/><line class="d" x1="928.14" y1="317.11" x2="903.76" y2="274.79"/><path class="c" d="M855.33,343.74c14.74,3.4,35.75,25.48,7,21.75C842.41,384.7,843.06,356.64,855.33,343.74Z"/><line class="d" x1="856.14" y1="345.82" x2="839" y2="292"/><path class="c" d="M874.83,226.93c-14.61-3.94-34.81-26.76-6.18-22C889.23,186.46,887.56,214.49,874.83,226.93Z"/><line class="d" x1="874.1" y1="224.82" x2="889" y2="280"/><path class="c" d="M833.43,238.08c-14.37-4.74-33.28-28.64-5-22.3C850,198.47,846.83,226.36,833.43,238.08Z"/><line class="d" x1="832.82" y1="235.93" x2="844.65" y2="291.85"/><path class="c" d="M787.6,241.48c-13.75-6.3-29.89-32.16-2.46-22.71C808.5,204,802.22,231.32,787.6,241.48Z"/><line class="d" x1="787.23" y1="239.28" x2="792.78" y2="296.16"/><path class="c" d="M813.58,353.57c14.47,4.45,33.85,28,5.42,22.2C797.78,393.52,800.42,365.57,813.58,353.57Z"/><line class="d" x1="814.24" y1="355.71" x2="800.97" y2="300.81"/><path class="c" d="M319.45,500.36c8.1,12.78,7.54,43.25-10.32,20.38C281.47,520.44,301.65,500.92,319.45,500.36Z"/><line class="d" x1="318.56" y1="502.41" x2="344.17" y2="452.06"/><path class="c" d="M356.08,521.17c9.29,12,11.65,42.33-8.32,21.28C320.2,544.79,338.42,523.43,356.08,521.17Z"/><line class="d" x1="355.39" y1="523.3" x2="380" y2="462"/><path class="c" d="M399,531.94c10.21,11.17,15,41.27-6.6,21.87C365.12,558.33,381.59,535.59,399,531.94Z"/><line class="d" x1="398.49" y1="534.11" x2="419" y2="468"/><path class="c" d="M443.53,535.28c10.61,10.79,16.49,40.7-5.79,22.1C410.64,562.91,426.25,539.58,443.53,535.28Z"/><line class="d" x1="443.09" y1="537.47" x2="461.13" y2="470.65"/><path class="c" d="M489.15,533.21c11.76,9.53,21,38.59-3.27,22.61C459.57,564.35,472.47,539.42,489.15,533.21Z"/><line class="d" x1="488.96" y1="535.44" x2="499.41" y2="467.01"/><path class="c" d="M537.61,524.43c12,9.17,22.09,37.94-2.6,22.7C509,556.44,521.11,531.13,537.61,524.43Z"/><line class="d" x1="537.48" y1="526.66" x2="545.87" y2="457.95"/><path class="c" d="M583.52,513.17c13.08,7.63,26.6,34.94.22,22.85C559,548.47,568,521.86,583.52,513.17Z"/><line class="d" x1="583.68" y1="515.4" x2="583.55" y2="446.19"/><path class="c" d="M627.29,491.4c13.42,7,28.23,33.63,1.3,22.81C604.52,527.82,612.18,500.81,627.29,491.4Z"/><line class="d" x1="627.55" y1="493.62" x2="624" y2="427"/><path class="c" d="M360.41,416.27c-13.62-6.59-29.22-32.78-2-22.76C382.09,379.19,375.24,406.41,360.41,416.27Z"/><line class="d" x1="360.09" y1="414.06" x2="364" y2="461"/><path class="c" d="M398.41,412.27c-13.62-6.59-29.22-32.78-2-22.76C420.09,375.19,413.24,402.41,398.41,412.27Z"/><line class="d" x1="398.09" y1="410.06" x2="403" y2="467"/><path class="c" d="M441,412.11c-13.88-6-30.55-31.54-2.93-22.66C461.1,374.15,455.38,401.64,441,412.11Z"/><line class="d" x1="440.57" y1="409.91" x2="447.84" y2="466.6"/><path class="c" d="M484.54,406c-14.12-5.43-31.85-30.22-3.88-22.52C503.05,367.2,498.49,394.89,484.54,406Z"/><line class="d" x1="484.04" y1="403.78" x2="494" y2="464"/><path class="c" d="M524.22,400.7c-14.62-3.91-34.85-26.71-6.22-22C538.55,360.21,536.93,388.24,524.22,400.7Z"/><line class="d" x1="523.48" y1="398.59" x2="539.71" y2="457.43"/><path class="c" d="M561.66,391.64c-14.78-3.27-36-25.15-7.19-21.69C574.19,350.55,573.81,378.62,561.66,391.64Z"/><line class="d" x1="560.83" y1="389.56" x2="579.63" y2="447.63"/><path class="c" d="M596.86,376.59c-15-2.35-37.48-22.88-8.51-21.21C606.84,334.81,608.18,362.85,596.86,376.59Z"/><line class="d" x1="595.91" y1="374.56" x2="618.26" y2="431.36"/><path class="c" d="M775.58,560.74c8.27,9.57,11.56,34.81-6,18.11C746.68,582,761,563.39,775.58,560.74Z"/><line class="d" x1="775.1" y1="562.55" x2="792" y2="512"/><path class="c" d="M746.08,543.27c6.43,10.88,5.16,36.31-9.15,16.75C713.85,559,731.21,543.27,746.08,543.27Z"/><line class="d" x1="745.28" y1="544.96" x2="770.93" y2="498.23"/><path class="c" d="M717.8,522.44c4.26,11.9-1.78,36.64-12.14,14.72C683.17,531.84,703.2,519.63,717.8,522.44Z"/><line class="d" x1="716.7" y1="523.95" x2="752" y2="480"/><path class="c" d="M689.61,498.22c1.9,12.49-8.77,35.61-14.74,12.12C653.83,500.8,675.82,492.66,689.61,498.22Z"/><line class="d" x1="688.24" y1="499.49" x2="736" y2="459"/><path class="c" d="M817.79,470.78c-1.27-12.58,10.55-35.13,15.33-11.37C853.66,470,831.29,477,817.79,470.78Z"/><line class="d" x1="819.22" y1="469.58" x2="777" y2="502"/><path class="c" d="M794.88,449.07c-.94-12.61,11.47-34.84,15.62-11C830.76,449.23,808.21,455.66,794.88,449.07Z"/><line class="d" x1="796.34" y1="447.91" x2="753.28" y2="479.21"/><path class="c" d="M774.88,427.07c-.94-12.61,11.47-34.84,15.62-11C810.76,427.23,788.21,433.66,774.88,427.07Z"/><line class="d" x1="776.34" y1="425.91" x2="733.28" y2="457.21"/><path class="c" d="M521.42,193.59c-6.43-8.89-7.38-31,6.57-15.22C548,177.36,534.28,192.39,521.42,193.59Z"/><line class="d" x1="521.98" y1="192.07" x2="506" y2="231"/><path class="c" d="M548,207.15c-7.11-8.37-9.79-30.31,5.35-15.69C573.22,188.89,560.7,205,548,207.15Z"/><line class="d" x1="548.4" y1="205.58" x2="535.52" y2="245.65"/><path class="c" d="M577,216.15c-7.11-8.37-9.79-30.31,5.35-15.69C602.22,197.89,589.7,214,577,216.15Z"/><line class="d" x1="577.4" y1="214.58" x2="564.52" y2="254.65"/><path class="c" d="M459.59,249.88c1,10.94-9.49,30.41-13.42,9.73C428.43,250.24,447.92,244.34,459.59,249.88Z"/><line class="d" x1="458.33" y1="250.91" x2="494" y2="224"/><path class="c" d="M488.72,269.33c1.53,10.87-8,30.84-12.91,10.38C457.62,271.23,476.8,264.37,488.72,269.33Z"/><line class="d" x1="487.52" y1="270.41" x2="521.81" y2="241.76"/><path class="c" d="M525,285c2.38,10.72-5.51,31.37-12.06,11.37C494.13,289.36,512.71,281,525,285Z"/><line class="d" x1="523.87" y1="286.19" x2="555.8" y2="254.92"/><path class="e" d="M1060.71,170.75c9.53-6,17.38,5.82,8.2,11.9,6.17,9.3-6.5,17.7-12.67,8.4,0,0-10.63-.85-8.12-12.25C1041.67,169.08,1054.62,161.1,1060.71,170.75Z"/><path class="c" d="M1061.92,177.54a1.5,1.5,0,0,1,1.13,1.71c-.34,2.16-1.13,6.22-2.4,7.06-1.75,1.16-3.4-3.22-3.09-4.65-1.43-.27-4.83-3.49-3.08-4.65C1055.75,176.17,1059.8,177,1061.92,177.54Z"/><path class="e" d="M1010.32,157.54c3.41-11.31,17.75-7.33,14.67,3.78,11.26,3.13,7,18.48-4.26,15.35,0,0-9,6.63-14.85-4.11C994.1,169.29,998.87,154.08,1010.32,157.54Z"/><path class="c" d="M1015.94,162.08a1.58,1.58,0,0,1,2.07.58c1.21,1.94,3.37,5.7,2.94,7.24-.58,2.11-4.9-.22-5.63-1.57-1.32.78-6.22.56-5.63-1.56C1010.12,165.23,1013.9,163.12,1015.94,162.08Z"/><path class="e" d="M1035.32,164.28c5-9.11,16.57-3.11,11.92,5.89,9.12,4.72,2.69,17.14-6.42,12.43,0,0-8.94,4.07-12-6.22C1019.26,171.45,1026.1,159.24,1035.32,164.28Z"/><path class="c" d="M1039.33,169.19a1.38,1.38,0,0,1,1.67.87c.7,1.89,1.87,5.51,1.23,6.75-.89,1.72-4.17-1.07-4.56-2.35-1.27.42-5.44-.65-4.56-2.36C1033.76,170.85,1037.39,169.72,1039.33,169.19Z"/><path class="e" d="M1053.45,197.26c10.26-1.5,12.44,11.38,2.45,13.07,1.71,10.12-12.08,12.45-13.79,2.33,0,0-8.62-4.7-2.26-13.34C1038.06,188.73,1051.93,186.86,1053.45,197.26Z"/><path class="c" d="M1051.93,203.42a1.39,1.39,0,0,1,.31,1.86c-1.09,1.68-3.28,4.8-4.66,5-1.9.32-1.65-4-.85-5.07-1.11-.76-2.76-4.74-.86-5.06C1047.25,200,1050.34,202.19,1051.93,203.42Z"/><path class="e" d="M1063.3,222c11,1.17,9.86,15.08-.92,14.18-.91,10.92-15.8,9.68-14.89-1.24,0,0-7.67-7.15,1.2-14.4C1049.65,209.15,1064.49,210.89,1063.3,222Z"/><path class="c" d="M1060.1,228a1.46,1.46,0,0,1-.17,2c-1.57,1.46-4.66,4.1-6.15,4-2.06-.17-.66-4.56.45-5.46-.94-1.08-1.59-5.64.46-5.46C1056.18,223.2,1058.79,226.32,1060.1,228Z"/><path class="e" d="M1020.38,184.57c7.25-7.42,16.8,1.5,9.88,8.9,7.51,7-2,17.23-9.54,10.23,0,0-9.71,1.5-9.89-9.24C1003,187.13,1012.87,177.23,1020.38,184.57Z"/><path class="c" d="M1022.91,190.39a1.39,1.39,0,0,1,1.38,1.29c.16,2,.31,5.81-.65,6.83-1.31,1.41-3.72-2.16-3.75-3.5-1.34.07-5.07-2.1-3.75-3.51C1017.1,190.48,1020.9,190.37,1022.91,190.39Z"/><path class="e" d="M1022.35,211.41c10.77-3.91,16,9.53,5.57,13.59,4.12,10.56-10.28,16.17-14.39,5.6,0,0-10.37-3.15-5.42-13.92C1003.81,205.63,1018.39,200.51,1022.35,211.41Z"/><path class="c" d="M1022.09,218.42a1.52,1.52,0,0,1,.75,1.93c-.8,2.07-2.47,5.93-3.91,6.49-2,.78-2.68-3.93-2.06-5.28-1.37-.57-4-4.51-2.06-5.28C1016.26,215.72,1020.1,217.43,1022.09,218.42Z"/><path class="e" d="M1040.3,238.9c13.89,1.66,12.19,19.2-1.41,17.88-1.34,13.78-20.11,12-18.78-1.82,0,0-9.57-9.15,1.77-18.16C1023.27,222.39,1042,224.84,1040.3,238.9Z"/><path class="c" d="M1036.15,246.39a1.87,1.87,0,0,1-.24,2.53c-2,1.81-6,5.1-7.84,4.91-2.59-.25-.75-5.76.66-6.89-1.17-1.37-1.92-7.14.67-6.89C1031.28,240.24,1034.52,244.22,1036.15,246.39Z"/><path class="e" d="M977.45,165.71c0-15.28,19.28-15.67,19.58-.75,15.11-.31,15.53,20.29.41,20.59,0,0-8.7,11.54-19.92.4C961.71,186.27,962,165.66,977.45,165.71Z"/><path class="c" d="M986.1,169.25a2,2,0,0,1,2.77-.06c2.23,2,6.3,5.82,6.34,7.88,0,2.84-6.16,1.55-7.56.15-1.35,1.45-7.5,3-7.56.16C980.05,175.31,984,171.29,986.1,169.25Z"/><path class="e" d="M1027.37,272.94c16.43,3.4,12.5,24.89-3.62,21.94-3.09,16.88-25.34,12.81-22.25-4.07,0,0-10.46-12.22,4.07-22.25C1008.8,250.91,1030.91,255.74,1027.37,272.94Z"/><path class="c" d="M1021.6,281.78a2.37,2.37,0,0,1-.57,3.1c-2.6,2-7.67,5.72-9.9,5.31-3.07-.56-.27-7.19,1.54-8.44-1.25-1.81-1.52-9,1.55-8.44C1016.45,273.72,1019.89,279,1021.6,281.78Z"/><path class="e" d="M993.69,238.37c15.8-4.16,21.68,16.28,6.35,20.69,4.63,16.06-16.54,22.16-21.16,6.1,0,0-14.41-6.13-6.1-21.17C968,227.2,989.33,221.84,993.69,238.37Z"/><path class="c" d="M992.49,248.58a2.3,2.3,0,0,1,.85,2.94c-1.39,2.91-4.21,8.32-6.33,8.93-2.92.84-3.36-6.15-2.32-8-1.88-1-5.23-7.19-2.31-8C984.5,243.78,989.77,246.85,992.49,248.58Z"/><path class="e" d="M932,217.83c12.45-15.85,33.46-.13,21.66,15.63,16.51,12.35.23,34.11-16.28,21.76,0,0-18.74,4.71-21.76-16.28C898.33,226,915.36,204.82,932,217.83Z"/><path class="c" d="M938.4,228.77a2.84,2.84,0,0,1,3,2.26c.81,3.9,2.05,11.32.42,13.5-2.25,3-7.88-3.55-8.26-6.18-2.62.38-10.5-3.17-8.25-6.17C927,230,934.43,229.1,938.4,228.77Z"/><path class="e" d="M985.93,199.31c8.94-9.48,21.13,1.51,12.62,11,9.58,8.63-2.19,21.69-11.77,13.06,0,0-12.15,2.1-12.63-11.38C964.13,202.92,976.33,190.26,985.93,199.31Z"/><path class="c" d="M989.24,206.57a1.74,1.74,0,0,1,1.76,1.58c.24,2.51.52,7.29-.66,8.6-1.62,1.8-4.73-2.63-4.79-4.32-1.68.12-6.41-2.51-4.79-4.32C981.94,206.81,986.72,206.59,989.24,206.57Z"/><path class="e" d="M943.55,173.41c5.14-18,28.78-11.91,24.18,5.83,18.58,4.82,12.22,29.31-6.36,24.49,0,0-14.49,10.66-24.49-6.36C917.45,192.33,924.66,168.05,943.55,173.41Z"/><path class="c" d="M953,180.57a2.63,2.63,0,0,1,3.4.88c2.07,3.07,5.76,9,5.12,11.49-.88,3.37-8-.29-9.29-2.42-2.13,1.25-10.17,1-9.29-2.41C943.53,185.66,949.65,182.25,953,180.57Z"/><path class="e" d="M891.5,185.5C892,164,920,164,920,185c22,0,22,29,0,29,0,0-13,16-29,0C868,214,869,185,891.5,185.5Z"/><path class="c" d="M904,190.73a3,3,0,0,1,4,0c3.17,2.82,9,8.36,9,11.27,0,4-9,2-11,0-2,2-11,4-11,0C895,199.09,900.81,193.55,904,190.73Z"/><path class="e" d="M958.56,267.52c20.51-5.94,28.87,20.58,9,26.85,6.57,20.84-20.91,29.5-27.48,8.66,0,0-19-7.54-8.65-27.47C924.54,253.77,952.31,246.06,958.56,267.52Z"/><path class="c" d="M957.33,280.91a3,3,0,0,1,1.2,3.82c-1.72,3.85-5.24,11-8,11.88-3.79,1.19-4.58-7.93-3.29-10.43-2.49-1.29-7.07-9.22-3.28-10.42C946.72,274.9,953.71,278.74,957.33,280.91Z"/><path class="e" d="M1004.23,308.87c19.92,7.72,10.48,33.88-9.14,26.8-7.41,20.56-34.51,10.78-27.1-9.77,0,0-10.57-17.54,9.78-27.1C985.52,277.31,1012.28,288,1004.23,308.87Z"/><path class="c" d="M995.13,318.77a3,3,0,0,1-1.36,3.77c-3.7,2-10.84,5.58-13.55,4.6-3.74-1.35,1.16-9.08,3.7-10.28-1.19-2.54,0-11.62,3.71-10.28C990.35,307.56,993.57,314.86,995.13,318.77Z"/><path class="e" d="M386.2,127.37c-5.13-6.73,3.21-13.38,8.36-6.92,6.55-5.22,13.67,3.7,7.12,8.92,0,0,.06,8-8.63,6.89C386.21,141.72,379.38,132.56,386.2,127.37Z"/><path class="c" d="M391.2,126a1.14,1.14,0,0,1,1.2-1c1.64.11,4.73.44,5.44,1.33,1,1.23-2.18,2.76-3.27,2.62-.1,1.09-2.29,3.84-3.27,2.61C390.58,130.72,391,127.64,391.2,126Z"/><path class="e" d="M379.65,165.93c-8.69-1.8-6.66-12.79,1.86-11.22,1.59-8.63,13.35-6.46,11.76,2.18,0,0,5.55,6.29-2.1,11.37C389.5,177.29,377.82,174.72,379.65,165.93Z"/><path class="c" d="M382.67,161.43a1.19,1.19,0,0,1,.3-1.59c1.37-1,4-2.89,5.22-2.68,1.62.3.16,3.68-.8,4.32.67.93.83,4.61-.8,4.32C385.41,165.58,383.59,162.88,382.67,161.43Z"/><path class="e" d="M383,146.79c-7.14-3.12-3.42-12.19,3.62-9.31,2.92-7.13,12.64-3.14,9.72,4,0,0,3.63,6.41-3.86,9.4C389.46,158.33,379.88,154,383,146.79Z"/><path class="c" d="M386.45,143.46a1,1,0,0,1,.54-1.3c1.36-.65,4-1.77,5-1.37,1.34.55-.53,3.2-1.47,3.57.41.92-.12,4.11-1.46,3.57C388.06,147.53,387,144.88,386.45,143.46Z"/><path class="e" d="M406.51,131.06c-1.8-7.58,7.69-10.06,9.61-2.7,7.46-2,10.11,8.22,2.66,10.16,0,0-2.95,6.76-9.84,2.57C401.15,143.12,398.83,132.87,406.51,131.06Z"/><path class="c" d="M411.22,131.79a1,1,0,0,1,1.37-.36c1.33.7,3.81,2.13,4.07,3.15.37,1.4-2.87,1.5-3.73,1-.49.87-3.36,2.37-3.73,1C408.94,135.51,410.4,133.05,411.22,131.79Z"/><path class="e" d="M424.4,122.05c.14-8.32,10.62-8.37,10.66-.24,8.23,0,8.28,11.17.05,11.21,0,0-4.83,6.21-10.85,0C415.66,133.11,416,121.9,424.4,122.05Z"/><path class="c" d="M429.08,124.05a1.11,1.11,0,0,1,1.51,0c1.19,1.09,3.37,3.22,3.38,4.35,0,1.54-3.37.78-4.12,0-.74.78-4.11,1.57-4.11,0C425.73,127.3,427.89,125.15,429.08,124.05Z"/><path class="e" d="M399.2,156.63c-6-4.94,0-12.67,6-8,4.74-6.08,13,.39,8.27,6.46,0,0,1.76,7.16-6.25,8C402.27,169.47,394.21,162.73,399.2,156.63Z"/><path class="c" d="M403.39,154.35a1,1,0,0,1,.87-1.12c1.49-.25,4.32-.61,5.15,0,1.14.9-1.37,2.94-2.37,3,.14,1-1.23,3.93-2.37,3C403.84,158.69,403.51,155.85,403.39,154.35Z"/><path class="e" d="M419.14,153.38c-3.63-7.79,6.08-12.59,9.8-5.06,7.63-3.78,12.77,6.62,5.14,10.39,0,0-1.67,8-10.06,5C416,167.63,411.25,157.06,419.14,153.38Z"/><path class="c" d="M424.4,153.12a1.16,1.16,0,0,1,1.4-.7c1.6.47,4.6,1.46,5.11,2.5.71,1.44-2.76,2.26-3.81,1.89-.34,1.06-3.11,3.32-3.82,1.89C422.77,157.65,423.8,154.67,424.4,153.12Z"/><path class="e" d="M438.52,138.14c.33-10.5,13.56-10.38,13.47-.12,10.39.09,10.27,14.25-.12,14.16,0,0-6.22,7.76-13.71-.12C427.3,152,427.89,137.81,438.52,138.14Z"/><path class="c" d="M444.4,140.75a1.39,1.39,0,0,1,1.9,0c1.49,1.39,4.21,4.12,4.2,5.54,0,1.95-4.26.94-5.2-.05-.95,1-5.21,1.91-5.2,0C440.12,144.8,442.88,142.11,444.4,140.75Z"/><path class="e" d="M387.92,190c-11.43,1-13-13.38-1.85-14.59-1.23-11.29,14.15-13,15.38-1.67,0,0,9.2,5.75,1.61,14.87C404.34,200.39,388.91,201.55,387.92,190Z"/><path class="c" d="M390,183.27a1.52,1.52,0,0,1-.22-2.07c1.31-1.79,3.93-5.09,5.47-5.25,2.12-.23,1.56,4.5.61,5.64,1.18.91,2.74,5.41.62,5.64C394.93,187.4,391.67,184.74,390,183.27Z"/><path class="e" d="M464.83,145.57c1.46-12.51,17.79-11,16.65,1.26,12.83,1.19,11.26,18.11-1.57,16.91,0,0-8.46,8.62-16.92-1.58C449.58,160.91,451.74,144.05,464.83,145.57Z"/><path class="c" d="M471.83,149.3a1.78,1.78,0,0,1,2.35.22c1.7,1.81,4.79,5.36,4.63,7.06-.22,2.33-5.36.68-6.42-.6-1.27,1.06-6.63,1.74-6.41-.6C466.14,153.69,469.82,150.77,471.83,149.3Z"/><path class="e" d="M441.2,173c-4.15-11.54,10.75-17.29,15.06-6.12,11.7-4.52,17.66,10.91,5.95,15.43,0,0-3.63,11.18-15.43,6C434.55,193,429.12,177.39,441.2,173Z"/><path class="c" d="M448.91,173.26a1.74,1.74,0,0,1,2.15-.83c2.27.85,6.5,2.61,7.09,4.15.82,2.13-4.37,2.91-5.85,2.26-.65,1.48-5,4.39-5.85,2.26C445.85,179.55,447.8,175.41,448.91,173.26Z"/><path class="e" d="M429.91,220.56c-12.68-8.27-2.31-25,10.26-17.24,8.15-13.16,25.5-2.42,17.35,10.75,0,0,4.76,13.7-10.74,17.35C438.25,245.18,421.27,233.84,429.91,220.56Z"/><path class="c" d="M437.66,215a2.14,2.14,0,0,1,1.5-2.41c2.86-.86,8.33-2.28,10.07-1.2,2.39,1.48-2.14,6.12-4.08,6.58.46,1.93-1.68,8.06-4.07,6.58C439.34,223.5,438.17,218,437.66,215Z"/><path class="e" d="M412.5,181.42c-7.68-6.06-.27-15.91,7.36-10.16,5.83-7.74,16.37.2,10.55,7.94,0,0,2.37,9-7.68,10.2C416.64,197.48,406.36,189.2,412.5,181.42Z"/><path class="c" d="M417.71,178.46a1.31,1.31,0,0,1,1.06-1.42c1.87-.34,5.42-.87,6.48-.07,1.45,1.09-1.66,3.71-2.91,3.87.19,1.25-1.46,5-2.92,3.87C418.37,183.91,417.89,180.35,417.71,178.46Z"/><path class="e" d="M395.92,214.83c-13.84-2.65-10.81-20.75,2.76-18.47,2.38-14.22,21.12-11.08,18.74,3.14,0,0,8.93,10.13-3.14,18.74C411.79,233.1,393.16,229.31,395.92,214.83Z"/><path class="c" d="M400.65,207.33a2,2,0,0,1,.44-2.61c2.16-1.75,6.37-4.9,8.25-4.58,2.59.43.32,6-1.19,7.1,1.08,1.51,1.4,7.54-1.19,7.11C405.08,214,402.13,209.68,400.65,207.33Z"/><path class="e" d="M408.4,253c-16.12,1-18-19.9-2.26-21.28-1.45-16.46,20.24-18.37,21.69-1.92,0,0,12.83,8.67,1.92,21.69C431.26,268.66,409.51,269.82,408.4,253Z"/><path class="c" d="M411.49,243.28a2.28,2.28,0,0,1-.27-3c1.9-2.56,5.66-7.27,7.84-7.46,3-.27,2.09,6.6.72,8.23,1.63,1.36,3.72,8,.73,8.22C418.33,249.44,413.8,245.47,411.49,243.28Z"/><path class="e" d="M465.32,197.39c-5.8-14.95,13.49-22.95,19.49-8.48,15.16-6.29,23.44,13.69,8.29,20,0,0-4.38,14.74-20,8.29C457.28,223.74,449.68,203.48,465.32,197.39Z"/><path class="c" d="M475.42,197.43a2.25,2.25,0,0,1,2.77-1.15c3,1,8.58,3.19,9.41,5.19,1.15,2.76-5.63,3.95-7.57,3.15-.81,1.95-6.44,5.9-7.58,3.14C471.62,205.76,474,200.28,475.42,197.43Z"/><path class="e" d="M493.24,160.51c4.45-15.41,24.64-10.08,20.64,5.06,15.87,4.19,10.35,25.1-5.52,20.92,0,0-12.42,9.06-20.91-5.53C470.87,176.58,477.11,155.86,493.24,160.51Z"/><path class="c" d="M501.24,166.66a2.26,2.26,0,0,1,2.91.77c1.76,2.63,4.89,7.74,4.33,9.83-.76,2.89-6.87-.27-7.93-2.09-1.82,1.06-8.69.79-7.93-2.1C493.17,171,498.42,168.08,501.24,166.66Z"/><path class="e" d="M920.14,573.31c8.06,2.1,10.92-8,3.1-10.21,2.25-7.93-8.55-11-10.8-3.07,0,0-7.29,3-3,10.45C907.12,578.77,918,581.47,920.14,573.31Z"/><path class="c" d="M919.47,568.26a1.11,1.11,0,0,0,.41-1.45c-.72-1.44-2.2-4.12-3.28-4.43-1.49-.42-1.66,3-1.12,4-1,.51-2.62,3.55-1.13,4C915.44,570.62,918.1,569.11,919.47,568.26Z"/><path class="e" d="M887.65,593.93c5,7.19,14.14,1.17,9.47-6,7.23-4.72.78-14.57-6.44-9.84,0,0-7.82-2.64-9.52,6.24C873.6,589.31,880.38,598.94,887.65,593.93Z"/><path class="c" d="M890.59,589.47a1.17,1.17,0,0,0,1.33-.86c.41-1.64,1.09-4.77.44-5.76-.89-1.36-3.4,1.26-3.61,2.36-1.1-.24-4.5,1-3.61,2.37C885.78,588.57,888.92,589.2,890.59,589.47Z"/><path class="e" d="M903.73,583.57c5.54,5.29,12.36-1.54,7.07-6.82,5.35-5.37-2-12.67-7.32-7.3,0,0-7.2-.86-7.06,7.07C890.82,582.13,898.38,589.19,903.73,583.57Z"/><path class="c" d="M905.45,579.21a1,1,0,0,0,1-1c.07-1.48.08-4.3-.65-5-1-1-2.7,1.69-2.68,2.68-1,0-3.69,1.68-2.68,2.69C901.15,579.3,904,579.28,905.45,579.21Z"/><path class="e" d="M909.07,556.3c7.56-1.26,6.2-10.81-1.21-9.75-1.07-7.51-11.3-6-10.23,1.46,0,0-5,5.24,1.42,9.89C900.17,565.75,910.35,564,909.07,556.3Z"/><path class="c" d="M906.62,552.3a1,1,0,0,0-.2-1.38c-1.14-.94-3.38-2.64-4.41-2.49-1.41.2-.26,3.17.54,3.75-.61.78-.88,4,.53,3.75C904.11,555.79,905.78,553.52,906.62,552.3Z"/><path class="e" d="M910.44,536.64c7.49-3.3,3.55-12.82-3.84-9.77-3.09-7.48-13.29-3.26-10.19,4.22,0,0-3.8,6.75,4.08,9.87C903.73,548.78,913.78,544.22,910.44,536.64Z"/><path class="c" d="M906.84,533.15a1.09,1.09,0,0,0-.56-1.37c-1.44-.67-4.21-1.84-5.23-1.41-1.41.58.56,3.35,1.55,3.74-.42,1,.14,4.32,1.55,3.74C905.17,537.43,906.3,534.64,906.84,533.15Z"/><path class="e" d="M888.66,572.65c6.77,3.59,11.48-4.83,5-8.48,3.71-6.62-5.31-11.67-9-5,0,0-7.17,1.12-4.89,8.72C875.84,574.76,885,579.51,888.66,572.65Z"/><path class="c" d="M889.13,568a1,1,0,0,0,.68-1.22c-.34-1.44-1.08-4.15-2-4.66-1.24-.7-2.13,2.36-1.85,3.31-1,.25-3.1,2.61-1.85,3.31C885,569.23,887.72,568.45,889.13,568Z"/><path class="e" d="M884,553.32c8.46.34,9.12-10.3.87-10.81.52-8.36-10.87-9.06-11.39-.71,0,0-6.58,4.55-.68,11C872.27,561.56,883.68,561.88,884,553.32Z"/><path class="c" d="M882.25,548.45a1.13,1.13,0,0,0,.1-1.53c-1-1.27-3.07-3.61-4.21-3.68-1.57-.1-1,3.37-.26,4.17-.84.72-1.83,4.09-.26,4.18C878.76,551.66,881.07,549.59,882.25,548.45Z"/><path class="e" d="M890.47,530c9.39-4.29,4.26-16.25-5-12.27-4-9.39-16.84-3.89-12.81,5.5,0,0-4.67,8.59,5.33,12.39C882.2,545.39,894.82,539.46,890.47,530Z"/><path class="c" d="M885.86,525.61a1.37,1.37,0,0,0-.74-1.72c-1.82-.82-5.34-2.25-6.62-1.7-1.76.76.77,4.22,2,4.7-.52,1.23.25,5.45,2,4.69C883.82,531,885.2,527.5,885.86,525.61Z"/><path class="e" d="M862.69,595.57c3.46,10.75,17.08,6.69,13.94-3.87,10.71-3.18,6.37-17.76-4.33-14.58,0,0-8.72-6.17-14.11,4.19C847,584.64,851.82,599.08,862.69,595.57Z"/><path class="c" d="M868,591.14a1.52,1.52,0,0,0,2-.59c1.12-1.87,3.12-5.5,2.68-7-.6-2-4.68.29-5.35,1.59-1.27-.72-5.95-.42-5.35,1.59C862.36,588.23,866,590.18,868,591.14Z"/><path class="e" d="M873.72,508.9c10.79-6.08,3.2-20.32-7.48-14.62-6-11.19-20.71-3.32-14.74,7.86,0,0-4.61,11,7.86,14.75C865.6,528.58,880.07,520.21,873.72,508.9Z"/><path class="c" d="M867.67,504a1.75,1.75,0,0,0-1.09-2.06c-2.3-.85-6.69-2.29-8.17-1.51-2,1.09,1.43,5.12,3,5.6-.48,1.56,1,6.67,3,5.59C865.86,510.81,867.1,506.35,867.67,504Z"/><path class="e" d="M857.79,540.8c12.05-.63,11.6-16.33-.18-16-.36-12.34-16.62-11.87-16.26.47,0,0-8.77,7.54.46,16.26C842.19,554.44,858.43,553.41,857.79,540.8Z"/><path class="c" d="M854.65,533.88a1.7,1.7,0,0,0-.06-2.26c-1.63-1.74-4.84-4.9-6.47-4.86-2.24.07-1,5.08.18,6.17-1.09,1.16-2.06,6.24.18,6.17C850.11,539.05,853.13,535.71,854.65,533.88Z"/><path class="e" d="M819,569.12c12.33,8.36,23.58-7.43,11.74-15.87,8.84-12.4-7.51-24-16.35-11.65,0,0-14.24.9-11.65,16.35C793.46,570.92,810.22,582,819,569.12Z"/><path class="c" d="M821,560a2.1,2.1,0,0,0,1.62-2.27c-.31-2.93-1.1-8.43-2.74-9.6-2.26-1.6-4.74,4.27-4.42,6.21-1.93.32-6.68,4.59-4.42,6.2C812.72,561.68,818.18,560.64,821,560Z"/><path class="e" d="M861.11,570c8.42,4.67,14.53-5.81,6.41-10.54,4.8-8.23-6.41-14.78-11.21-6.55,0,0-9,1.25-6.33,10.85C845,572.38,856.39,578.55,861.11,570Z"/><path class="c" d="M861.81,564.17a1.28,1.28,0,0,0,.88-1.51c-.4-1.82-1.27-5.24-2.4-5.9-1.54-.9-2.73,2.92-2.4,4.12-1.21.29-3.95,3.21-2.4,4.11C856.61,565.65,860,564.73,861.81,564.17Z"/><path class="e" d="M837.11,597.77c7.67,11.55,22.93,1.91,15.7-9.53,12-7.57,2-23.38-10-15.81,0,0-12.59-4.24-15.8,10C814.49,590.33,825,605.79,837.11,597.77Z"/><path class="c" d="M842.11,590.63a2,2,0,0,0,2.2-1.39c.76-2.63,2-7.65,1-9.23-1.38-2.18-5.6,2-6,3.78-1.78-.4-7.37,1.61-6,3.79C834.34,589.16,839.41,590.18,842.11,590.63Z"/><path class="e" d="M797.77,601c5.18,15,24.88,8.73,20.16-6.05,15.48-4.94,9-25.35-6.52-20.41,0,0-12.74-8.33-20.4,6.52C774.83,586.19,782.05,606.37,797.77,601Z"/><path class="c" d="M805.37,594.48a2.24,2.24,0,0,0,2.84-.91c1.6-2.7,4.44-7.9,3.79-10-.9-2.81-6.78.62-7.74,2.47-1.86-1-8.64-.34-7.74,2.48C797.17,590.61,802.51,593.21,805.37,594.48Z"/><path class="e" d="M826.52,528.18c15.77-.43,15.69-21,.28-20.91-.06-16.14-21.34-16.06-21.28.08,0,0-11.7,9.58.09,21.28C805.67,545.5,827,544.69,826.52,528.18Z"/><path class="c" d="M822.64,519a2.23,2.23,0,0,0,0-3c-2.07-2.33-6.16-6.57-8.29-6.56-2.94,0-1.44,6.61,0,8.07-1.46,1.47-2.9,8.08,0,8.07C816.53,525.65,820.58,521.37,822.64,519Z"/><path class="e" d="M849.36,488.82c12.28-9.9-.24-26.19-12.45-16.8-9.84-12.8-26.71.16-16.87,13,0,0-3.5,14.72,13,16.87C843.29,515.23,859.71,501.68,849.36,488.82Z"/><path class="c" d="M840.73,483.9a2.22,2.22,0,0,0-1.8-2.35c-3.06-.59-8.88-1.49-10.57-.19-2.33,1.79,2.86,6.13,4.92,6.4-.27,2.06,2.59,8.19,4.91,6.4C839.89,492.86,840.52,487,840.73,483.9Z"/><path class="e" d="M179.29,359.92c-9.74-5.73-17.23,6.37-7.85,12.17-5.88,9.51,7.07,17.52,13,8,0,0,10.62-1.2,7.75-12.53C198.3,357.64,185.08,350.06,179.29,359.92Z"/><path class="c" d="M178.29,366.76a1.49,1.49,0,0,0-1.08,1.74c.41,2.15,1.33,6.19,2.63,7,1.78,1.1,3.3-3.34,2.94-4.76,1.43-.31,4.73-3.64,2.94-4.75C184.42,365.19,180.39,366.16,178.29,366.76Z"/><path class="e" d="M229.33,345.1c-3.77-11.22-18-6.78-14.57,4.25-11.18,3.48-6.43,18.72,4.75,15.24,0,0,9.22,6.35,14.74-4.59C245.94,356.35,240.68,341.28,229.33,345.1Z"/><path class="c" d="M223.84,349.83a1.57,1.57,0,0,0-2.05.64c-1.15,2-3.2,5.81-2.72,7.34.65,2.1,4.9-.38,5.59-1.74,1.34.73,6.25.36,5.59-1.74C229.78,352.8,225.92,350.8,223.84,349.83Z"/><path class="e" d="M204.51,352.63c-5.27-9-16.7-2.58-11.76,6.28-9,5-2.15,17.25,6.83,12.24,0,0,9.07,3.8,11.84-6.6C220.81,359.31,213.58,347.3,204.51,352.63Z"/><path class="c" d="M200.64,357.69a1.38,1.38,0,0,0-1.64.91c-.64,1.92-1.7,5.58-1,6.81.94,1.68,4.15-1.21,4.49-2.51,1.29.39,5.43-.82,4.49-2.5C206.28,359.17,202.6,358.15,200.64,357.69Z"/><path class="e" d="M187.39,386.23c-10.32-1.17-12.1,11.8-2,13.17-1.39,10.19,12.49,12.09,13.89,1.9,0,0,8.48-5,1.83-13.43C202.53,377.21,188.58,375.78,187.39,386.23Z"/><path class="c" d="M189.11,392.36a1.38,1.38,0,0,0-.26,1.86c1.15,1.66,3.44,4.71,4.83,4.9,1.92.27,1.53-4,.7-5.09,1.08-.8,2.61-4.84.69-5.1C193.68,388.74,190.66,391.07,189.11,392.36Z"/><path class="e" d="M178.3,411.36c-11,1.52-9.39,15.41,1.38,14.17,1.25,10.91,16.12,9.2,14.86-1.71,0,0,7.46-7.4-1.65-14.39C191.57,398,176.76,400.24,178.3,411.36Z"/><path class="c" d="M181.7,417.25a1.48,1.48,0,0,0,.23,2c1.63,1.41,4.8,4,6.29,3.79,2.05-.24.51-4.59-.63-5.46.91-1.11,1.42-5.69-.63-5.45C185.47,412.3,183,415.51,181.7,417.25Z"/><path class="e" d="M220.11,372.49c-7.5-7.2-16.78,2-9.62,9.22-7.29,7.26,2.59,17.19,9.88,9.94,0,0,9.77,1.2,9.62-9.56C237.61,374.5,227.39,364.9,220.11,372.49Z"/><path class="c" d="M217.75,378.4a1.38,1.38,0,0,0-1.33,1.33c-.1,2-.13,5.82.86,6.82,1.36,1.37,3.66-2.28,3.64-3.63,1.35,0,5-2.25,3.65-3.62C223.58,378.3,219.76,378.31,217.75,378.4Z"/><path class="e" d="M219,399.42c-10.91-3.57-15.72,10.06-5.15,13.79-3.79,10.71,10.8,15.86,14.59,5.15,0,0,10.28-3.48,5-14.11C237.36,393.05,222.6,388.38,219,399.42Z"/><path class="c" d="M219.46,406.43a1.53,1.53,0,0,0-.69,2c.87,2,2.66,5.85,4.13,6.37,2,.71,2.55-4,1.89-5.35,1.35-.62,3.9-4.65,1.89-5.36C225.22,403.55,221.43,405.39,219.46,406.43Z"/><path class="e" d="M201.87,427.52c-13.85,2.1-11.6,19.61,2,17.86,1.77,13.76,20.52,11.34,18.74-2.41,0,0,9.3-9.47-2.33-18.14C218.4,410.45,199.74,413.49,201.87,427.52Z"/><path class="c" d="M206.26,434.89a1.86,1.86,0,0,0,.33,2.52c2.07,1.75,6.13,4.92,8,4.68,2.59-.33.57-5.8-.88-6.88,1.13-1.42,1.7-7.21-.89-6.88C210.94,428.57,207.83,432.67,206.26,434.89Z"/><path class="e" d="M262.5,352.24c-.52-15.3-19.79-15.08-19.62-.13-15.15.17-14.92,20.81.23,20.63,0,0,9.08,11.29,20-.22C278.91,372.34,278,351.71,262.5,352.24Z"/><path class="c" d="M254,356.06a2,2,0,0,0-2.78,0c-2.16,2-6.12,6-6.09,8.09,0,2.85,6.21,1.35,7.57-.08,1.39,1.4,7.61,2.76,7.57-.09C260.2,361.94,256.16,358,254,356.06Z"/><path class="e" d="M215.89,461.2c-16.34,3.92-11.73,25.32,4.32,21.86,3.62,16.8,25.78,12,22.15-4.78,0,0,10.09-12.57-4.77-22.16C233.8,438.55,211.81,444.09,215.89,461.2Z"/><path class="c" d="M222,469.87a2.39,2.39,0,0,0,.66,3.09c2.68,2,7.87,5.48,10.09,5,3.06-.66.05-7.2-1.81-8.4,1.2-1.86,1.24-9.06-1.81-8.41C226.86,461.63,223.58,467,222,469.87Z"/><path class="e" d="M248.53,425.52c-15.95-3.66-21.2,17-5.71,20.92-4.12,16.23,17.27,21.66,21.39,5.44,0,0,14.24-6.59,5.43-21.39C274,413.53,252.38,408.83,248.53,425.52Z"/><path class="c" d="M250.05,435.7a2.33,2.33,0,0,0-.76,3c1.48,2.87,4.49,8.19,6.63,8.74,3,.75,3.16-6.27,2.06-8.12,1.85-1.1,5-7.36,2.06-8.11C257.9,430.65,252.72,433.89,250.05,435.7Z"/><path class="e" d="M309.69,403c-13-15.48-33.51.93-21.2,16.34-16.15,12.89.85,34.17,17,21.28,0,0,18.92,4.12,21.28-17C343.64,410.15,325.91,389.45,309.69,403Z"/><path class="c" d="M303.6,414.16a2.85,2.85,0,0,0-3,2.36c-.68,3.93-1.69,11.4,0,13.53,2.34,2.94,7.78-3.8,8.07-6.44,2.64.29,10.42-3.51,8.07-6.45C315.09,415,307.58,414.36,303.6,414.16Z"/><path class="e" d="M255.07,386.16c-9.25-9.21-21.12,2.17-12.29,11.37-9.32,9,2.87,21.66,12.19,12.71,0,0,12.24,1.72,12.29-11.8C277,389.09,264.4,376.79,255.07,386.16Z"/><path class="c" d="M252,393.53a1.74,1.74,0,0,0-1.71,1.64c-.16,2.53-.29,7.32.93,8.59,1.68,1.75,4.66-2.78,4.66-4.47,1.69.06,6.35-2.72,4.66-4.48C259.3,393.54,254.51,393.47,252,393.53Z"/><path class="e" d="M296.69,358.89c-5.71-17.92-29.2-11-24,6.59-18.45,5.42-11.31,29.75,7.14,24.33,0,0,14.85,10.22,24.33-7.14C323.42,377,315.44,352.93,296.69,358.89Z"/><path class="c" d="M287.51,366.35a2.64,2.64,0,0,0-3.38,1c-2,3.14-5.48,9.23-4.77,11.67,1,3.35,8.05-.54,9.23-2.71,2.17,1.18,10.21.64,9.23-2.71C297.1,371.15,290.87,367.93,287.51,366.35Z"/><path class="e" d="M349.2,369.35c-1.18-21.51-29.22-20.63-28.56.4-22,.69-21.12,29.73.92,29,0,0,13.52,15.61,29-.91C373.63,397.15,371.71,368.14,349.2,369.35Z"/><path class="c" d="M336.86,375a3,3,0,0,0-4,.12c-3.09,2.92-8.73,8.66-8.64,11.57.13,4,9.08,1.72,11-.35,2.06,1.94,11.14,3.66,11-.34C346.12,383.08,340.13,377.7,336.86,375Z"/><path class="e" d="M284.63,453.6c-20.73-5.3-28.26,21.52-8.14,27.18-5.92,21.07,21.86,28.88,27.78,7.8,0,0,18.83-8.15,7.8-27.79C318.26,438.76,290.21,431.91,284.63,453.6Z"/><path class="c" d="M286.29,467a3,3,0,0,0-1.09,3.87c1.84,3.8,5.6,10.85,8.38,11.64,3.83,1.07,4.34-8.09,3-10.54,2.45-1.38,6.79-9.47,3-10.54C296.72,460.62,289.84,464.69,286.29,467Z"/><path class="e" d="M240.2,496.45c-19.7,8.36-9.43,34.26,10,26.55,8.07,20.35,34.9,9.71,26.82-10.64,0,0,10-17.9-10.64-26.83C257.94,464.26,231.48,475.82,240.2,496.45Z"/><path class="c" d="M249.62,506.08a3,3,0,0,0,1.48,3.73c3.77,1.91,11,5.24,13.72,4.18,3.7-1.47-1.45-9.06-4-10.18,1.11-2.58-.34-11.64-4-10.17C254.06,494.7,251.06,502.11,249.62,506.08Z"/></svg>