<svg xmlns="http://www.w3.org/2000/svg" viewBox="0 0 1280 720"><g id="f_1"><path d="M232,280l-6,6s-11,13-14,26c1-2,16-23,25.15-29.44,10.85-6.56,17.69-5.36,17.69-5.36S288,284,295,269c2-12-7-20-19-31-5-10-13-9-13-9Z" style="fill:#58bd2d"/><path d="M274.84,236S284,220,295,220c-4,2-15,15-15,24C276,262,274.84,236,274.84,236Z" style="fill:#58bd2d"/><path d="M106,104c3,2-4,65,41,111-45,6-69,28-69,28s-31,22-31,37c0,10,3,2,3,2s13-14,30-5,26,12,64,18c-24,12-32,26-13,61,4-14,3-31,65-69,0,0,22-2,46-22,11-12,9-11,13-31,0-14-1-31-1-31V178c-1-4.2-3.06-7.18-5-13-6-17-12-84,26-86.47C272,71,252,73,237,82c-17,8-31,28-21,62C188,124,165,108,106,104Z" style="fill:#3d3ea6"/><path d="M198.3,286.66A65.36,65.36,0,0,0,216,270c2-12,13-44,13-44l25-48s5,19,11,27c3.66,4.88,8.07,17.95,10.94,27.4,2.43,8,2.06,25.6-.94,30.6-3.85,6.42-11.9,8.76-20,14C244,284,215.61,286.33,198.3,286.66Z" style="fill:#535bb8"/><path d="M194.62,220.05c2.13-1.29,6-3.7,9.31-6.22a2.19,2.19,0,0,1,2.32-.2C214.55,217.87,229,226,229,226l-7.33,22.57s-11-6.21-25.42-13.9a3.25,3.25,0,0,1-1.64-2.19c-.59-2.7-1.12-7.08-1.4-9.57A2.94,2.94,0,0,1,194.62,220.05Z" style="fill:#fff203"/><path d="M216,270s7.33-37,38.66-52.48C246.39,204.52,248,201,249,197c0,0,4.87-11.91,4.94-18C241,189,220,219,216,270Z" style="fill:#787ec7"/></g><g id="f_2"><path d="M317,226s-.52-4.21,6.74-11.61,26.39-9.13,26.39-9.13S369,203,372,211c-2-1-7-2-17-1,0,0,6,19-1,23-6,3-20-4-23-15C327,218.81,324,219,317,226Z" style="fill:#58bd2d"/><path d="M330,127s-29,6-50,31c10,2,26,3,26,3Z" style="fill:#3d3ea6"/><path d="M282.79,176.1A37.39,37.39,0,0,0,280,158c11-6,18-5,24-3S282.79,176.1,282.79,176.1Z" style="fill:#535bb8"/><path d="M369,152s-5-10-27-15c-8-7-8-7-12-10-6,3-16,11-26,28s33,7,33,7Z" style="fill:#535bb8"/><path d="M304,155c-23,10-31,39-22,57,24,1,44,3,59.17,2.95C341.17,215,371,189,369,152,351,140,322,151,304,155Z" style="fill:#3d3ea6"/><path d="M305,157s11.49,30.51,30.75,52.26C328,196,310,166,305,157Z" style="fill:#787ec7"/></g><g id="f_3"><path d="M467,313c14,2,20-20,20.75-22L455,287S451.86,310.84,467,313Z" style="fill:#58bd2d"/><path d="M487.75,289s15.68-2.37,19.46,4.32c-.21-.32-11.7-4.69-21.95,0Z" style="fill:#58bd2d"/><path d="M457.47,287S446,277,433,282c2,0,15.69.65,23,10A34.84,34.84,0,0,1,457.47,287Z" style="fill:#58bd2d"/><path d="M386,129s26.47-3.49,66.23,51.75c0,0,.77-28.75,44.77-67.75,14-12,14-16,14-16s28,38,17,101c32-25,83-23,91-13-23,10-44,37-44,37l-13.66,13.58L549,254l-25,8-46,20c.24,1.25-39.52,9.89-53-34-1.84,0-2.61-4-4.34-4-20.88.06-34.8.84-60.66,11,0,0-2.93-37.15,49.2-38.95a1.35,1.35,0,0,0,1.26-1.73,160.34,160.34,0,0,1-6.4-38.22C403,153,386,129,386,129Z" style="fill:#3d3ea6"/><path d="M483.19,215.19l9.88,9.88a2.67,2.67,0,0,1,.76,2.24C493,236,491,253,486,267s-12,3-22,2c-1-13,6-49,6-49s0-1.82,10.39-5.45A2.71,2.71,0,0,1,483.19,215.19Z" style="fill:#fff203"/><path d="M510,264s18.42,6.36,29,1c-50.58,33.36-68,28-68,28-12-1-42-18-50-49,31.78,6.94,47,14,55,12" style="fill:#535bb8"/><path d="M553.92,246.66S550,260,550,270s-7,30-11,38c-13-22-32-36-63-52C520,255,533.81,248.93,553.92,246.66Z" style="fill:#787ec7"/></g><g id="f_4"><path d="M693,237s-2,28,15,29,20-27,20-27Z" style="fill:#58bd2d"/><path d="M744.15,226S771,220,788,231c0,0-33.09-4.57-57,4.21Z" style="fill:#58bd2d"/><path d="M677.68,224S664,217,650,225c0,0,19.3-2.42,32.15,4.79Z" style="fill:#58bd2d"/><path d="M643,189s-23-20-42-58-39-41-39-41,45-15,93,42c1-44,43-101,43-101s43,37,54,96c56-37,107-29,107-29s-17,10-35,40-28,40-29,42c5,1,4-4,19-4s26,8,32,24c-13-5-27.81,0-27.81,0S782,209,763,214a51.68,51.68,0,0,1-7,6l-28,6-56-19Z" style="fill:#3d3ea6"/><path d="M719.38,165l-11.3,7.27a2.71,2.71,0,0,0-1.24,2c-.62,5-2.84,23.83-2.84,36.73l19,9s6.8-12.63,8-43.65a3.25,3.25,0,0,0-.85-2.34l-7.8-8.58A2.28,2.28,0,0,0,719.38,165Z" style="fill:#fff203"/><path d="M710,207l12,9s23.18,4.85,36.09,2.43C751,226,736,242,709,243c-13-1-34-16-45.39-31.64L678,205Z" style="fill:#535bb8"/><path d="M643,189s-2.19,6.75-10,13c-10,8-8,20-8,20s12-11,85-15C710,207,680,204,643,189Z" style="fill:#787ec7"/></g><g id="f_5"><path d="M856.49,216.57S853,229,857,232s17-5,17-5l-13-12Z" style="fill:#58bd2d"/><path d="M858,215s-7-7-17-5a38.9,38.9,0,0,1,17.31,8.9Z" style="fill:#58bd2d"/><path d="M879,227s7,4.74,7,10c0,0-7-9-13-10Z" style="fill:#58bd2d"/><path d="M886,152.56,900,156s8,3.26,13,8.13S930,179,930,191s-4,24-10,31Z" style="fill:#3d3ea6"/><path d="M862,173s2-3,1-15c0,0,25-19,50,12Z" style="fill:#535bb8"/><path d="M913,170s26,16,7,52c0,0-8.79-3.27-25.89,2.37S876,228,870,228a32.43,32.43,0,0,1-4.83-2L906,172Z" style="fill:#535bb8"/><path d="M865.17,226C881,219,913.5,178.5,913,170l-15-7c-11-3-24,5-36,10,0,0-9,28-4,45C859,222,865,226,865.17,226Z" style="fill:#3d3ea6"/></g><g id="f_6"><path d="M933.51,226S941,154,1005,137l2.3,25.62S1010,185,1008,201c0,0,22.29-17.87,74-6.83,32,6.83,36.43,0,36.43,0S1113,217,1096,242s-26,29-38,37c0,0,11.68,2.13,29,44,12,29,31,40,31,40s-88,4-107-6a79.43,79.43,0,0,1-11,29c-9,14-11,31-11,31s-56-31-59-83c0,0-15.62-5.92-24-17-6-8-17-15-17-15s11-14,15-32C911.67,235.49,933.51,226,933.51,226Z" style="fill:#3d3ea6"/><path d="M960,262s23,1,31,5l6.22,12.44a2.24,2.24,0,0,1-.56,2.71C994.22,284.22,989,288.5,986,290c-4.38.29-24.47-3.64-32-8a24.79,24.79,0,0,1-3.8-8.93,2.35,2.35,0,0,1,.39-1.89C952.34,268.79,957.53,262,960,262Z" style="fill:#fff203"/></g><g id="f_7"><path d="M1050.21,420S1020,416,1018,426s25.76,18.91,25.76,18.91Z" style="fill:#58bd2d"/><path d="M1047.66,453.64S1048,472,1040,483a102.23,102.23,0,0,0,4.27-32.29Z" style="fill:#58bd2d"/><path d="M1061,409s10-15-1-29c0,0,6,16-5,35Z" style="fill:#58bd2d"/><path d="M1102,385s5-12.24,58-20c41-6,44-14,44-14s11,44-57,69c0,0,45,16,78,62,0,0-46,24-100,15,0,0-1,0,.32,2,2.68,4,21,29.54,10.68,71-2,8-1,11-1,11s-8-12-24-27-48-53-48-53l8.3-35L1048,438l5-12.83L1099,389Z" style="fill:#3d3ea6"/><path d="M1070.56,438.44l5-5a1.71,1.71,0,0,1,1.13-.5,57.83,57.83,0,0,1,30.09,7.62,2.05,2.05,0,0,1,1,2c-.44,3.54-2.11,13-7.77,15.4,0,0-16.39.61-27-10-2.32-2.32-2.84-6.42-3-8.17A1.76,1.76,0,0,1,1070.56,438.44Z" style="fill:#fff203"/><path d="M1102.72,383.92s7.77,3.14,4.28,31.08c-1,5-20,11-20,11s-12,3-18,7c-5,1-17,3-17,3s23,7,37,36c0,0-.42,7.53-25.71,27.77A61.79,61.79,0,0,0,1063,486c-1-8-10-13.26-10-13.26s-11-5.74-9-39.74c6-18,18-26,18-26S1090.44,393.85,1102.72,383.92Z" style="fill:#535bb8"/></g><g id="f_8"><path d="M1022,505c1,1-1,8-11,13l-3-2C1007.72,515.56,1019.19,512.4,1022,505Z" style="fill:#58bd2d"/><path d="M968,521s3,8,17,3l1.94-3S973,526,968,521Z" style="fill:#58bd2d"/><path d="M1006,513s-10.1-23.3-20-20c-9,3-.21,27.43-.21,27.43l20.21-.9V513h0" style="fill:#58bd2d"/><path d="M996,516c7,0,6,0,10-3a53.37,53.37,0,0,0,11,4c5,1,18,7,22,12s13,8,13,8,4,10-13,27c-6,6-11,8-11,8s-7.7,4-11.85,9Z" style="fill:#535bb8"/><path d="M993,515l9,3s40.3,27,14.15,63c0,0-1.15-2-6.15-1-6.2,1.24-31.86,6.24-44-14-2-3-2-4-4-6,0,0,9-8,10-18S989,516,993,515Z" style="fill:#3d3ea6"/></g><g id="f_9"><path d="M943,566s-17,1-29,6-58,20-76,10c0,0,3.63,29.48-24,65-7,9-12,17-12,17a72.92,72.92,0,0,0-18-26c-13-12-34-42-40-57,0,0-43,0-60-10s-32-11-32-11,9-12,16-24,22-37,60-54c0,0-9-24-7-44s-4-47-4-47,68,1,89,52c0,0,27-45,72-49,0,0,18,54-16,96C862,490,913,513,943,566Z" style="fill:#3d3ea6"/><path d="M776,505a43.55,43.55,0,0,1,19,3s5.69,7.31,7.54,11.69a2.89,2.89,0,0,1-.12,2.5A30.9,30.9,0,0,1,795,531H774.28s-4.82-1.82-9.61-13.31a3.84,3.84,0,0,1,.58-3.89C766.65,512.07,769.64,509.24,776,505Z" style="fill:#fff203"/></g><g id="f_10"><path d="M571.29,498.46S574,468,562,465s-22.48,25.5-22.48,25.5Z" style="fill:#58bd2d"/><path d="M599,502s-5,11-25,6l-2-7S586,510,599,502Z" style="fill:#58bd2d"/><path d="M533,497s-17-4-16-15c0,0,3.49,12.13,25,9Z" style="fill:#58bd2d"/><path d="M621,571s4,1,10,20,18,36,28,43c0,0-35-6-81-41,0,0-18,34-53,49,0,0-27-25-30-67,0,0-77,2-87-15,0,0,13,0,17-9,0,0,9-14,35-17l73.5-9.94L551,524l59,40Z" style="fill:#3d3ea6"/><path d="M539,556s7,0,12-2c0,0,4.84-18.65,5.42-26.33L537,523a82.37,82.37,0,0,0-6,26S531,553,539,556Z" style="fill:#fff203"/><path d="M485,527a110.67,110.67,0,0,1,15-9s34-34,54-29,23.6,19.73,23.6,19.73l27.27,51.79L566,543l-20-15-5.68-4L532,527l-47,3.19Z" style="fill:#535bb8"/><path d="M433,513s-4,40,102.36,12.79C535.36,525.79,459,534,433,513Z" style="fill:#787ec7"/><path d="M638.11,556c4.89,26-41.11,19-97.06-31.68C541.05,524.32,625,584,638.11,556Z" style="fill:#787ec7"/></g><g id="f_11"><path d="M398,542s-59,7-91-38c0,0-6,14.19-35,16-16,1-44,16-44,16s-20-63-2-79c0,0-18.5-1.6-34-14a89.34,89.34,0,0,0-13-8s-18-8-35-45c0,0,24-2,53-19,0,0,27.53-16.33,48.77-10.67,0,0,2.23-57.33,37.23-76.33,0,0,27,24,56,80a71.12,71.12,0,0,1,40,1c14.1,4.7,44,1,44,1s-5,42-43,79c0,0,4.23,5,6.62,43.5S398,542,398,542Z" style="fill:#3d3ea6"/><path d="M304.53,409.15l-24,18.69a2.52,2.52,0,0,0-.79,2.91l4.85,12.13a2.2,2.2,0,0,0,1.64,1.34l9,1.63a2.68,2.68,0,0,0,1.76-.27c2.28-1.25,8.84-5.9,20.11-22.17a2.63,2.63,0,0,0,.07-2.91,49.66,49.66,0,0,0-9.56-11.31A2.39,2.39,0,0,0,304.53,409.15Z" style="fill:#fff203"/></g></svg>