<svg xmlns="http://www.w3.org/2000/svg" viewBox="0 0 1280 720"><defs><style>.a{fill:#ba1636;}.b{fill:#484a9d;}.c{fill:#fbf2e3;}.d{fill:#f4930f;}.e{fill:#f7bccb;}</style></defs><title>uhimi_bg</title><path class="a" d="M264,480S71.47,408.25,160,230c75-151,237.75-53.36,273-33,45,26,159,118,216,172S842,541,945,536s150-78,150-168-43-199-230-179c0,0,27-26,30-65,0,0,237.5,14,235,249-2,188-134.31,202.56-236,189-75-10-159.2-72.64-265-167-74-66-200-166-282-199-13.28-5.35-112.84-37.27-152,44-40,83-7,158,103,175C298,415,274,445,264,480Z"/><path class="b" d="M288,542S89,429,197,271c107.46-157.2,347.28,73.28,416,142,64,64,257.91,218.28,420,155,146-57,170-309-19-477,0,0-40,30-68,33,0,0,275,170,121,379-70.51,95.7-252,72-493-166-63.09-62.29-143.11-117.45-219-138-63.16-17.11-120.25-10-162,29-33.71,31.49-58.32,83.23-61,164-2.33,70.22,53,164,91,181C223,573,253,545,288,542Z"/><path class="c" d="M188,469s-74-94-26-218,194-72,194-72,120,28,301,197S935,556,935,556s204,27,188-207c0,0-2-77-56-139,0,0,39,1,62-15,0,0,156.5,307.5-109,396-93,31-204-40-235-62S652,415,624,390C485,266,274,110,196,249c-34.18,60.9-7,162,43,198C239,447,212,455,188,469Z"/><path class="d" d="M105,380s7-198,173-198c153,0,350,201,350,201S834,604,972,597c146.09-7.41,203-117,171-292,0,0,31,20,54,25,0,0,43,264-198,292,0,0-157.82,30.69-365-194-71-77-249-233-372-211C160.21,235.21,145,343,150,406,150,406,131,387,105,380Z"/><path class="e" d="M52.5,413.5s-.31-117.57,70-175c65.5-53.5,145.72-44.62,170-41C316,201,399.8,211.28,608,387,819.5,565.5,960.54,546,986.5,543.5c87.5-8.5,244.5-90.5,202-297a128.28,128.28,0,0,0,42,13c21.5,70.5-4.5,139.5-16,160-3.59,6.23-11.86,23.5-26.5,45.5-24.12,36.25-56,80-160,105-108.31,26-240.49-4.63-440-170C369,218.51,309.63,220.11,287,215c-31-7-235,10-189,213C98,428,61,424,52.5,413.5Z"/></svg>