<svg xmlns="http://www.w3.org/2000/svg" viewBox="0 0 1280 720"><defs><style>.a{fill:#ffed51;}.a,.b,.c{stroke:#fff;stroke-miterlimit:10;stroke-width:1.25px;}.b{fill:#f3bfd8;}.c{fill:#fbbe4d;}</style></defs><title>wasuyu_bg</title><path class="a" d="M984.5,242.5c13.6,3-10,42-10,42s-3,1-4,0C970.5,258.5,975.5,240.5,984.5,242.5Z"/><path class="a" d="M1006.5,257.5c9,8-19,25-28,29l-2-4S996.44,248.56,1006.5,257.5Z"/><path class="a" d="M979.48,286.5s35.12-21.63,40-11c6,13-40,14-40,14Z"/><path class="a" d="M977.5,290.5s45-3,43,8-31,1-45-6Z"/><path class="a" d="M977.5,292.5s38,23,29,32c-11,11.05-33-29-33-29Z"/><path class="a" d="M974.5,296.5s14.57,32.71,6,39c-15,11-9-39-9-39Z"/><path class="a" d="M971.5,293.5s-4.47,48.15-18,42C942.5,330.5,967.5,295.5,971.5,293.5Z"/><path class="a" d="M969.5,294.5s-29,35-37,27c-6-6,17-24,35-28Z"/><path class="a" d="M965.5,293.5s-38.19,18.63-44,7c-2-4,13-11,44-9Z"/><path class="a" d="M965.5,290.5s-47-2-42-14c2.24-5.38,20-3,42,11Z"/><path class="a" d="M965.5,287.5s-36.06-22.94-28-31c9-9,31,28,31,28Z"/><path class="a" d="M970.5,282.5s-1.79-42.6-13-37c-10,5,11,39,11,39Z"/><circle class="a" cx="972.5" cy="289.5" r="10"/><path class="a" d="M421.14,237c-13.9.88-2.06-43.12-2.06-43.12s2.6-1.8,3.84-1.11C430.14,217.77,430.34,236.45,421.14,237Z"/><path class="a" d="M395.84,228.73c-10.87-5.18,11.3-29.29,18.84-35.63l3,3.28S408,234.53,395.84,228.73Z"/><path class="a" d="M413.73,193.37S386,223.9,378.35,215.05c-9.38-10.82,34.53-24.56,34.53-24.56Z"/><path class="a" d="M414.53,189s-42.4,15.38-43.53,4.26,29.5-9.58,44.89-6.74Z"/><path class="a" d="M414,187.06s-42.89-11.54-36.75-22.69c7.55-13.68,39.76,18.69,39.76,18.69Z"/><path class="a" d="M415.74,182.38s-23.08-27.38-16.59-35.8c11.35-14.73,19.48,35,19.48,35Z"/><path class="a" d="M419.46,184.43s-9.09-47.5,5.62-45.35C437,140.83,422.75,181.4,419.46,184.43Z"/><path class="a" d="M421.1,182.91s18.14-41.68,28-36.21c7.43,4.09-9.67,27.77-25.85,36.62Z"/><path class="a" d="M425.22,182.76s31.51-28.5,40.33-18.95c3,3.29-9.44,14.18-39.77,20.87Z"/><path class="a" d="M426.06,185.64s45.7-11.13,44.23,1.79c-.66,5.79-18.38,8.43-43.4,1.1Z"/><path class="a" d="M426.89,188.53s41,12,35.51,22c-6.15,11.14-37.56-18.29-37.56-18.29Z"/><path class="a" d="M423.47,194.72s13.56,40.43,22.77,31.93c8.22-7.58-21.4-34.41-21.4-34.41Z"/><circle class="a" cx="419.61" cy="188.55" r="10"/><path class="b" d="M670.2,557.06c3.3-13.53,41.77,10.86,41.77,10.86s.94,3-.08,4C685.9,571.39,668,566,670.2,557.06Z"/><path class="b" d="M685.64,535.38c8.18-8.83,24.6,19.51,28.41,28.59l-4,1.91S676.5,545.25,685.64,535.38Z"/><path class="b" d="M714.07,563s-20.89-35.54-10.17-40.22C717,517,717.07,563,717.07,563Z"/><path class="b" d="M718,565.05s-2.07-45,8.88-42.81.36,31-6.93,44.85Z"/><path class="b" d="M720,565.09s23.77-37.5,32.58-28.32c10.81,11.26-29.67,32.38-29.67,32.38Z"/><path class="b" d="M724,568.17s33-13.89,39.11-5.19c10.68,15.22-39.17,8.19-39.17,8.19Z"/><path class="b" d="M720.9,571.11s48,5.46,41.61,18.86C757.28,600.86,722.82,575.15,720.9,571.11Z"/><path class="b" d="M721.86,573.13s34.38,29.71,26.22,37.54c-6.12,5.87-23.63-17.49-27.26-35.56Z"/><path class="b" d="M720.78,577.11s17.83,38.55,6.09,44.12c-4,1.91-10.73-13.22-8.09-44.17Z"/><path class="b" d="M717.78,577s-3,46.94-14.86,41.69c-5.33-2.35-2.59-20.05,11.86-41.75Z"/><path class="b" d="M714.78,577s-23.67,35.57-31.56,27.35c-8.81-9.18,28.62-30.41,28.62-30.41Z"/><path class="b" d="M709.89,571.88s-42.62.91-37.25,12.23c4.79,10.1,39.2-10.19,39.2-10.19Z"/><circle class="b" cx="716.92" cy="570.03" r="10"/><path class="b" d="M951.18,375.37c3.23-13.25,40.9,10.63,40.9,10.63s.91,3-.09,3.92C966.55,389.39,949,384.13,951.18,375.37Z"/><path class="b" d="M966.3,354.14c8-8.64,24.08,19.1,27.81,28l-4,1.87S957.35,363.8,966.3,354.14Z"/><path class="b" d="M994.13,381.16s-20.45-34.79-10-39.38c12.84-5.61,12.89,39.43,12.89,39.43Z"/><path class="b" d="M998,383.19s-2-44.1,8.7-41.92.35,30.36-6.79,43.91Z"/><path class="b" d="M1000,383.23s23.28-36.72,31.91-27.73c10.58,11-29,31.7-29,31.7Z"/><path class="b" d="M1003.82,386.24s32.31-13.6,38.28-5.08c10.47,14.9-38.34,8-38.34,8Z"/><path class="b" d="M1000.82,389.12s47,5.34,40.74,18.46C1036.44,418.24,1002.7,393.07,1000.82,389.12Z"/><path class="b" d="M1001.76,391.1s33.66,29.08,25.67,36.75c-6,5.75-23.14-17.12-26.69-34.82Z"/><path class="b" d="M1000.7,395s17.46,37.74,6,43.2c-3.95,1.87-10.5-12.95-7.92-43.24Z"/><path class="b" d="M997.77,394.93s-2.91,45.95-14.55,40.82c-5.23-2.31-2.54-19.64,11.61-40.88Z"/><path class="b" d="M994.83,394.87s-23.18,34.82-30.9,26.77c-8.63-9,28-29.77,28-29.77Z"/><path class="b" d="M990,389.87s-41.73.9-36.47,12c4.69,9.88,38.38-10,38.38-10Z"/><circle class="b" cx="996.93" cy="388.06" r="9.79"/><path class="c" d="M767.07,490.93c7-9.52,29.2,22.11,29.2,22.11s-.25,2.67-1.36,3.11C774.71,507.27,762.44,497.24,767.07,490.93Z"/><path class="c" d="M786.23,479c9.29-4.26,12.93,23.29,13,31.65l-3.79.19S775.85,483.73,786.23,479Z"/><path class="c" d="M799.53,509.86s-4.81-34.66,5.12-34.84c12.14-.22-2.79,35.85-2.79,35.85Z"/><path class="c" d="M802,512.76s13-36,20.89-30.66-9.81,24.42-20,32.9Z"/><path class="c" d="M803.51,513.45s30.84-21.66,34.76-11.6c4.8,12.35-33.8,15.73-33.8,15.73Z"/><path class="c" d="M805.59,517.14S836,517,837.93,525.8c3.42,15.41-33.36-6.33-33.36-6.33Z"/><path class="c" d="M802.24,518.45s35.87,19.91,26.47,28.32C821.07,553.61,802.42,522.24,802.24,518.45Z"/><path class="c" d="M802.33,520.34s17.28,34.48,8.33,38c-6.7,2.61-12.83-21.4-9.79-36.75Z"/><path class="c" d="M800.19,523.11s1.42,36-9.59,36.56c-3.79.19-4.11-13.85,8-37.25Z"/><path class="c" d="M797.86,522.08s-17.61,35.82-25.22,27.84c-3.41-3.58,4.5-16.56,22.89-28.86Z"/><path class="c" d="M795.53,521.06s-30.13,20.17-33.64,11.16c-3.92-10.07,32.33-14.52,32.33-14.52Z"/><path class="c" d="M793.35,515.47s-33.7-13.16-33.17-2.54c.46,9.47,34,4.77,34,4.77Z"/><circle class="c" cx="799.47" cy="516.3" r="8.48"/><path class="b" d="M116,350.7c5.7-8.34,25.58,18.08,25.58,18.08s-.14,2.29-1.08,2.7C123,364.45,112.2,356.22,116,350.7Z"/><path class="b" d="M132,339.94c7.82-3.9,11.7,19.55,12,26.69l-3.23.27S123.29,344.3,132,339.94Z"/><path class="b" d="M144.25,366s-5.08-29.49,3.4-29.92c10.38-.53-1.38,30.72-1.38,30.72Z"/><path class="b" d="M146.41,368.38s10.14-31.11,17-26.79-7.7,21.14-16.2,28.68Z"/><path class="b" d="M147.75,368.92s25.76-19.37,29.39-10.88c4.45,10.42-28.45,14.39-28.45,14.39Z"/><path class="b" d="M149.64,372s26-1,27.88,6.5c3.35,13.07-28.69-4.48-28.69-4.48Z"/><path class="b" d="M146.81,373.23s31.21,16,23.41,23.47C163.89,402.76,147.07,376.47,146.81,373.23Z"/><path class="b" d="M146.94,374.85s15.73,29,8.18,32.21c-5.66,2.42-11.56-17.93-9.39-31.13Z"/><path class="b" d="M145.18,377.27S147.41,408,138,408.79c-3.23.27-3.89-11.72,5.83-32.06Z"/><path class="b" d="M143.16,376.46s-14,31.11-20.77,24.5c-3-3,3.38-14.27,18.75-25.31Z"/><path class="b" d="M141.14,375.65S116,393.74,112.7,386.13c-3.62-8.49,27.24-13.31,27.24-13.31Z"/><path class="b" d="M139.13,370.94S110,360.63,110.7,369.69c.67,8.09,29.24,3.13,29.24,3.13Z"/><circle class="b" cx="144.38" cy="371.48" r="7.26"/><path class="a" d="M219.2,278.63c-1.73-9.53,29.61-4.92,29.61-4.92s1.45,1.66,1.08,2.57C233.23,283.29,220.35,284.94,219.2,278.63Z"/><path class="a" d="M222.88,260.49c2.7-7.92,21.14,5.43,26.13,10.12L247,273S219.86,269.34,222.88,260.49Z"/><path class="a" d="M248.74,270s-23.32-16.66-17.83-22.67c6.71-7.35,19.75,21.85,19.75,21.85Z"/><path class="a" d="M251.84,270.17s-14.05-28-6.47-29.7,9,19.59,8.29,30.45Z"/><path class="a" d="M253.12,269.63s4.49-30.54,12.69-27.2c10.05,4.09-9.69,29-9.69,29Z"/><path class="a" d="M256.5,270.48s17-18.16,23.37-14.36C291,262.76,257.3,272.4,257.3,272.4Z"/><path class="a" d="M255.38,273.21s32.06-10.12,31.77.21C286.91,281.81,257.74,275.23,255.38,273.21Z"/><path class="a" d="M256.56,274.22s30.25,9.14,27.28,16.43c-2.23,5.46-20-4.42-27.38-14.88Z"/><path class="a" d="M257,277.05s22.23,19.45,16.35,26.31c-2,2.36-10.55-5.37-17.63-25.77Z"/><path class="a" d="M255.08,277.86s11.39,30.66,2.35,30.69c-4.05,0-7.31-12-4.27-29.88Z"/><path class="a" d="M253.16,278.67s-5,29.29-12.32,26.3c-8.19-3.34,9.58-27.41,9.58-27.41Z"/><path class="a" d="M248.6,276.82s-26.81,12.63-20.2,18.3c5.9,5.06,22-17.56,22-17.56Z"/><circle class="a" cx="252.55" cy="273.65" r="6.95"/><path class="b" d="M266.93,207.46c-6.39-7.61,23.9-19.46,23.9-19.46s2.13.73,2.27,1.73C281.81,204.47,271.16,212.5,266.93,207.46Z"/><path class="b" d="M261,189.41c-1.63-8.44,21.62-5.92,28.46-4.28l-.6,3.13S262.79,198.84,261,189.41Z"/><path class="b" d="M288.87,184.7s-29.29-3-27.45-11.13c2.24-10,28.74,9.42,28.74,9.42Z"/><path class="b" d="M291.73,183.3s-26.8-17.84-20.9-23.2,18,12.89,22.9,22.93Z"/><path class="b" d="M292.6,182.16s-11.55-29.53-2.55-30.72c11.06-1.47,6.12,30.76,6.12,30.76Z"/><path class="b" d="M296,181.2s5.94-24.87,13.52-24.71c13.28.27-11.82,26-11.82,26Z"/><path class="b" d="M296.43,184.2s23.43-25.35,28.44-16C328.93,175.82,299.57,184.8,296.43,184.2Z"/><path class="b" d="M298,184.5s31.63-7.25,32.69.76c.8,6-20.05,6.22-32,.68Z"/><path class="b" d="M299.84,186.8s29.72,6,28,15.13c-.6,3.14-12.14.6-28.84-14Z"/><path class="b" d="M298.53,188.5S324.3,210,316.26,214.67c-3.61,2.07-12.64-7-19-24.47Z"/><path class="b" d="M297.23,190.2s10.48,28.66,2.42,29.73c-9,1.19-5.42-29.33-5.42-29.33Z"/><path class="b" d="M292.23,190.87s-17.48,24.92-8.69,26.61c7.83,1.51,10.69-26.88,10.69-26.88Z"/><circle class="b" cx="294.13" cy="186.03" r="7.14"/><path class="b" d="M469.13,133.14c.08-9.94,30.81.74,30.81.74s1.14,1.94.59,2.79C482.38,140.54,469.07,139.72,469.13,133.14Z"/><path class="b" d="M476.33,115.55c4.25-7.47,20.28,9.55,24.41,15.24l-2.5,2S471.58,123.9,476.33,115.55Z"/><path class="b" d="M500.59,130.1S480.27,108.8,487,103.8c8.19-6.13,15.73,25.84,15.73,25.84Z"/><path class="b" d="M503.68,130.89s-8.78-31-.81-31.21,5.31,21.5,2.5,32.31Z"/><path class="b" d="M505.08,130.59s10.41-29.95,18-25c9.35,6.07-15.34,27.35-15.34,27.35Z"/><path class="b" d="M508.32,132.09s20.67-15,26.33-10c9.91,8.84-25.89,12.08-25.89,12.08Z"/><path class="b" d="M506.67,134.64s34.28-4,32,6.32C536.81,149.38,508.66,137.13,506.67,134.64Z"/><path class="b" d="M507.66,135.88S536.41,150.93,532,157.7c-3.29,5.08-19.28-8.3-24.75-20.27Z"/><path class="b" d="M507.56,138.82s18.68,23.9,11.43,29.69c-2.5,2-9.62-7.45-12.83-29.39Z"/><path class="b" d="M505.46,139.27s5.59,33.11-3.53,31.41c-4.09-.77-5.06-13.52,1.44-31Z"/><path class="b" d="M503.37,139.72s-10.65,28.59-17.48,24.15c-7.62-4.94,14.94-25.8,14.94-25.8Z"/><path class="b" d="M499.14,137s-29.48,7.58-23.91,14.58c5,6.23,25.6-13.48,25.6-13.48Z"/><circle class="b" cx="503.42" cy="134.47" r="7.14"/><path class="b" d="M1023.64,194c9.54-2.81,8.26,29.69,8.26,29.69s-1.53,1.66-2.5,1.38C1020.42,208.82,1017.33,195.85,1023.64,194Z"/><path class="b" d="M1042.57,195.76c8.39,1.89-3.24,22.18-7.48,27.79l-2.63-1.81S1033.2,193.65,1042.57,195.76Z"/><path class="b" d="M1035.71,223.21s14.46-25.64,21.2-20.69c8.24,6-20.16,22.56-20.16,22.56Z"/><path class="b" d="M1035.85,226.39s27.08-17.41,29.63-9.85-19,11.33-30.19,11.8Z"/><path class="b" d="M1036.54,227.64s31.68,1.25,29.17,10c-3.09,10.72-30.63-6.72-30.63-6.72Z"/><path class="b" d="M1036.05,231.18s20.4,15.41,17.21,22.29c-5.57,12.06-19.09-21.25-19.09-21.25Z"/><path class="b" d="M1033.14,230.34S1047,262,1036.39,262.8C1027.8,263.47,1031.33,233,1033.14,230.34Z"/><path class="b" d="M1032.23,231.66s-6,31.88-13.79,29.64c-5.82-1.67,2.33-20.86,12.2-29.58Z"/><path class="b" d="M1029.39,232.41S1012,257.24,1004.31,252c-2.63-1.81,4.33-11.36,24.39-20.82Z"/><path class="b" d="M1028.35,230.54s-30,15-31.07,5.76c-.46-4.14,11.46-8.78,30-7.64Z"/><path class="b" d="M1027.32,228.66s-30.46-1.87-28.2-9.69c2.51-8.73,29,6.78,29,6.78Z"/><path class="b" d="M1028.71,223.81s-15.83-26-20.9-18.62c-4.52,6.57,20.34,20.56,20.34,20.56Z"/><circle class="b" cx="1032.35" cy="227.18" r="7.14"/><path class="b" d="M1107.91,220.42c5.44-8.32,25.55,17.24,25.55,17.24s-.08,2.26-1,2.68C1115.09,233.8,1104.32,225.93,1107.91,220.42Z"/><path class="b" d="M1123.47,209.5c7.6-4,11.92,19,12.33,26l-3.17.33S1115,214,1123.47,209.5Z"/><path class="b" d="M1136.05,234.84s-5.62-28.9,2.71-29.51c10.2-.74-.7,30.25-.7,30.25Z"/><path class="b" d="M1138.23,237.17s9.3-30.82,16.15-26.72-7.12,21-15.32,28.56Z"/><path class="b" d="M1139.56,237.67s24.92-19.61,28.67-11.33c4.61,10.15-27.67,14.76-27.67,14.76Z"/><path class="b" d="M1141.48,240.68s25.52-1.51,27.57,5.79c3.58,12.79-28.32-3.79-28.32-3.79Z"/><path class="b" d="M1138.72,241.93s31,15.09,23.54,22.58C1156.15,270.61,1139.05,245.11,1138.72,241.93Z"/><path class="b" d="M1138.89,243.52s16.09,28.17,8.74,31.51c-5.52,2.5-11.77-17.4-9.91-30.43Z"/><path class="b" d="M1137.21,245.94s2.85,30.2-6.38,31.16c-3.18.33-4.08-11.45,5.05-31.66Z"/><path class="b" d="M1135.21,245.18s-13.15,30.9-19.91,24.55c-3-2.85,3-14.12,17.9-25.3Z"/><path class="b" d="M1133.2,244.43s-24.39,18.33-27.75,10.92c-3.75-8.28,26.5-13.68,26.5-13.68Z"/><path class="b" d="M1131.12,239.83s-28.91-9.51-28-.61c.83,7.94,28.82,2.45,28.82,2.45Z"/><circle class="b" cx="1136.07" cy="240.04" r="7.14"/><path class="a" d="M845.56,507.2c2.3-9.67,29.87,7.6,29.87,7.6s.68,2.15,0,2.86C856.82,517.37,844,513.6,845.56,507.2Z"/><path class="a" d="M856.51,491.66c5.81-6.33,17.63,13.84,20.39,20.31L874,513.35S850,498.74,856.51,491.66Z"/><path class="a" d="M876.91,511.27s-15-25.3-7.41-28.69c9.34-4.14,9.55,28.71,9.55,28.71Z"/><path class="a" d="M879.74,512.73s-1.64-32.16,6.19-30.61.37,22.14-4.78,32.06Z"/><path class="a" d="M881.17,512.75S898,485.88,904.33,492.4c7.76,8-21.06,23.24-21.06,23.24Z"/><path class="a" d="M884,514.93s23.51-10,27.91-3.85c7.68,10.83-27.94,6-27.94,6Z"/><path class="a" d="M881.82,517s34.32,3.72,29.78,13.31C907.91,538.15,883.2,519.92,881.82,517Z"/><path class="a" d="M882.51,518.48s24.66,21.09,18.86,26.71c-4.35,4.22-16.94-12.4-19.6-25.29Z"/><path class="a" d="M881.75,521.33s12.88,27.46,4.51,31.48c-2.87,1.38-7.71-9.4-5.94-31.51Z"/><path class="a" d="M879.61,521.29s-2,33.53-10.46,29.83c-3.81-1.66-1.92-14.31,8.32-29.86Z"/><path class="a" d="M877.47,521.26S860.7,546.75,855,540.9c-6.32-6.52,20.33-21.82,20.33-21.82Z"/><path class="a" d="M874,517.63s-30.42.81-26.55,8.88c3.46,7.19,28-7.43,28-7.43Z"/><circle class="a" cx="878.69" cy="516.16" r="7.14"/><path class="a" d="M438.72,513.68c2.46-9.64,29.75,8.06,29.75,8.06s.65,2.17-.09,2.86C449.83,524,437.1,520.06,438.72,513.68Z"/><path class="a" d="M449.91,498.31c5.91-6.24,17.42,14.11,20.07,20.62l-2.89,1.34S443.31,505.29,449.91,498.31Z"/><path class="a" d="M470,518.23s-14.66-25.53-7-28.79c9.41-4,9.11,28.85,9.11,28.85Z"/><path class="a" d="M472.82,519.74s-1.15-32.18,6.66-30.51,0,22.14-5.28,32Z"/><path class="a" d="M474.24,519.78s17.26-26.6,23.48-20c7.63,8.12-21.42,22.9-21.42,22.9Z"/><path class="a" d="M477,522s23.67-9.67,28-3.42c7.52,10.95-28,5.56-28,5.56Z"/><path class="a" d="M474.82,524.08s34.26,4.26,29.57,13.78C500.58,545.59,476.16,527,474.82,524.08Z"/><path class="a" d="M475.49,525.53s24.33,21.47,18.45,27c-4.41,4.15-16.75-12.66-19.2-25.59Z"/><path class="a" d="M474.69,528.36s12.45,27.66,4,31.55c-2.9,1.34-7.56-9.52-5.45-31.59Z"/><path class="a" d="M472.55,528.3s-2.47,33.49-10.92,29.66c-3.79-1.72-1.7-14.34,8.78-29.73Z"/><path class="a" d="M470.41,528.23s-17.17,25.22-22.74,19.29c-6.22-6.62,20.67-21.5,20.67-21.5Z"/><path class="a" d="M467,524.55s-30.44.34-26.69,8.46c3.35,7.25,28.08-7,28.08-7Z"/><circle class="a" cx="471.71" cy="523.15" r="7.14"/><path class="b" d="M370.72,488.68c2.46-9.64,29.75,8.06,29.75,8.06s.65,2.17-.09,2.86C381.83,499,369.1,495.06,370.72,488.68Z"/><path class="b" d="M381.91,473.31c5.91-6.24,17.42,14.11,20.07,20.62l-2.89,1.34S375.31,480.29,381.91,473.31Z"/><path class="b" d="M402,493.23s-14.66-25.53-7-28.79c9.41-4,9.11,28.85,9.11,28.85Z"/><path class="b" d="M404.82,494.74s-1.15-32.18,6.66-30.51,0,22.14-5.28,32Z"/><path class="b" d="M406.24,494.78s17.26-26.6,23.48-20c7.63,8.12-21.42,22.9-21.42,22.9Z"/><path class="b" d="M409,497s23.67-9.67,28-3.42c7.52,11-28,5.56-28,5.56Z"/><path class="b" d="M406.82,499.08s34.26,4.26,29.57,13.78C432.58,520.59,408.16,502,406.82,499.08Z"/><path class="b" d="M407.49,500.53s24.33,21.47,18.45,27c-4.41,4.15-16.75-12.66-19.2-25.59Z"/><path class="b" d="M406.69,503.36s12.45,27.66,4,31.55c-2.9,1.34-7.56-9.52-5.45-31.59Z"/><path class="b" d="M404.55,503.3s-2.47,33.49-10.92,29.66c-3.79-1.72-1.7-14.34,8.78-29.73Z"/><path class="b" d="M402.41,503.23s-17.17,25.22-22.74,19.29c-6.22-6.62,20.67-21.5,20.67-21.5Z"/><path class="b" d="M399,499.55s-30.44.34-26.69,8.46c3.35,7.25,28.08-7,28.08-7Z"/><circle class="b" cx="403.71" cy="498.15" r="7.14"/><path class="a" d="M293.05,497c-7.73-6.25,19.75-23.66,19.75-23.66s2.23.31,2.55,1.27C307.09,491.18,298.17,501.09,293.05,497Z"/><path class="a" d="M283.76,480.37c-3.21-8,20.09-9.94,27.12-9.63v3.19S287.34,489.28,283.76,480.37Z"/><path class="a" d="M310.25,470.43s-29.32,2.65-29.07-5.7c.3-10.22,30,3.77,30,3.77Z"/><path class="a" d="M312.79,468.5s-29.71-12.39-24.94-18.79,20.13,9.22,26.85,18.15Z"/><path class="a" d="M313.43,467.22s-17-26.78-8.36-29.67c10.57-3.55,11.87,29,11.87,29Z"/><path class="a" d="M316.62,465.62s1.09-25.54,8.56-26.83c13.09-2.26-6.65,27.78-6.65,27.78Z"/><path class="a" d="M317.58,468.49s18.17-29.35,24.86-21.12C347.88,454.07,320.77,468.49,317.58,468.49Z"/><path class="a" d="M319.17,468.49s29.67-13.15,32.24-5.49c1.92,5.74-18.5,9.93-31.28,6.76Z"/><path class="a" d="M321.41,470.4s30.33.24,30.35,9.52c0,3.19-11.81,2.9-31-8.24Z"/><path class="a" d="M320.46,472.32s29.4,16.22,22.39,22.3c-3.15,2.73-13.74-4.44-23.35-20.39Z"/><path class="a" d="M319.5,474.23s15.76,26.13,8,28.72c-8.61,2.89-10.91-27.75-10.91-27.75Z"/><path class="a" d="M314.72,475.84s-12.41,27.8-3.46,27.78c8,0,5.37-28.42,5.37-28.42Z"/><circle class="a" cx="315.43" cy="470.93" r="7.14"/><path class="c" d="M1023,308.56c3-11.58,35.74,9.69,35.74,9.69s.78,2.6-.11,3.43C1036.3,321,1021,316.22,1023,308.56Z"/><path class="c" d="M1036.4,290.1c7.1-7.51,20.93,16.95,24.12,24.77l-3.48,1.61S1028.47,298.48,1036.4,290.1Z"/><path class="c" d="M1060.55,314s-17.61-30.68-8.37-34.6c11.31-4.8,10.94,34.67,10.94,34.67Z"/><path class="c" d="M1063.92,315.84s-1.37-38.66,8-36.66,0,26.61-6.34,38.42Z"/><path class="c" d="M1065.64,315.89s20.73-32,28.21-24c9.17,9.76-25.74,27.52-25.74,27.52Z"/><path class="c" d="M1069,318.57s28.43-11.63,33.6-4.11c9,13.15-33.68,6.68-33.68,6.68Z"/><path class="c" d="M1066.34,321.06s41.16,5.11,35.53,16.55C1097.29,346.91,1068,324.54,1066.34,321.06Z"/><path class="c" d="M1067.14,322.8s29.24,25.79,22.17,32.44c-5.31,5-20.13-15.21-23.08-30.75Z"/><path class="c" d="M1066.18,326.2s15,33.24,4.83,37.91c-3.48,1.61-9.09-11.43-6.55-38Z"/><path class="c" d="M1063.61,326.12s-3,40.25-13.12,35.64c-4.56-2.06-2-17.23,10.54-35.72Z"/><path class="c" d="M1061,326s-20.62,30.31-27.32,23.19c-7.47-8,24.83-25.84,24.83-25.84Z"/><path class="c" d="M1056.88,321.63s-36.57.4-32.07,10.16c4,8.7,33.73-8.4,33.73-8.4Z"/><circle class="c" cx="1062.59" cy="319.94" r="8.58"/><path class="a" d="M804.84,208.42c13.86,1.37-4.88,42.9-4.88,42.9s-2.85,1.36-4,.48C792.87,226,795.67,207.52,804.84,208.42Z"/><path class="a" d="M828.49,220.67c9.89,6.86-15.86,27.1-24.31,32.16l-2.47-3.73S817.43,213,828.49,220.67Z"/><path class="a" d="M805.15,252.71S837.41,227,843.56,237c7.52,12.18-38,18.7-38,18.7Z"/><path class="a" d="M803.66,256.92s44.32-8.39,43.65,2.77-30.65,4.72-45.39-.55Z"/><path class="a" d="M803.9,258.9s40.49,18.27,32.64,28.28c-9.63,12.3-36.25-24.82-36.25-24.82Z"/><path class="a" d="M801.41,263.23s18.4,30.73,10.64,38C798.49,314,798.43,263.6,798.43,263.6Z"/><path class="a" d="M798.07,260.62s1.36,48.34-12.82,43.86C773.73,300.84,794.34,263.08,798.07,260.62Z"/><path class="a" d="M796.2,261.85s-24.58,38.23-33.48,31.25c-6.68-5.23,14-25.87,31.38-32Z"/><path class="a" d="M792.11,261.34s-35.67,23.08-42.84,12.24c-2.46-3.73,11.59-12.48,42.6-14.23Z"/><path class="a" d="M791.75,258.36s-46.9,3.67-43.38-8.85c1.58-5.61,19.5-5.38,43,5.87Z"/><path class="a" d="M791.39,255.38S752.83,237,759.87,228C767.72,218,794,252,794,252Z"/><path class="a" d="M795.75,249.82s-6.9-42.08-17.35-35.17C769.07,220.82,794,252,794,252Z"/><circle class="a" cx="798.58" cy="256.53" r="10"/><path class="c" d="M914.45,188.48c2.29-9.68,29.88,7.54,29.88,7.54s.69,2.15,0,2.86C925.73,198.63,912.93,194.88,914.45,188.48Z"/><path class="c" d="M925.37,172.92c5.8-6.35,17.66,13.8,20.43,20.27l-2.88,1.39S918.89,180,925.37,172.92Z"/><path class="c" d="M945.81,192.48s-15.1-25.27-7.47-28.67c9.34-4.15,9.61,28.69,9.61,28.69Z"/><path class="c" d="M948.64,193.94s-1.7-32.15,6.13-30.62.41,22.14-4.72,32.07Z"/><path class="c" d="M950.07,194s16.79-26.9,23.12-20.39c7.78,8-21,23.27-21,23.27Z"/><path class="c" d="M952.9,196.14s23.49-10.09,27.89-3.91c7.71,10.82-27.92,6.05-27.92,6.05Z"/><path class="c" d="M950.73,198.25s34.32,3.66,29.8,13.26C976.86,219.31,952.12,201.13,950.73,198.25Z"/><path class="c" d="M951.42,199.69s24.7,21,18.92,26.67c-4.35,4.23-17-12.37-19.65-25.25Z"/><path class="c" d="M950.67,202.53S963.59,230,955.24,234c-2.88,1.39-7.73-9.39-6-31.5Z"/><path class="c" d="M948.53,202.5s-1.89,33.53-10.4,29.85c-3.82-1.65-2-14.31,8.26-29.87Z"/><path class="c" d="M946.39,202.48S929.66,228,924,222.16c-6.34-6.51,20.28-21.86,20.28-21.86Z"/><path class="c" d="M942.87,198.86s-30.43.86-26.54,8.92c3.47,7.19,27.94-7.48,27.94-7.48Z"/><circle class="c" cx="947.59" cy="197.37" r="7.14"/><path class="b" d="M838.7,186.43C847,175.25,873,212.69,873,212.69s-.31,3.15-1.63,3.65C847.6,205.74,833.2,193.83,838.7,186.43Z"/><path class="b" d="M861.37,172.46c11-5,15.07,27.54,15.06,37.39l-4.47.2S849.1,178,861.37,172.46Z"/><path class="b" d="M876.83,209s-5.43-40.88,6.27-41c14.32-.18-3.53,42.23-3.53,42.23Z"/><path class="b" d="M879.67,212.4s15.61-42.31,24.84-36S892.78,205.11,880.68,215Z"/><path class="b" d="M881.5,213.21s36.49-25.31,41-13.43c5.58,14.59-39.94,18.31-39.94,18.31Z"/><path class="b" d="M883.92,217.58s35.82,0,38.06,10.43c3.93,18.18-39.28-7.69-39.28-7.69Z"/><path class="b" d="M880,219.1s42.15,23.71,31,33.56C901.92,260.67,880.16,223.57,880,219.1Z"/><path class="b" d="M880.06,221.33s20.13,40.76,9.56,44.8c-7.92,3-15-25.31-11.29-43.38Z"/><path class="b" d="M877.52,224.58S879,267,866,267.61c-4.47.19-4.74-16.36,9.73-43.85Z"/><path class="b" d="M874.78,223.35s-21,42.1-29.92,32.64c-4-4.24,5.42-19.48,27.18-33.86Z"/><path class="b" d="M872,222.13s-35.65,23.57-39.73,12.92c-4.54-11.89,38.21-16.88,38.21-16.88Z"/><path class="b" d="M869.51,215.53s-39.63-15.74-39.08-3.23c.48,11.17,40.09,5.87,40.09,5.87Z"/><circle class="b" cx="876.72" cy="216.55" r="10"/><path class="b" d="M857.18,352.11c3.71-13.42,41.43,12.14,41.43,12.14s.84,3-.21,4C872.44,366.91,854.72,361,857.18,352.11Z"/><path class="b" d="M873.28,330.91c8.45-8.58,24,20.25,27.53,29.44l-4.1,1.8S863.84,340.49,873.28,330.91Z"/><path class="b" d="M900.86,359.37s-19.8-36.17-8.93-40.52c13.29-5.33,11.93,40.66,11.93,40.66Z"/><path class="b" d="M904.75,361.56s-.69-45.1,10.2-42.54-.59,31-8.3,44.64Z"/><path class="b" d="M906.75,361.66s24.92-36.77,33.45-27.32c10.46,11.59-30.66,31.47-30.66,31.47Z"/><path class="b" d="M910.59,364.86s33.42-12.88,39.26-4c10.22,15.54-39.41,7-39.41,7Z"/><path class="b" d="M907.44,367.7s47.86,6.93,41,20.13C942.91,398.56,909.24,371.8,907.44,367.7Z"/><path class="b" d="M908.34,369.75s33.47,30.76,25.07,38.34c-6.3,5.68-23.1-18.21-26.17-36.39Z"/><path class="b" d="M907.14,373.7s16.64,39.09,4.73,44.3c-4.09,1.79-10.32-13.55-6.73-44.41Z"/><path class="b" d="M904.14,373.54s-4.4,46.84-16.13,41.23c-5.26-2.51-2-20.13,13.13-41.38Z"/><path class="b" d="M901.14,373.39s-24.75,34.84-32.39,26.37c-8.53-9.44,29.55-29.52,29.55-29.52Z"/><path class="b" d="M896.41,368.14s-42.64-.39-37.62,11.09c4.48,10.24,39.51-9,39.51-9Z"/><circle class="b" cx="903.5" cy="366.5" r="10"/><path class="a" d="M792.18,349.11c3.71-13.42,41.43,12.14,41.43,12.14s.84,3-.21,4C807.44,363.91,789.72,358,792.18,349.11Z"/><path class="a" d="M808.28,327.91c8.45-8.58,24,20.25,27.53,29.44l-4.1,1.8S798.84,337.49,808.28,327.91Z"/><path class="a" d="M835.86,356.37s-19.8-36.17-8.93-40.52c13.29-5.33,11.93,40.66,11.93,40.66Z"/><path class="a" d="M839.75,358.56s-.69-45.1,10.2-42.54-.59,31-8.3,44.64Z"/><path class="a" d="M841.75,358.66s24.92-36.77,33.45-27.32c10.46,11.59-30.66,31.47-30.66,31.47Z"/><path class="a" d="M845.59,361.86s33.42-12.88,39.26-4c10.22,15.54-39.41,7-39.41,7Z"/><path class="a" d="M842.44,364.7s47.86,6.93,41,20.13C877.91,395.56,844.24,368.8,842.44,364.7Z"/><path class="a" d="M843.34,366.75s33.47,30.76,25.07,38.34c-6.3,5.68-23.1-18.21-26.17-36.39Z"/><path class="a" d="M842.14,370.7s16.64,39.09,4.73,44.3c-4.09,1.79-10.32-13.55-6.73-44.41Z"/><path class="a" d="M839.14,370.54s-4.4,46.84-16.13,41.23c-5.26-2.51-2-20.13,13.13-41.38Z"/><path class="a" d="M836.14,370.39s-24.75,34.84-32.39,26.37c-8.53-9.44,29.55-29.52,29.55-29.52Z"/><path class="a" d="M831.41,365.14s-42.64-.39-37.62,11.09c4.48,10.24,39.51-9,39.51-9Z"/><circle class="a" cx="838.5" cy="363.5" r="10"/><path class="a" d="M690.7,352.55C694,339,732.49,363.4,732.49,363.4s.94,3-.08,4C706.42,366.88,688.52,361.51,690.7,352.55Z"/><path class="a" d="M706.15,330.86c8.18-8.83,24.61,19.51,28.42,28.59l-4,1.91S697,340.74,706.15,330.86Z"/><path class="a" d="M734.59,358.46s-20.91-35.54-10.18-40.23c13.12-5.73,13.18,40.28,13.18,40.28Z"/><path class="a" d="M738.55,360.53s-2.08-45.06,8.87-42.83.37,31-6.91,44.87Z"/><path class="a" d="M740.55,360.57s23.77-37.53,32.58-28.35c10.82,11.27-29.66,32.41-29.66,32.41Z"/><path class="a" d="M744.49,363.65s33-13.91,39.11-5.21c10.7,15.22-39.17,8.21-39.17,8.21Z"/><path class="a" d="M741.43,366.59s48.05,5.44,41.63,18.84C777.84,396.33,743.35,370.63,741.43,366.59Z"/><path class="a" d="M742.39,368.61s34.4,29.7,26.24,37.54c-6.12,5.87-23.65-17.49-27.28-35.56Z"/><path class="a" d="M741.31,372.58s17.85,38.56,6.11,44.14c-4,1.92-10.74-13.22-8.11-44.18Z"/><path class="a" d="M738.31,372.52s-2.95,47-14.85,41.71c-5.33-2.35-2.59-20.06,11.85-41.77Z"/><path class="a" d="M735.31,372.46s-23.66,35.59-31.56,27.37c-8.82-9.18,28.62-30.43,28.62-30.43Z"/><path class="a" d="M730.41,367.36s-42.63.93-37.25,12.25c4.79,10.1,39.21-10.21,39.21-10.21Z"/><circle class="a" cx="737.45" cy="365.51" r="10"/><path class="b" d="M738.7,391.55C742,378,780.49,402.4,780.49,402.4s.94,3-.08,4C754.42,405.88,736.52,400.51,738.7,391.55Z"/><path class="b" d="M754.15,369.86c8.18-8.83,24.61,19.51,28.42,28.59l-4,1.91S745,379.74,754.15,369.86Z"/><path class="b" d="M782.59,397.46s-20.91-35.54-10.18-40.23c13.12-5.73,13.18,40.28,13.18,40.28Z"/><path class="b" d="M786.55,399.53s-2.08-45.06,8.87-42.83.37,31-6.91,44.87Z"/><path class="b" d="M788.55,399.57s23.77-37.53,32.58-28.35c10.82,11.27-29.66,32.41-29.66,32.41Z"/><path class="b" d="M792.49,402.65s33-13.91,39.11-5.21c10.7,15.22-39.17,8.21-39.17,8.21Z"/><path class="b" d="M789.43,405.59s48.05,5.44,41.63,18.84C825.84,435.33,791.35,409.63,789.43,405.59Z"/><path class="b" d="M790.39,407.61s34.4,29.7,26.24,37.54c-6.12,5.87-23.65-17.49-27.28-35.56Z"/><path class="b" d="M789.31,411.58s17.85,38.56,6.11,44.14c-4,1.92-10.74-13.22-8.11-44.18Z"/><path class="b" d="M786.31,411.52s-2.95,47-14.85,41.71c-5.33-2.35-2.59-20.06,11.85-41.77Z"/><path class="b" d="M783.31,411.46s-23.66,35.59-31.56,27.37c-8.82-9.18,28.62-30.43,28.62-30.43Z"/><path class="b" d="M778.41,406.36s-42.63.93-37.25,12.25c4.79,10.1,39.21-10.21,39.21-10.21Z"/><circle class="b" cx="785.45" cy="404.51" r="10"/><path class="c" d="M743.7,293.55C747,280,785.49,304.4,785.49,304.4s.94,3-.08,4C759.42,307.88,741.52,302.51,743.7,293.55Z"/><path class="c" d="M759.15,271.86c8.18-8.83,24.61,19.51,28.42,28.59l-4,1.91S750,281.74,759.15,271.86Z"/><path class="c" d="M787.59,299.46s-20.91-35.54-10.18-40.23c13.12-5.73,13.18,40.28,13.18,40.28Z"/><path class="c" d="M791.55,301.53s-2.08-45.06,8.87-42.83.37,31-6.91,44.87Z"/><path class="c" d="M793.55,301.57s23.77-37.53,32.58-28.35c10.82,11.27-29.66,32.41-29.66,32.41Z"/><path class="c" d="M797.49,304.65s33-13.91,39.11-5.21c10.7,15.22-39.17,8.21-39.17,8.21Z"/><path class="c" d="M794.43,307.59s48.05,5.44,41.63,18.84C830.84,337.33,796.35,311.63,794.43,307.59Z"/><path class="c" d="M795.39,309.61s34.4,29.7,26.24,37.54c-6.12,5.87-23.65-17.49-27.28-35.56Z"/><path class="c" d="M794.31,313.58s17.85,38.56,6.11,44.14c-4,1.92-10.74-13.22-8.11-44.18Z"/><path class="c" d="M791.31,313.52s-2.95,47-14.85,41.71c-5.33-2.35-2.59-20.06,11.85-41.77Z"/><path class="c" d="M788.31,313.46s-23.66,35.59-31.56,27.37c-8.82-9.18,28.62-30.43,28.62-30.43Z"/><path class="c" d="M783.41,308.36s-42.63.93-37.25,12.25c4.79,10.1,39.21-10.21,39.21-10.21Z"/><circle class="c" cx="790.45" cy="306.51" r="10"/><path class="c" d="M566.7,355.55C570,342,608.49,366.4,608.49,366.4s.94,3-.08,4C582.42,369.88,564.52,364.51,566.7,355.55Z"/><path class="c" d="M582.15,333.86c8.18-8.83,24.61,19.51,28.42,28.59l-4,1.91S573,343.74,582.15,333.86Z"/><path class="c" d="M610.59,361.46s-20.91-35.54-10.18-40.23c13.12-5.73,13.18,40.28,13.18,40.28Z"/><path class="c" d="M614.55,363.53s-2.08-45.06,8.87-42.83.37,31-6.91,44.87Z"/><path class="c" d="M616.55,363.57s23.77-37.53,32.58-28.35c10.82,11.27-29.66,32.41-29.66,32.41Z"/><path class="c" d="M620.49,366.65s33-13.91,39.11-5.21c10.7,15.22-39.17,8.21-39.17,8.21Z"/><path class="c" d="M617.43,369.59s48.05,5.44,41.63,18.84C653.84,399.33,619.35,373.63,617.43,369.59Z"/><path class="c" d="M618.39,371.61s34.4,29.7,26.24,37.54c-6.12,5.87-23.65-17.49-27.28-35.56Z"/><path class="c" d="M617.31,375.58s17.85,38.56,6.11,44.14c-4,1.92-10.74-13.22-8.11-44.18Z"/><path class="c" d="M614.31,375.52s-2.95,47-14.85,41.71c-5.33-2.35-2.59-20.06,11.85-41.77Z"/><path class="c" d="M611.31,375.46s-23.66,35.59-31.56,27.37c-8.82-9.18,28.62-30.43,28.62-30.43Z"/><path class="c" d="M606.41,370.36s-42.63.93-37.25,12.25c4.79,10.1,39.21-10.21,39.21-10.21Z"/><circle class="c" cx="613.45" cy="368.51" r="10"/><path class="b" d="M631.7,376.55C635,363,673.49,387.4,673.49,387.4s.94,3-.08,4C647.42,390.88,629.52,385.51,631.7,376.55Z"/><path class="b" d="M647.15,354.86c8.18-8.83,24.61,19.51,28.42,28.59l-4,1.91S638,364.74,647.15,354.86Z"/><path class="b" d="M675.59,382.46s-20.91-35.54-10.18-40.23c13.12-5.73,13.18,40.28,13.18,40.28Z"/><path class="b" d="M679.55,384.53s-2.08-45.06,8.87-42.83.37,31-6.91,44.87Z"/><path class="b" d="M681.55,384.57s23.77-37.53,32.58-28.35c10.82,11.27-29.66,32.41-29.66,32.41Z"/><path class="b" d="M685.49,387.65s33-13.91,39.11-5.21c10.7,15.22-39.17,8.21-39.17,8.21Z"/><path class="b" d="M682.43,390.59s48.05,5.44,41.63,18.84C718.84,420.33,684.35,394.63,682.43,390.59Z"/><path class="b" d="M683.39,392.61s34.4,29.7,26.24,37.54c-6.12,5.87-23.65-17.49-27.28-35.56Z"/><path class="b" d="M682.31,396.58s17.85,38.56,6.11,44.14c-4,1.92-10.74-13.22-8.11-44.18Z"/><path class="b" d="M679.31,396.52s-2.95,47-14.85,41.71c-5.33-2.35-2.59-20.06,11.85-41.77Z"/><path class="b" d="M676.31,396.46s-23.66,35.59-31.56,27.37c-8.82-9.18,28.62-30.43,28.62-30.43Z"/><path class="b" d="M671.41,391.36s-42.63.93-37.25,12.25c4.79,10.1,39.21-10.21,39.21-10.21Z"/><circle class="b" cx="678.45" cy="389.51" r="10"/><path class="a" d="M653.7,307.55C657,294,695.49,318.4,695.49,318.4s.94,3-.08,4C669.42,321.88,651.52,316.51,653.7,307.55Z"/><path class="a" d="M669.15,285.86c8.18-8.83,24.61,19.51,28.42,28.59l-4,1.91S660,295.74,669.15,285.86Z"/><path class="a" d="M697.59,313.46s-20.91-35.54-10.18-40.23c13.12-5.73,13.18,40.28,13.18,40.28Z"/><path class="a" d="M701.55,315.53s-2.08-45.06,8.87-42.83.37,31-6.91,44.87Z"/><path class="a" d="M703.55,315.57s23.77-37.53,32.58-28.35c10.82,11.27-29.66,32.41-29.66,32.41Z"/><path class="a" d="M707.49,318.65s33-13.91,39.11-5.21c10.7,15.22-39.17,8.21-39.17,8.21Z"/><path class="a" d="M704.43,321.59s48.05,5.44,41.63,18.84C740.84,351.33,706.35,325.63,704.43,321.59Z"/><path class="a" d="M705.39,323.61s34.4,29.7,26.24,37.54c-6.12,5.87-23.65-17.49-27.28-35.56Z"/><path class="a" d="M704.31,327.58s17.85,38.56,6.11,44.14c-4,1.92-10.74-13.22-8.11-44.18Z"/><path class="a" d="M701.31,327.52s-2.95,47-14.85,41.71c-5.33-2.35-2.59-20.06,11.85-41.77Z"/><path class="a" d="M698.31,327.46s-23.66,35.59-31.56,27.37c-8.82-9.18,28.62-30.43,28.62-30.43Z"/><path class="a" d="M693.41,322.36s-42.63.93-37.25,12.25c4.79,10.1,39.21-10.21,39.21-10.21Z"/><circle class="a" cx="700.45" cy="320.51" r="10"/><path class="b" d="M591.7,268.55C595,255,633.49,279.4,633.49,279.4s.94,3-.08,4C607.42,282.88,589.52,277.51,591.7,268.55Z"/><path class="b" d="M607.15,246.86c8.18-8.83,24.61,19.51,28.42,28.59l-4,1.91S598,256.74,607.15,246.86Z"/><path class="b" d="M635.59,274.46s-20.91-35.54-10.18-40.23c13.12-5.73,13.18,40.28,13.18,40.28Z"/><path class="b" d="M639.55,276.53s-2.08-45.06,8.87-42.83.37,31-6.91,44.87Z"/><path class="b" d="M641.55,276.57s23.77-37.53,32.58-28.35c10.82,11.27-29.66,32.41-29.66,32.41Z"/><path class="b" d="M645.49,279.65s33-13.91,39.11-5.21c10.7,15.22-39.17,8.21-39.17,8.21Z"/><path class="b" d="M642.43,282.59s48.05,5.44,41.63,18.84C678.84,312.33,644.35,286.63,642.43,282.59Z"/><path class="b" d="M643.39,284.61s34.4,29.7,26.24,37.54c-6.12,5.87-23.65-17.49-27.28-35.56Z"/><path class="b" d="M642.31,288.58s17.85,38.56,6.11,44.14c-4,1.92-10.74-13.22-8.11-44.18Z"/><path class="b" d="M639.31,288.52s-2.95,47-14.85,41.71c-5.33-2.35-2.59-20.06,11.85-41.77Z"/><path class="b" d="M636.31,288.46s-23.66,35.59-31.56,27.37c-8.82-9.18,28.62-30.43,28.62-30.43Z"/><path class="b" d="M631.41,283.36s-42.63.93-37.25,12.25c4.79,10.1,39.21-10.21,39.21-10.21Z"/><circle class="b" cx="638.45" cy="281.51" r="10"/><path class="b" d="M512.7,344.55C516,331,554.49,355.4,554.49,355.4s.94,3-.08,4C528.42,358.88,510.52,353.51,512.7,344.55Z"/><path class="b" d="M528.15,322.86c8.18-8.83,24.61,19.51,28.42,28.59l-4,1.91S519,332.74,528.15,322.86Z"/><path class="b" d="M556.59,350.46s-20.91-35.54-10.18-40.23c13.12-5.73,13.18,40.28,13.18,40.28Z"/><path class="b" d="M560.55,352.53s-2.08-45.06,8.87-42.83.37,31-6.91,44.87Z"/><path class="b" d="M562.55,352.57s23.77-37.53,32.58-28.35c10.82,11.27-29.66,32.41-29.66,32.41Z"/><path class="b" d="M566.49,355.65s33-13.91,39.11-5.21c10.7,15.22-39.17,8.21-39.17,8.21Z"/><path class="b" d="M563.43,358.59s48.05,5.44,41.63,18.84C599.84,388.33,565.35,362.63,563.43,358.59Z"/><path class="b" d="M564.39,360.61s34.4,29.7,26.24,37.54c-6.12,5.87-23.65-17.49-27.28-35.56Z"/><path class="b" d="M563.31,364.58s17.85,38.56,6.11,44.14c-4,1.92-10.74-13.22-8.11-44.18Z"/><path class="b" d="M560.31,364.52s-2.95,47-14.85,41.71c-5.33-2.35-2.59-20.06,11.85-41.77Z"/><path class="b" d="M557.31,364.46s-23.66,35.59-31.56,27.37c-8.82-9.18,28.62-30.43,28.62-30.43Z"/><path class="b" d="M552.41,359.36s-42.63.93-37.25,12.25c4.79,10.1,39.21-10.21,39.21-10.21Z"/><circle class="b" cx="559.45" cy="357.51" r="10"/><path class="a" d="M519.7,281.55C523,268,561.49,292.4,561.49,292.4s.94,3-.08,4C535.42,295.88,517.52,290.51,519.7,281.55Z"/><path class="a" d="M535.15,259.86c8.18-8.83,24.61,19.51,28.42,28.59l-4,1.91S526,269.74,535.15,259.86Z"/><path class="a" d="M563.59,287.46s-20.91-35.54-10.18-40.23c13.12-5.73,13.18,40.28,13.18,40.28Z"/><path class="a" d="M567.55,289.53s-2.08-45.06,8.87-42.83.37,31-6.91,44.87Z"/><path class="a" d="M569.55,289.57s23.77-37.53,32.58-28.35c10.82,11.27-29.66,32.41-29.66,32.41Z"/><path class="a" d="M573.49,292.65s33-13.91,39.11-5.21c10.7,15.22-39.17,8.21-39.17,8.21Z"/><path class="a" d="M570.43,295.59s48.05,5.44,41.63,18.84C606.84,325.33,572.35,299.63,570.43,295.59Z"/><path class="a" d="M571.39,297.61s34.4,29.7,26.24,37.54c-6.12,5.87-23.65-17.49-27.28-35.56Z"/><path class="a" d="M570.31,301.58s17.85,38.56,6.11,44.14c-4,1.92-10.74-13.22-8.11-44.18Z"/><path class="a" d="M567.31,301.52s-2.95,47-14.85,41.71c-5.33-2.35-2.59-20.06,11.85-41.77Z"/><path class="a" d="M564.31,301.46s-23.66,35.59-31.56,27.37c-8.82-9.18,28.62-30.43,28.62-30.43Z"/><path class="a" d="M559.41,296.36s-42.63.93-37.25,12.25c4.79,10.1,39.21-10.21,39.21-10.21Z"/><circle class="a" cx="566.45" cy="294.51" r="10"/><path class="a" d="M433.66,392.85c-4-13.35,41.59-11.61,41.59-11.61s2.32,2.14,1.93,3.5C454.44,397.34,436.27,401.7,433.66,392.85Z"/><path class="a" d="M436.12,366.34c2.63-11.75,31.07,4.5,38.94,10.44l-2.53,3.68S433.17,379.47,436.12,366.34Z"/><path class="a" d="M474.58,375.91s-35.94-20.22-29-29.66c8.46-11.55,31.63,28.2,31.63,28.2Z"/><path class="a" d="M479,375.71s-24.44-37.91-13.85-41.49,15.9,26.63,16.57,42.27Z"/><path class="a" d="M480.79,374.74s1.7-44.38,13.93-40.87c15,4.3-9.37,42.92-9.37,42.92Z"/><path class="a" d="M485.74,375.43s21.55-28.6,31.21-24.15c16.89,7.78-29.75,26.77-29.75,26.77Z"/><path class="a" d="M484.57,379.51s44.28-19.44,45.46-4.62C531,386.94,488.26,382,484.57,379.51Z"/><path class="a" d="M486.42,380.77s44.67,8.4,41.55,19.28c-2.34,8.15-29.24-3.24-41.46-17.05Z"/><path class="a" d="M487.48,384.75s34.8,24.38,27.45,35.1c-2.53,3.68-15.92-6-29.2-34.13Z"/><path class="a" d="M484.86,386.21s21,42.08,8.11,43.52c-5.8.65-12.32-16-10.74-42.07Z"/><path class="a" d="M482.23,387.66s-2.58,42.66-13.54,39.52c-12.24-3.51,9.46-40.69,9.46-40.69Z"/><path class="a" d="M475.43,385.71S439,407.93,449.37,415c9.22,6.32,28.78-28.53,28.78-28.53Z"/><circle class="a" cx="480.59" cy="380.57" r="10"/><path class="c" d="M386.7,316.55C390,303,428.49,327.4,428.49,327.4s.94,3-.08,4C402.42,330.88,384.52,325.51,386.7,316.55Z"/><path class="c" d="M402.15,294.86c8.18-8.83,24.61,19.51,28.42,28.59l-4,1.91S393,304.74,402.15,294.86Z"/><path class="c" d="M430.59,322.46s-20.91-35.54-10.18-40.23c13.12-5.73,13.18,40.28,13.18,40.28Z"/><path class="c" d="M434.55,324.53s-2.08-45.06,8.87-42.83.37,31-6.91,44.87Z"/><path class="c" d="M436.55,324.57s23.77-37.53,32.58-28.35c10.82,11.27-29.66,32.41-29.66,32.41Z"/><path class="c" d="M440.49,327.65s33-13.91,39.11-5.21c10.7,15.22-39.17,8.21-39.17,8.21Z"/><path class="c" d="M437.43,330.59s48.05,5.44,41.63,18.84C473.84,360.33,439.35,334.63,437.43,330.59Z"/><path class="c" d="M438.39,332.61s34.4,29.7,26.24,37.54c-6.12,5.87-23.65-17.49-27.28-35.56Z"/><path class="c" d="M437.31,336.58s17.85,38.56,6.11,44.14c-4,1.92-10.74-13.22-8.11-44.18Z"/><path class="c" d="M434.31,336.52s-2.95,47-14.85,41.71c-5.33-2.35-2.59-20.06,11.85-41.77Z"/><path class="c" d="M431.31,336.46s-23.66,35.59-31.56,27.37c-8.82-9.18,28.62-30.43,28.62-30.43Z"/><path class="c" d="M426.41,331.36s-42.63.93-37.25,12.25c4.79,10.1,39.21-10.21,39.21-10.21Z"/><circle class="c" cx="433.45" cy="329.51" r="10"/><path class="a" d="M521.7,426.55C525,413,563.49,437.4,563.49,437.4s.94,3-.08,4C537.42,440.88,519.52,435.51,521.7,426.55Z"/><path class="a" d="M537.15,404.86c8.18-8.83,24.61,19.51,28.42,28.59l-4,1.91S528,414.74,537.15,404.86Z"/><path class="a" d="M565.59,432.46s-20.91-35.54-10.18-40.23c13.12-5.73,13.18,40.28,13.18,40.28Z"/><path class="a" d="M569.55,434.53s-2.08-45.06,8.87-42.83.37,31-6.91,44.87Z"/><path class="a" d="M571.55,434.57s23.77-37.53,32.58-28.35c10.82,11.27-29.66,32.41-29.66,32.41Z"/><path class="a" d="M575.49,437.65s33-13.91,39.11-5.21c10.7,15.22-39.17,8.21-39.17,8.21Z"/><path class="a" d="M572.43,440.59s48.05,5.44,41.63,18.84C608.84,470.33,574.35,444.63,572.43,440.59Z"/><path class="a" d="M573.39,442.61s34.4,29.7,26.24,37.54c-6.12,5.87-23.65-17.49-27.28-35.56Z"/><path class="a" d="M572.31,446.58s17.85,38.56,6.11,44.14c-4,1.92-10.74-13.22-8.11-44.18Z"/><path class="a" d="M569.31,446.52s-2.95,47-14.85,41.71c-5.33-2.35-2.59-20.06,11.85-41.77Z"/><path class="a" d="M566.31,446.46s-23.66,35.59-31.56,27.37c-8.82-9.18,28.62-30.43,28.62-30.43Z"/><path class="a" d="M561.41,441.36s-42.63.93-37.25,12.25c4.79,10.1,39.21-10.21,39.21-10.21Z"/><circle class="a" cx="568.45" cy="439.51" r="10"/><path class="b" d="M606.72,502.68c2.46-9.64,29.75,8.06,29.75,8.06s.65,2.17-.09,2.86C617.83,513,605.1,509.06,606.72,502.68Z"/><path class="b" d="M617.91,487.31c5.91-6.24,17.42,14.11,20.07,20.62l-2.89,1.34S611.31,494.29,617.91,487.31Z"/><path class="b" d="M638,507.23s-14.66-25.53-7-28.79c9.41-4,9.11,28.85,9.11,28.85Z"/><path class="b" d="M640.82,508.74s-1.15-32.18,6.66-30.51,0,22.14-5.28,32Z"/><path class="b" d="M642.24,508.78s17.26-26.6,23.48-20c7.63,8.12-21.42,22.9-21.42,22.9Z"/><path class="b" d="M645,511s23.67-9.67,28-3.42c7.52,10.95-28,5.56-28,5.56Z"/><path class="b" d="M642.82,513.08s34.26,4.26,29.57,13.78C668.58,534.59,644.16,516,642.82,513.08Z"/><path class="b" d="M643.49,514.53s24.33,21.47,18.45,27c-4.41,4.15-16.75-12.66-19.2-25.59Z"/><path class="b" d="M642.69,517.36s12.45,27.66,4,31.55c-2.9,1.34-7.56-9.52-5.45-31.59Z"/><path class="b" d="M640.55,517.3s-2.47,33.49-10.92,29.66c-3.79-1.72-1.7-14.34,8.78-29.73Z"/><path class="b" d="M638.41,517.23s-17.17,25.22-22.74,19.29c-6.22-6.62,20.67-21.5,20.67-21.5Z"/><path class="b" d="M635,513.55s-30.44.34-26.69,8.46c3.35,7.25,28.08-7,28.08-7Z"/><circle class="b" cx="639.71" cy="512.15" r="7.14"/><path class="a" d="M611.7,433.55C615,420,653.49,444.4,653.49,444.4s.94,3-.08,4C627.42,447.88,609.52,442.51,611.7,433.55Z"/><path class="a" d="M627.15,411.86c8.18-8.83,24.61,19.51,28.42,28.59l-4,1.91S618,421.74,627.15,411.86Z"/><path class="a" d="M655.59,439.46s-20.91-35.54-10.18-40.23c13.12-5.73,13.18,40.28,13.18,40.28Z"/><path class="a" d="M659.55,441.53s-2.08-45.06,8.87-42.83.37,31-6.91,44.87Z"/><path class="a" d="M661.55,441.57s23.77-37.53,32.58-28.35c10.82,11.27-29.66,32.41-29.66,32.41Z"/><path class="a" d="M665.49,444.65s33-13.91,39.11-5.21c10.7,15.22-39.17,8.21-39.17,8.21Z"/><path class="a" d="M662.43,447.59s48.05,5.44,41.63,18.84C698.84,477.33,664.35,451.63,662.43,447.59Z"/><path class="a" d="M663.39,449.61s34.4,29.7,26.24,37.54c-6.12,5.87-23.65-17.49-27.28-35.56Z"/><path class="a" d="M662.31,453.58s17.85,38.56,6.11,44.14c-4,1.92-10.74-13.22-8.11-44.18Z"/><path class="a" d="M659.31,453.52s-2.95,47-14.85,41.71c-5.33-2.35-2.59-20.06,11.85-41.77Z"/><path class="a" d="M656.31,453.46s-23.66,35.59-31.56,27.37c-8.82-9.18,28.62-30.43,28.62-30.43Z"/><path class="a" d="M651.41,448.36s-42.63.93-37.25,12.25c4.79,10.1,39.21-10.21,39.21-10.21Z"/><circle class="a" cx="658.45" cy="446.51" r="10"/><path class="a" d="M673.7,422.55C677,409,715.49,433.4,715.49,433.4s.94,3-.08,4C689.42,436.88,671.52,431.51,673.7,422.55Z"/><path class="a" d="M689.15,400.86c8.18-8.83,24.61,19.51,28.42,28.59l-4,1.91S680,410.74,689.15,400.86Z"/><path class="a" d="M717.59,428.46s-20.91-35.54-10.18-40.23c13.12-5.73,13.18,40.28,13.18,40.28Z"/><path class="a" d="M721.55,430.53s-2.08-45.06,8.87-42.83.37,31-6.91,44.87Z"/><path class="a" d="M723.55,430.57s23.77-37.53,32.58-28.35c10.82,11.27-29.66,32.41-29.66,32.41Z"/><path class="a" d="M727.49,433.65s33-13.91,39.11-5.21c10.7,15.22-39.17,8.21-39.17,8.21Z"/><path class="a" d="M724.43,436.59s48.05,5.44,41.63,18.84C760.84,466.33,726.35,440.63,724.43,436.59Z"/><path class="a" d="M725.39,438.61s34.4,29.7,26.24,37.54c-6.12,5.87-23.65-17.49-27.28-35.56Z"/><path class="a" d="M724.31,442.58s17.85,38.56,6.11,44.14c-4,1.92-10.74-13.22-8.11-44.18Z"/><path class="a" d="M721.31,442.52s-2.95,47-14.85,41.71c-5.33-2.35-2.59-20.06,11.85-41.77Z"/><path class="a" d="M718.31,442.46s-23.66,35.59-31.56,27.37c-8.82-9.18,28.62-30.43,28.62-30.43Z"/><path class="a" d="M713.41,437.36s-42.63.93-37.25,12.25c4.79,10.1,39.21-10.21,39.21-10.21Z"/><circle class="a" cx="720.45" cy="435.51" r="10"/><path class="a" d="M820.7,412.55C824,399,862.49,423.4,862.49,423.4s.94,3-.08,4C836.42,426.88,818.52,421.51,820.7,412.55Z"/><path class="a" d="M836.15,390.86c8.18-8.83,24.61,19.51,28.42,28.59l-4,1.91S827,400.74,836.15,390.86Z"/><path class="a" d="M864.59,418.46s-20.91-35.54-10.18-40.23c13.12-5.73,13.18,40.28,13.18,40.28Z"/><path class="a" d="M868.55,420.53s-2.08-45.06,8.87-42.83.37,31-6.91,44.87Z"/><path class="a" d="M870.55,420.57s23.77-37.53,32.58-28.35c10.82,11.27-29.66,32.41-29.66,32.41Z"/><path class="a" d="M874.49,423.65s33-13.91,39.11-5.21c10.7,15.22-39.17,8.21-39.17,8.21Z"/><path class="a" d="M871.43,426.59s48.05,5.44,41.63,18.84C907.84,456.33,873.35,430.63,871.43,426.59Z"/><path class="a" d="M872.39,428.61s34.4,29.7,26.24,37.54c-6.12,5.87-23.65-17.49-27.28-35.56Z"/><path class="a" d="M871.31,432.58s17.85,38.56,6.11,44.14c-4,1.92-10.74-13.22-8.11-44.18Z"/><path class="a" d="M868.31,432.52s-2.95,47-14.85,41.71c-5.33-2.35-2.59-20.06,11.85-41.77Z"/><path class="a" d="M865.31,432.46s-23.66,35.59-31.56,27.37c-8.82-9.18,28.62-30.43,28.62-30.43Z"/><path class="a" d="M860.41,427.36s-42.63.93-37.25,12.25c4.79,10.1,39.21-10.21,39.21-10.21Z"/><circle class="a" cx="867.45" cy="425.51" r="10"/><path class="b" d="M356.7,273.55C360,260,398.49,284.4,398.49,284.4s.94,3-.08,4C372.42,287.88,354.52,282.51,356.7,273.55Z"/><path class="b" d="M372.15,251.86c8.18-8.83,24.61,19.51,28.42,28.59l-4,1.91S363,261.74,372.15,251.86Z"/><path class="b" d="M400.59,279.46s-20.91-35.54-10.18-40.23c13.12-5.73,13.18,40.28,13.18,40.28Z"/><path class="b" d="M404.55,281.53s-2.08-45.06,8.87-42.83.37,31-6.91,44.87Z"/><path class="b" d="M406.55,281.57s23.77-37.53,32.58-28.35c10.82,11.27-29.66,32.41-29.66,32.41Z"/><path class="b" d="M410.49,284.65s33-13.91,39.11-5.21c10.7,15.22-39.17,8.21-39.17,8.21Z"/><path class="b" d="M407.43,287.59s48.05,5.44,41.63,18.84C443.84,317.33,409.35,291.63,407.43,287.59Z"/><path class="b" d="M408.39,289.61s34.4,29.7,26.24,37.54c-6.12,5.87-23.65-17.49-27.28-35.56Z"/><path class="b" d="M407.31,293.58s17.85,38.56,6.11,44.14c-4,1.92-10.74-13.22-8.11-44.18Z"/><path class="b" d="M404.31,293.52s-2.95,47-14.85,41.71c-5.33-2.35-2.59-20.06,11.85-41.77Z"/><path class="b" d="M401.31,293.46s-23.66,35.59-31.56,27.37c-8.82-9.18,28.62-30.43,28.62-30.43Z"/><path class="b" d="M396.41,288.36s-42.63.93-37.25,12.25c4.79,10.1,39.21-10.21,39.21-10.21Z"/><circle class="b" cx="403.45" cy="286.51" r="10"/><path class="c" d="M523.11,234.49c-5.28-12.89,40.19-15.76,40.19-15.76s2.54,1.89,2.29,3.29C544.24,236.85,526.6,243,523.11,234.49Z"/><path class="c" d="M522.87,207.86c1.43-12,31.37,1.34,39.79,6.44l-2.14,3.93S521.27,221.22,522.87,207.86Z"/><path class="c" d="M562.1,213.5S524.3,197,530.23,186.91c7.25-12.34,34.33,24.86,34.33,24.86Z"/><path class="c" d="M566.52,212.84s-28.15-35.24-18-39.87,18.51,24.88,20.75,40.37Z"/><path class="c" d="M568.16,211.7s-2.8-44.33,9.73-42.07c15.37,2.76-5,43.64-5,43.64Z"/><path class="c" d="M573.16,211.88s18.54-30.63,28.6-27.18c17.59,6-26.89,29.65-26.89,29.65Z"/><path class="c" d="M572.41,216.06s42.09-23.81,44.76-9.19C619.34,218.76,576.33,218.2,572.41,216.06Z"/><path class="c" d="M574.37,217.13s45.29,3.84,43.29,15c-1.51,8.35-29.41-.26-43-12.76Z"/><path class="c" d="M575.83,221s37.09,20.73,30.86,32.14c-2.14,3.93-16.45-4.4-32.5-31Z"/><path class="c" d="M573.37,222.7s25.18,39.73,12.47,42.48c-5.7,1.23-13.88-14.72-14.94-40.77Z"/><path class="c" d="M570.9,224.41s1.75,42.7-9.47,40.68c-12.53-2.25,5.3-41.43,5.3-41.43Z"/><path class="c" d="M563.94,223.16S530,248.94,541,255c9.81,5.36,25.75-31.29,25.75-31.29Z"/><circle class="c" cx="568.55" cy="217.52" r="10"/><path class="a" d="M603.28,175.66c3.27-13.54,41.82,10.75,41.82,10.75s.94,3-.07,4C619,189.94,601.12,184.62,603.28,175.66Z"/><path class="a" d="M618.68,153.93c8.16-8.85,24.65,19.45,28.49,28.52l-4,1.93S609.56,163.82,618.68,153.93Z"/><path class="a" d="M647.19,181.47s-21-35.5-10.28-40.21c13.11-5.77,13.28,40.24,13.28,40.24Z"/><path class="a" d="M651.15,183.52s-2.19-45,8.78-42.85.44,31-6.82,44.89Z"/><path class="a" d="M653.15,183.56s23.68-37.58,32.52-28.42c10.84,11.24-29.59,32.47-29.59,32.47Z"/><path class="a" d="M657.1,186.63s33-14,39.1-5.29c10.73,15.19-39.16,8.29-39.16,8.29Z"/><path class="a" d="M654,189.58s48.07,5.33,41.67,18.75C690.51,219.24,656,193.61,654,189.58Z"/><path class="a" d="M655,191.59s34.47,29.63,26.32,37.48c-6.1,5.9-23.69-17.43-27.36-35.49Z"/><path class="a" d="M653.93,195.57s17.94,38.52,6.21,44.12c-4,1.93-10.77-13.19-8.21-44.15Z"/><path class="a" d="M650.93,195.52s-2.84,47-14.75,41.74c-5.34-2.34-2.64-20,11.75-41.79Z"/><path class="a" d="M647.93,195.47s-23.58,35.64-31.5,27.43C607.6,213.74,645,192.41,645,192.41Z"/><path class="a" d="M643,190.38s-42.63,1-37.23,12.33c4.82,10.09,39.19-10.3,39.19-10.3Z"/><circle class="a" cx="650.06" cy="188.5" r="10"/><path class="b" d="M436.66,243.25c3.27-13.54,41.81,10.77,41.81,10.77s.94,3-.08,4C452.4,257.54,434.49,252.21,436.66,243.25Z"/><path class="b" d="M452.06,221.53c8.16-8.85,24.65,19.46,28.48,28.53l-4,1.93S442.94,231.42,452.06,221.53Z"/><path class="b" d="M480.56,249.08s-21-35.51-10.26-40.22c13.11-5.75,13.26,40.26,13.26,40.26Z"/><path class="b" d="M484.52,251.13s-2.17-45,8.79-42.84.43,31-6.83,44.88Z"/><path class="b" d="M486.52,251.17s23.7-37.57,32.53-28.4c10.84,11.24-29.6,32.46-29.6,32.46Z"/><path class="b" d="M490.46,254.24s33-14,39.11-5.28c10.72,15.2-39.16,8.28-39.16,8.28Z"/><path class="b" d="M487.41,257.19s48.06,5.35,41.66,18.77C523.87,286.86,489.34,261.22,487.41,257.19Z"/><path class="b" d="M488.37,259.21s34.46,29.64,26.32,37.49c-6.11,5.89-23.69-17.44-27.35-35.51Z"/><path class="b" d="M487.3,263.19s17.92,38.52,6.19,44.12c-4,1.92-10.76-13.2-8.19-44.16Z"/><path class="b" d="M484.3,263.13s-2.87,47-14.77,41.74c-5.34-2.34-2.63-20.05,11.77-41.79Z"/><path class="b" d="M481.3,263.08s-23.6,35.63-31.51,27.42C441,281.34,478.36,260,478.36,260Z"/><path class="b" d="M476.39,258s-42.63,1-37.23,12.31C444,280.39,478.36,260,478.36,260Z"/><circle class="b" cx="483.43" cy="256.11" r="10"/><path class="a" d="M303,278.84c-6-12.59,39.3-17.85,39.3-17.85s2.63,1.75,2.46,3.16C324.24,280.09,307,287.18,303,278.84Z"/><path class="a" d="M301.37,252.27c.8-12,31.4-.33,40.08,4.33l-1.93,4S300.48,265.69,301.37,252.27Z"/><path class="a" d="M340.85,255.82S302.23,241.35,307.62,231c6.59-12.71,35.59,23,35.59,23Z"/><path class="a" d="M345.22,254.94s-30-33.71-20-38.87S345,239.94,348,255.29Z"/><path class="a" d="M346.8,253.71s-5.13-44.12,7.5-42.53c15.5,1.95-2.67,43.85-2.67,43.85Z"/><path class="a" d="M351.8,253.63s16.91-31.57,27.13-28.66c17.89,5.11-25.29,31-25.29,31Z"/><path class="a" d="M351.27,257.84s40.78-26,44.22-11.54C398.28,258.06,355.31,259.77,351.27,257.84Z"/><path class="a" d="M353.29,258.8s45.43,1.45,44,12.67c-1.06,8.42-29.39,1.29-43.58-10.47Z"/><path class="a" d="M355,262.58s38.13,18.74,32.51,30.46c-1.93,4-16.66-3.52-34.09-29.24Z"/><path class="a" d="M352.58,264.42s27.24,38.35,14.7,41.76c-5.63,1.53-14.64-14-17.07-39.92Z"/><path class="a" d="M350.21,266.26s4,42.55-7.31,41.12c-12.63-1.59,3.1-41.65,3.1-41.65Z"/><path class="a" d="M343.2,265.37s-32.56,27.54-21.26,33C332,303.16,346,265.73,346,265.73Z"/><circle class="a" cx="347.5" cy="259.5" r="10"/><path class="c" d="M515.49,542.82C509,530.82,553,523.3,553,523.3s2.66,1.58,2.56,3C536.3,542.92,519.78,550.76,515.49,542.82Z"/><path class="c" d="M512.49,516.93c.15-11.79,30.67-2,39.4,2.13l-1.68,4S512.32,530.1,512.49,516.93Z"/><path class="c" d="M551.26,518.33s-38.51-12.11-33.79-22.55c5.77-12.77,36,20.61,36,20.61Z"/><path class="c" d="M555.49,517.23s-31.06-31.36-21.64-36.93,20.6,22.29,24.4,37.13Z"/><path class="c" d="M557,516s-7.34-42.85,5.08-42c15.25,1.09-.3,43-.3,43Z"/><path class="c" d="M561.85,515.61s14.86-31.75,25-29.44c17.75,4.05-23.08,31.66-23.08,31.66Z"/><path class="c" d="M561.55,519.75s38.48-27.56,42.61-13.6C607.51,517.49,565.59,521.43,561.55,519.75Z"/><path class="c" d="M563.57,520.59s44.48-1,43.69,10.07c-.59,8.28-28.65,2.8-43.15-7.95Z"/><path class="c" d="M565.4,524.19s38.25,16.31,33.37,28.06c-1.67,4-16.47-2.57-34.85-26.78Z"/><path class="c" d="M563.18,526.11s28.64,36,16.56,40c-5.42,1.79-15-12.87-18.78-38.12Z"/><path class="c" d="M561,528s6.14,41.38-5,40.58c-12.43-.89.85-40.87.85-40.87Z"/><path class="c" d="M554.05,527.54s-30.36,28.63-19,33.33c10.11,4.19,21.81-33.13,21.81-33.13Z"/><circle class="c" cx="557.95" cy="521.57" r="9.79"/><path class="b" d="M455.23,427.49c8.76-10.44,31.95,27.65,31.95,27.65s-.48,3.06-1.8,3.48C462.8,446.88,449.43,434.41,455.23,427.49Z"/><path class="b" d="M478.19,415.16c11-4.2,13.13,27.79,12.54,37.41l-4.38-.07S465.89,419.86,478.19,415.16Z"/><path class="b" d="M491.17,451.72s-2.92-40.26,8.52-39.72c14,.66-5.91,41.06-5.91,41.06Z"/><path class="b" d="M493.75,455.25s17.71-40.43,26.36-33.73S507,448.89,494.58,457.89Z"/><path class="b" d="M495.49,456.15s37.13-22.61,40.88-10.73C541,460,496.28,461,496.28,461Z"/><path class="b" d="M497.6,460.56s35,2.12,36.58,12.4c2.78,18-37.93-9.79-37.93-9.79Z"/><path class="b" d="M493.65,461.81s39.79,25.62,28.34,34.6C512.68,503.7,493.58,466.19,493.65,461.81Z"/><path class="b" d="M493.61,464s17.3,41,6.74,44.32c-7.92,2.5-13.17-25.6-8.51-43Z"/><path class="b" d="M490.94,467s-1.07,41.57-13.79,41.37c-4.38-.07-3.69-16.25,12.05-42.27Z"/><path class="b" d="M488.33,465.67s-23,39.91-31.12,30.15c-3.66-4.38,6.42-18.72,28.52-31.51Z"/><path class="b" d="M485.73,464.31s-36.21,21-39.57,10.32c-3.75-11.88,38.31-14.28,38.31-14.28Z"/><path class="b" d="M483.64,457.71s-37.8-17.68-38-5.42c-.17,10.95,38.83,8.06,38.83,8.06Z"/><circle class="b" cx="490.62" cy="459.14" r="9.79"/><path class="b" d="M680.8,211.16c4-11.12,34.3,12.88,34.3,12.88s.52,2.63-.43,3.37C692.79,224.64,678.17,218.52,680.8,211.16Z"/><path class="b" d="M695.77,194.24c7.69-6.73,19,18.64,21.43,26.64l-3.58,1.26S687.18,201.75,695.77,194.24Z"/><path class="b" d="M717.31,220.06s-14.48-31.86-5-34.86c11.58-3.66,7.54,35.16,7.54,35.16Z"/><path class="b" d="M720.46,222.15s2.26-38.2,11.31-35.34-2.46,26.2-9.83,37.24Z"/><path class="b" d="M722.15,222.36s23.39-29.54,30-21c8.13,10.47-27.91,24.7-27.91,24.7Z"/><path class="b" d="M725.2,225.31s29.08-8.79,33.46-.9c7.67,13.79-33.78,3.43-33.78,3.43Z"/><path class="b" d="M722.35,227.52s40.06,8.87,33.44,19.61C750.42,255.86,723.61,231.1,722.35,227.52Z"/><path class="b" d="M723,229.31s26.38,28.13,18.8,34c-5.69,4.42-18.4-16.86-19.85-32.43Z"/><path class="b" d="M721.71,232.57s11.63,34.12,1.22,37.78c-3.58,1.26-7.88-12.11-2.9-38Z"/><path class="b" d="M719.19,232.25s-6.68,39.35-16.25,33.87c-4.29-2.46-.4-17.16,13.72-34.19Z"/><path class="b" d="M716.66,231.93s-23.13,27.92-29.06,20.28c-6.62-8.53,26.86-23.12,26.86-23.12Z"/><path class="b" d="M713,227.19s-36-3-32.53,7c3.15,8.94,34-5.12,34-5.12Z"/><circle class="b" cx="719.09" cy="226.25" r="8.48"/><path class="c" d="M382.22,376.06c10.63-5.16,15.5,33.18,15.5,33.18s-1.47,2.25-2.66,2.11C381.35,394.07,375.18,379.47,382.22,376.06Z"/><path class="c" d="M404.75,374.43c10.2.57.56,26.63-3.32,34l-3.43-1.6S393.36,373.79,404.75,374.43Z"/><path class="c" d="M402.09,408s11.93-32.89,20.79-28.42c10.85,5.48-19.2,30.4-19.2,30.4Z"/><path class="c" d="M402.88,411.65s28.33-25.72,32.8-17.36S415.6,411.3,402.6,414Z"/><path class="c" d="M403.93,413s37.39-4.75,36.15,6c-1.52,13.16-37.22-1.88-37.22-1.88Z"/><path class="c" d="M404.05,417.22S431,431.28,428.6,440c-4.17,15.22-26.55-21.18-26.55-21.18Z"/><path class="c" d="M400.47,416.81s22.42,34.36,10.19,37.4C400.71,456.69,398.87,420.25,400.47,416.81Z"/><path class="c" d="M399.67,418.53s-.82,38.55-10.35,37.45c-7.16-.82-1.36-24.91,8.49-37.06Z"/><path class="c" d="M396.48,420s-15.55,32.52-25.55,27.86c-3.44-1.61,2.84-14.17,24.5-29.19Z"/><path class="c" d="M394.9,418s-32.29,23.45-35.29,12.84c-1.35-4.76,11.71-12.54,33.71-14.84Z"/><path class="c" d="M393.32,416s-36.06,3.78-35-5.83c1.24-10.73,35.37,2.26,35.37,2.26Z"/><path class="c" d="M394,410s-23.66-27.37-28.15-17.73c-4,8.59,27.87,20.12,27.87,20.12Z"/><circle class="c" cx="399.03" cy="413.62" r="8.48"/><path class="a" d="M283.54,371.56c1.17-13.58,42,4.25,42,4.25s1.36,2.78.52,3.88C300.88,383.07,282.77,380.55,283.54,371.56Z"/><path class="a" d="M295.24,348.27c6.59-9.77,26.72,15.19,31.77,23.4l-3.62,2.46S287.87,359.19,295.24,348.27Z"/><path class="a" d="M326.88,370.72S301.34,339.46,311,333.33c11.84-7.51,18.78,37,18.78,37Z"/><path class="a" d="M331,372.12s-8.75-43.26,2.18-42.75,5,29.94,0,44.43Z"/><path class="a" d="M333,371.86s17.38-39.85,27.28-32.28c12.15,9.28-23.85,35.78-23.85,35.78Z"/><path class="a" d="M337.23,374.26s29.84-18.39,37-10.89c12.62,13.13-36.66,13.8-36.66,13.8Z"/><path class="a" d="M334.71,377.56s47.29-1.92,43.08,12C374.37,400.89,337.17,381.18,334.71,377.56Z"/><path class="a" d="M335.94,379.37s37.72,23.59,31,32.39c-5,6.6-25.49-13.38-31.7-30.32Z"/><path class="a" d="M335.49,383.38s23,34.62,12.5,41.77c-3.62,2.46-12.36-11.18-14.44-41.51Z"/><path class="a" d="M332.58,383.77s4.16,45.85-8.13,42.56c-5.52-1.48-5.51-19,5.21-42.18Z"/><path class="a" d="M329.66,384.15s-17.57,38-26.43,31.19c-9.9-7.56,23.14-33.71,23.14-33.71Z"/><path class="a" d="M324.17,380s-41.1,7.27-34.21,17.42c6.15,9.05,36.41-15.74,36.41-15.74Z"/><circle class="a" cx="330.7" cy="377.1" r="9.79"/><path class="c" d="M230.8,324.91c9.24-10,30.64,29.1,30.64,29.1s-.63,3-2,3.39C237.47,344.62,224.69,331.55,230.8,324.91Z"/><path class="c" d="M254.31,313.66C265.5,310,266.13,342,265.1,351.61l-4.37-.27S241.8,317.78,254.31,313.66Z"/><path class="c" d="M265.58,350.78s-1.05-40.35,10.35-39.28c14,1.31-7.8,40.74-7.8,40.74Z"/><path class="c" d="M268,354.42s19.58-39.56,27.9-32.47-14.38,26.74-27.19,35.15Z"/><path class="c" d="M269.69,355.4s38.14-20.86,41.33-8.82c3.93,14.78-40.76,13.68-40.76,13.68Z"/><path class="c" d="M271.6,359.91s34.85,3.74,36,14.08c1.94,18.11-37.44-11.54-37.44-11.54Z"/><path class="c" d="M267.58,361s38.57,27.44,26.71,35.87C284.65,403.7,267.31,365.34,267.58,361Z"/><path class="c" d="M267.45,363.16s15.38,41.75,4.67,44.59c-8,2.13-12-26.19-6.5-43.39Z"/><path class="c" d="M264.64,366.05s-3,41.48-15.7,40.69c-4.37-.27-2.92-16.41,14-41.67Z"/><path class="c" d="M262.1,364.58s-24.79,38.8-32.49,28.67c-3.46-4.54,7.29-18.4,29.95-30.14Z"/><path class="c" d="M259.56,363.11s-37.14,19.25-40,8.47c-3.2-12.05,38.93-12.49,38.93-12.49Z"/><path class="c" d="M257.78,356.42s-36.94-19.42-37.71-7.18c-.68,10.92,38.42,9.85,38.42,9.85Z"/><circle class="c" cx="264.69" cy="358.16" r="9.79"/></svg>