<svg xmlns="http://www.w3.org/2000/svg" viewBox="0 0 1280 720"><defs><style>.st0{fill: #E5BFCE;}</style></defs><title>yuyuyu_bg</title><path class="st0" d="m538.93 621.94c-2.404-3.689-2.571-4.528-1.621-7.994 0.671-2.404 4.752-6.988 6.205-6.988 0.559 0 1.509 1.901 2.907 5.758 1.118 3.186 2.012 6.093 2.012 6.54 0 1.006-2.739 5.59-3.298 5.59-0.28 0-0.615-0.391-0.839-0.839-0.447-1.174-1.342-1.062-1.733 0.279-0.559 1.791-1.285 1.344-3.633-2.346z"/><path class="st0" d="m644.3 615.06c-0.28-0.056-2.627-0.615-5.143-1.174-2.571-0.503-4.64-1.23-4.64-1.565s1.006-1.23 2.236-2.012c1.23-0.783 2.236-1.565 2.236-1.789 0-0.279-0.95-0.447-2.068-0.447-3.41 0-6.373-0.671-6.149-1.342 0.615-1.509 9.615-13.864 10.621-14.59 0.839-0.559 2.683-0.839 5.702-0.839 4.025-0.056 8.553-0.391 18.168-1.398 4.863-0.503 4.975-0.224 2.516 6.54-4.528 12.187-7.882 17.162-12.298 18.28-2.18 0.56-9.727 0.783-11.181 0.336z"/><path class="st0" d="m583.32 612.77c-0.503-0.894-2.18-3.578-3.69-5.926-1.677-2.516-2.907-5.199-3.075-6.485-0.335-2.292 0.95-7.099 2.46-9.503 1.342-2.18 0.335-2.068-3.13 0.335-4.36 3.075-9.951 5.702-12.187 5.702-2.124 0-11.572-4.248-11.069-4.975 0.168-0.335 1.286-1.118 2.516-1.789 1.23-0.727 2.236-1.398 2.18-1.565 0-0.168-1.509-1.062-3.354-1.957l-3.41-1.565 0.391-1.509c0.95-4.193 6.261-8.832 11.907-10.454 3.075-0.894 7.938-0.894 13.528 0.056l1.957 0.335-1.398-1.006c-6.764-4.808-11.795-12.131-12.857-18.895-0.727-4.472-0.727-9.224 0.056-9.224 0.335 0 1.677 0.671 3.019 1.453 1.398 0.783 2.683 1.286 2.963 1.118 0.279-0.168 0.671-1.733 0.894-3.41 0.168-1.733 0.727-4.025 1.174-5.087l0.783-1.957 2.068 0.894c3.913 1.621 11.292 6.932 12.634 9.112 1.062 1.677 1.286 2.851 1.286 6.149-0.056 2.18 0 4.025 0.056 4.025s1.174-1.957 2.516-4.304c2.516-4.64 8.441-11.348 10.006-11.348 0.783 0 1.062 0.894 1.565 4.584 0.391 2.516 0.783 4.696 0.95 4.807 0.168 0.168 1.509-0.391 3.075-1.23 1.509-0.839 3.019-1.342 3.354-1.174 0.95 0.559 0.615 8.721-0.503 12.746-1.286 4.64-2.627 6.149-7.323 8.385l-3.634 1.733 5.311 0.335c6.037 0.391 7.547 1.062 10.062 4.193 1.845 2.292 6.149 10.733 6.149 11.963 0 0.503-0.615 0.615-2.236 0.335-1.23-0.224-2.236-0.224-2.236 0 0 0.168 0.615 1.286 1.398 2.404 2.292 3.354 2.124 3.466-5.031 3.466h-6.429l-2.795-2.012c-1.565-1.118-2.963-1.901-3.075-1.789-0.168 0.168 0 1.677 0.335 3.41 0.894 4.472 0.391 6.261-3.41 11.013-1.845 2.292-3.745 5.255-4.248 6.596-0.503 1.286-1.174 2.348-1.453 2.348-0.224 0-1.174-1.118-2.012-2.516-0.839-1.398-1.677-2.516-1.845-2.516s-0.783 1.174-1.342 2.683c-1.342 3.581-1.677 3.861-2.851 2.016z"/><path class="st0" d="m318.68 585.38c0-0.391 0.503-1.621 1.174-2.683l1.174-2.012-1.453-0.615c-0.783-0.391-1.453-0.839-1.453-1.062 0-0.783 4.584-4.584 6.485-5.367 2.012-0.839 6.764-1.062 7.938-0.279 0.559 0.335 0.224 1.006-1.286 2.851-1.118 1.342-2.683 3.745-3.466 5.255-0.783 1.565-1.509 2.963-1.621 3.075-0.056 0.112-1.789 0.503-3.801 0.894-3.021 0.558-3.691 0.502-3.691-0.057z"/><path class="st0" d="m813.41 570.28c-2.124-2.068-3.913-4.081-3.913-4.528s1.398-1.453 3.13-2.236l3.13-1.398-1.565-1.286c-0.894-0.727-1.398-1.509-1.174-1.789 0.28-0.224 2.404-0.391 4.752-0.391 3.242 0.056 4.975 0.391 7.044 1.398 4.528 2.124 8.833 7.435 7.659 9.336-0.503 0.783-11.795 4.584-13.696 4.584-1.007 0-2.572-1.118-5.367-3.69z"/><path class="st0" d="m693.39 566.54c-0.95-0.391-1.901-0.839-2.124-1.062-0.391-0.391 4.472-10.733 5.534-11.572 0.894-0.727 6.429-1.957 6.876-1.509 0.224 0.168 0.056 0.95-0.279 1.733l-0.671 1.398h3.969l-0.503 1.006c-0.279 0.503-0.727 1.957-0.894 3.186-0.559 3.019-1.621 4.528-4.137 5.814-2.852 1.453-5.647 1.844-7.771 1.006z"/><path class="st0" d="m671.53 564.64c-0.615-0.894-2.18-3.69-3.466-6.205-1.789-3.522-2.404-5.367-2.46-7.435-0.056-1.509-0.224-2.739-0.391-2.739-0.168 0-1.789 0.727-3.634 1.621-4.36 2.18-9.168 3.578-9.168 2.683 0-0.335 0.671-2.348 1.453-4.472 0.783-2.068 1.398-3.913 1.286-4.025s-1.565 0.112-3.186 0.391c-1.621 0.335-3.075 0.447-3.242 0.28-0.615-0.615 1.565-6.037 3.354-8.385 1.957-2.627 6.82-5.422 9.503-5.422 3.13 0 3.466-0.95 0.559-1.398-4.304-0.615-5.59-1.565-6.876-5.031-1.453-3.857-1.733-12.578-0.391-12.578 0.447 0 1.006 0.279 1.174 0.559 0.894 1.453 1.398 0.391 1.062-2.236-0.224-1.509-0.279-2.795-0.112-2.795 0.447 0 9.559 3.41 10.621 3.969 0.615 0.335 1.342 1.342 1.677 2.236 0.559 1.677 1.565 2.236 1.565 0.839 0-0.447 0.503-1.957 1.062-3.298 0.894-2.012 1.845-3.019 5.031-5.087 2.18-1.398 4.36-3.075 4.919-3.689 2.068-2.348 3.522-1.006 3.522 3.298v1.957l1.845-1.789c2.404-2.292 3.075-2.236 3.522 0.335 0.168 1.118 0.671 3.522 1.118 5.311s0.671 3.801 0.447 4.472-1.733 2.627-3.354 4.304l-3.019 3.186 7.435-0.28 7.379-0.224 1.957 1.342c1.733 1.174 6.149 6.708 6.149 7.714 0 0.224-1.23 0.28-2.795 0.112-1.509-0.112-2.795-0.056-2.795 0.168s0.894 1.398 1.957 2.683c1.062 1.23 1.957 2.516 1.957 2.739 0 0.28-1.901 1.398-4.193 2.516-2.963 1.398-4.975 1.957-6.652 1.957-2.739-0.056-7.044-1.398-9.615-2.963-2.739-1.677-2.963-1.286-1.453 2.46 2.124 4.975 2.068 10.789-0.112 16.77-0.839 2.348-1.789 4.416-2.012 4.584-0.224 0.168-1.062-0.727-1.901-1.957-0.783-1.23-1.733-2.236-2.012-2.236s-0.95 0.839-1.453 1.845c-0.95 1.901-4.081 5.422-4.752 5.422-0.223 0-0.894-0.67-1.51-1.509z"/><path class="st0" d="m745.43 561.9c-3.745-1.342-6.708-4.248-7.435-7.267-0.391-1.453-1.174-3.578-1.789-4.808-0.615-1.174-0.95-2.404-0.783-2.683 0.168-0.279 1.453-0.391 2.795-0.168 2.795 0.335 3.075 0 1.342-1.845-0.671-0.671-1.062-1.509-0.839-1.789 0.168-0.28 2.292-0.559 4.752-0.559l4.416-0.112 1.677 1.398c0.95 0.783 2.46 2.795 3.41 4.472s3.019 4.472 4.584 6.205c1.509 1.677 2.739 3.522 2.627 4.025-0.502 2.74-10.229 4.808-14.757 3.131z"/><path class="st0" d="m541.67 559.94c-2.683-2.907-4.416-7.435-4.416-11.46 0-3.745 1.23-6.932 2.627-6.932 2.739 0.056 11.013 4.975 12.187 7.323 0.95 1.845 1.118 9.168 0.28 11.404l-0.559 1.509-3.019-1.733c-1.677-0.894-3.186-1.509-3.354-1.342-0.168 0.224-0.335 1.062-0.335 1.957-1e-3 2.181-0.895 1.958-3.411-0.726z"/><path class="st0" d="m382.8 560.16c-0.224-0.168-0.391-1.565-0.391-3.075 0-4.975 2.683-9.391 7.603-12.522 4.193-2.683 4.696-2.571 4.696 1.23v3.13l1.286-0.335c0.671-0.224 3.075-0.503 5.311-0.727 4.584-0.391 4.64-0.279 2.851 3.354-1.453 2.851-3.578 5.255-5.814 6.373-3.915 2.069-14.368 3.802-15.542 2.572z"/><path class="st0" d="m493.31 557.03c-4.696-1.565-6.652-3.13-9.783-7.826-1.677-2.516-5.087-7.379-7.659-10.845-2.571-3.466-4.528-6.541-4.304-6.876 0.783-1.286 6.596-2.348 11.683-2.124l5.087 0.224 3.634 1.901c4.249 2.292 9.391 7.211 12.746 12.242 2.963 4.472 2.963 5.087 0.112 5.087-1.23 0-2.236 0.168-2.236 0.335 0 0.224 1.174 1.957 2.571 3.969 1.398 1.957 2.46 3.69 2.348 3.801s-2.851 0.391-6.037 0.559c-4.137 0.168-6.541 0.056-8.162-0.447z"/><path class="st0" d="m425 551.22c-0.615-0.839-2.068-3.466-3.242-5.758l-2.18-4.193 0.056-4.472c0.056-4.696 1.23-8.665 2.571-8.665 0.391 0.056 1.733 1.342 2.963 2.907s4.304 4.584 6.82 6.708l4.64 3.857-0.168 5.534c-0.056 3.075-0.28 5.59-0.503 5.59-0.224 0-1.733-1.006-3.354-2.236s-3.186-2.18-3.522-2.068c-0.28 0.112-0.95 1.006-1.509 2.012-1.286 2.517-1.286 2.572-2.572 0.784z"/><path class="st0" d="m821.79 550.05c0-1.565-0.559-1.845-1.901-0.95-2.292 1.621-3.13 1.118-3.13-1.901 0-4.975 0.503-6.149 3.298-7.938 3.466-2.18 6.596-3.13 7.435-2.292 0.391 0.391 0.671 2.292 0.671 4.249 0 3.857-0.727 5.478-3.801 8.273-2.013 1.844-2.572 1.956-2.572 0.559z"/><path class="st0" d="m522.55 538.2c-3.186-1.342-5.422-2.739-5.422-3.466 0-1.006 3.019-4.416 4.696-5.311s8.385-1.286 9.112-0.503c0.168 0.168-0.112 0.839-0.671 1.398l-0.95 1.118 1.398 0.391c2.795 0.671 3.019 1.733 0.894 3.913-2.012 2.068-4.416 3.578-5.646 3.522-0.393 1e-3 -1.902-0.502-3.411-1.062z"/><path class="st0" d="m609.53 536.24 0.391-2.516h-1.398c-0.727 0-1.509 0.279-1.677 0.559-0.671 1.118-1.342-0.056-0.839-1.565 0.279-0.839 0.615-2.683 0.839-4.137 0.447-3.578 1.845-5.087 5.982-6.541 1.957-0.727 5.199-2.292 7.267-3.522 2.124-1.23 4.193-2.124 4.64-1.901 1.342 0.503 2.012 3.019 2.068 7.379 0 4.36-0.391 5.422-3.298 9-1.957 2.46-4.36 3.466-10.062 4.36-1.342 0.224-2.516 0.615-2.739 0.894-0.168 0.28-0.559 0.503-0.894 0.503-0.392 3e-3 -0.504-0.892-0.28-2.513z"/><path class="st0" d="m346.46 534.28c-3.019-2.068-3.298-2.963-1.006-3.913 4.304-1.789 8.721-0.056 8.721 3.41v1.901l-2.516 0.168c-2.069 0.111-3.019-0.168-5.199-1.566z"/><path class="st0" d="m448.7 534.84c-2.571-1.286-3.578-2.571-5.199-6.708-1.789-4.528-1.677-5.478 0.671-5.926 3.242-0.559 5.758 0.224 8.441 2.683 1.342 1.23 2.46 2.571 2.46 2.963 0 0.839-1.23 1.398-2.907 1.398-0.839 0-1.006 0.224-0.727 1.006 0.224 0.503 0.727 2.012 1.174 3.354l0.727 2.348h-1.23c-0.727 0-2.236-0.503-3.41-1.118z"/><path class="st0" d="m919.28 530.93c-1.789-0.894-4.807-3.13-6.708-4.975-3.242-3.13-10.621-12.187-11.18-13.752-0.391-1.006 3.298-1.789 12.075-2.627l6.988-0.615 3.522 1.565c2.18 0.95 4.248 2.404 5.367 3.745 1.957 2.236 4.472 7.994 3.913 8.888-0.168 0.279-1.398 0.503-2.739 0.503-1.342 0-2.627 0.279-2.795 0.559-0.224 0.335 0.447 1.509 1.398 2.571 0.95 1.118 1.621 2.292 1.565 2.627-0.335 0.95-4.919 3.186-6.652 3.186-0.785 2e-3 -2.909-0.724-4.754-1.675z"/><path class="st0" d="m389.17 529.25c-0.839-0.447 1.733-4.248 5.926-8.832l3.242-3.578 3.522-0.783c1.957-0.447 3.745-0.671 4.025-0.503s0.335 1.509 0.168 2.963l-0.28 2.627 2.627-0.168 2.571-0.224-1.118 2.236c-1.565 3.075-3.801 4.472-8.273 5.422-4.584 0.896-11.572 1.399-12.41 0.84z"/><path class="st0" d="m721.67 522.93c-3.745-3.634-6.652-7.714-6.652-9.447 0-2.124 2.851-10.006 3.745-10.342 0.447-0.168 1.677 0.503 2.907 1.733 1.118 1.118 2.236 2.012 2.404 2.012s0.503-0.615 0.671-1.398c0.559-2.292 1.677-1.621 3.578 2.18 1.453 2.963 1.789 4.249 1.789 7.323 0 2.292-0.335 4.36-0.894 5.478-1.118 2.236-3.522 5.422-4.025 5.422-0.225 2e-3 -1.79-1.34-3.523-2.961z"/><path class="st0" d="m458.15 522.04c-0.168-0.335-0.671-1.565-1.118-2.795l-0.783-2.292 0.783-2.571c1.23-4.137 3.69-6.093 4.472-3.578 0.447 1.453 0.95 1.398 3.634-0.28 3.019-1.901 3.913-1.845 3.913 0.447 0 3.298-2.18 6.596-6.037 9.224-3.746 2.46-4.305 2.683-4.864 1.845z"/><path class="st0" d="m583.65 518.07c0-2.795-0.224-3.913-0.727-3.913-0.391 0-2.068 1.398-3.745 3.075s-3.186 3.075-3.41 3.075-0.559-1.677-0.783-3.745c-0.168-2.124-1.118-6.037-2.068-8.832-1.789-5.534-1.789-7.603 0.056-11.516l1.062-2.18h-1.006c-0.559 0-1.23 0.28-1.453 0.615-1.118 1.845-8.162-0.95-14.255-5.758-1.118-0.839-2.18-1.565-2.348-1.565-0.224 0-0.168 2.068 0 4.64 0.168 2.683 0.056 5.87-0.335 7.659-0.894 4.416-2.963 11.18-3.354 11.18-0.168 0-1.174-1.286-2.236-2.795-1.062-1.565-2.236-2.795-2.627-2.795-0.447 0-0.783 1.398-1.062 4.36-0.447 5.478-0.727 6.82-1.453 6.82-0.335 0-3.019-1.733-5.981-3.801-2.963-2.124-7.603-5.255-10.286-7.044-5.255-3.41-6.149-4.472-5.646-6.373 0.559-2.18-0.783-1.286-2.627 1.677-4.081 6.596-7.1 9.28-11.795 10.398-5.143 1.286-11.963 4.249-16.323 7.155-2.46 1.677-4.584 3.019-4.752 3.019-0.28 0 0.391-13.864 0.783-15.205 0.503-1.733-1.23-1.118-4.64 1.677-1.789 1.509-4.025 3.242-5.031 3.913l-1.733 1.23 0.224-4.304c0.783-12.634 2.963-21.802 6.373-27.168 1.453-2.292 2.348-3.019 5.87-4.584 2.292-1.062 4.193-2.012 4.193-2.124s-2.068-0.168-4.584-0.168c-3.801 0.056-5.087-0.168-7.044-1.23-3.522-1.901-6.373-4.64-10.845-10.621l-3.969-5.311 1.006-0.783c0.615-0.391 2.236-0.727 3.745-0.727 1.453 0 2.683-0.224 2.683-0.503s-1.509-1.845-3.41-3.41c-2.012-1.789-3.13-3.186-2.851-3.466s1.733-0.839 3.242-1.286c1.509-0.391 4.584-1.398 6.764-2.18 4.752-1.733 10.901-1.957 14.758-0.615 1.342 0.503 4.193 2.068 6.317 3.522 5.702 3.857 5.422 3.745 4.528 1.565-0.447-1.062-1.342-4.36-2.012-7.379-1.789-8.273-1.23-10.118 5.59-19.23 2.18-2.907 3.969-5.534 3.969-5.814 0-0.224-0.559-0.335-1.23-0.112-5.59 1.509-9.727 0.783-18.727-3.466-3.745-1.733-6.876-3.354-6.876-3.522 0-0.224 1.621-1.733 3.634-3.354 2.012-1.677 3.634-3.186 3.634-3.354 0-0.224-1.565-0.671-3.41-1.006-1.901-0.335-3.578-0.727-3.745-0.894-0.503-0.503 1.174-2.012 5.702-4.975 10.509-6.932 14.031-7.826 23.702-6.205 3.13 0.503 5.982 0.839 6.317 0.727 0.279-0.112-1.845-1.398-4.752-2.907-7.379-3.69-11.124-7.379-14.59-14.255l-2.627-5.255 4.808 0.391c2.627 0.168 4.808 0.224 4.808 0.112 0-0.168-1.006-2.18-2.292-4.472-2.516-4.752-2.571-6.261-0.056-5.702 0.839 0.168 4.64 0.95 8.497 1.677s7.659 1.621 8.553 1.957c1.789 0.727 4.137 4.193 6.317 9.559 0.894 2.18 1.845 3.857 2.124 3.745 0.335-0.112 0.839-1.398 1.174-2.963 0.671-2.907 2.292-6.261 4.249-8.665 0.95-1.174 1.062-1.733 0.559-2.627-0.95-1.845-1.342-6.876-0.894-12.634 0.447-6.205 0.559-6.261 5.143-3.689 1.621 0.95 3.13 1.677 3.298 1.677 0.894 0-0.615-4.472-2.292-6.988-1.845-2.683-4.025-4.584-4.584-4.025-0.112 0.168-0.615 1.957-1.118 4.025l-0.839 3.689-3.019 3.298c-2.404 2.571-4.416 3.969-9.168 6.373-3.298 1.733-6.485 3.13-6.932 3.13-0.671 0-0.894-0.615-0.894-2.627 0-3.745-0.559-4.472-2.46-3.242l-1.453 0.95-0.391-1.006c-0.28-0.615-0.447-2.963-0.391-5.255 0-3.41 0.28-4.752 1.509-7.1 0.839-1.621 1.509-3.075 1.509-3.242s-1.509-0.28-3.298-0.28h-3.298l0.28 1.006c0.168 0.783-0.559 1.733-2.627 3.466l-2.907 2.404 1.901 1.006c1.006 0.559 2.292 1.006 2.851 1.062 1.565 0 1.118 0.894-1.957 3.578-4.472 3.913-8.665 5.926-12.298 5.926-3.41 0-7.938-1.398-12.019-3.634-2.795-1.565-2.683-1.398 2.292 2.627 1.174 0.95 3.13 3.242 4.304 5.087 3.186 4.975 3.019 7.379-1.733 19.342-0.615 1.621-1.062 3.075-0.894 3.242 0.112 0.112 1.398-0.168 2.795-0.615 1.453-0.503 3.745-0.894 5.143-0.894h2.516l-0.391 1.286c-0.224 0.671-0.503 1.565-0.615 1.957-0.224 0.447 0.391 0.671 2.068 0.671h2.348l-0.391 1.845c-0.447 2.124-2.124 5.87-3.242 7.211-1.453 1.845-6.708 3.801-11.18 4.137l-4.304 0.391v-1.901c0-2.795 1.565-8.888 2.795-11.013 1.23-2.012 1.006-2.963-1.006-4.808-1.453-1.286-2.18-0.839-2.683 1.677-0.224 1.118-0.671 2.124-1.062 2.236-0.839 0.335-6.093-2.683-8.273-4.696-2.348-2.18-3.745-5.311-3.745-8.218 0-3.242-0.839-3.186-3.466 0.28-2.236 2.963-6.093 5.199-11.124 6.485-1.957 0.503-3.857 1.174-4.193 1.509-0.783 0.783-2.683 6.485-2.348 6.876 0.168 0.112 1.901-0.28 3.857-0.894 3.857-1.174 5.534-1.398 5.534-0.671 0 1.062-3.298 10.118-4.64 12.746-2.404 4.696-7.1 8.106-12.242 8.888-3.634 0.559-4.584 1.789-1.733 2.236 4.584 0.783 5.59 1.006 8.553 2.348 4.584 2.012 7.714 5.646 10.509 12.242 2.46 5.87 3.801 10.118 3.354 10.565-0.112 0.168-1.789-0.391-3.689-1.23-1.901-0.783-3.578-1.342-3.745-1.174-0.168 0.168 0.503 2.068 1.453 4.304 1.006 2.18 1.677 4.081 1.565 4.193s-3.354 0.503-7.211 0.783c-7.826 0.615-12.522 0.28-14.702-1.174-2.18-1.453-2.571-1.23-2.012 1.174 0.727 3.13 0.615 7.323-0.335 10.901-0.783 3.13-5.646 13.584-6.485 14.143-0.224 0.112-1.23-1.509-2.236-3.69-1.006-2.124-2.18-3.913-2.627-3.913-0.727 0-4.696 7.826-5.422 10.789-0.559 2.18-1.398 1.845-3.41-1.174-6.708-10.174-8.218-14.311-8.162-22.305 0.112-7.267-0.839-7.882-1.845-1.286-0.224 1.398-0.839 3.689-1.398 5.087-2.571 6.932-6.652 9.28-19.566 11.404-4.752 0.783-8.832 1.174-9.056 0.95s-0.224-3.578 0.112-7.379c0.28-3.801 0.391-7.044 0.28-7.211-0.559-0.503-3.242 1.398-6.54 4.64l-3.41 3.41 0.28-10.342c0.224-8.05 0.503-10.789 1.174-12.131 1.509-2.851 17.385-13.975 24.094-16.826 2.068-0.894 3.578-1.789 3.242-2.012-0.28-0.168-3.857-0.671-7.826-1.118-12.131-1.342-13.864-2.795-18.839-15.317-1.453-3.634-3.186-7.603-3.969-8.888-0.727-1.286-1.174-2.46-0.894-2.627 0.224-0.112 2.795 0.391 5.702 1.118 2.851 0.727 5.422 1.286 5.702 1.23 0.559-0.224-2.627-6.596-5.031-10.174-2.124-3.13-2.236-3.969-0.503-3.466 7.155 2.124 9.503 2.236 21.131 1.118 3.075-0.28 4.025-0.168 6.037 0.839 3.298 1.677 6.82 5.087 9.95 9.503 3.186 4.528 2.907 4.193 3.242 3.857 0.168-0.112-0.112-2.348-0.559-4.975-1.118-6.205-1.062-11.628 0.112-14.59 1.118-2.907 5.087-8.721 8.497-12.354 3.298-3.522 4.304-3.354 6.485 1.118 1.565 3.242 2.516 4.36 2.516 2.907 0-1.286 2.404-6.093 3.075-6.093 1.565 0 6.876 8.832 8.944 14.926 0.28 0.783 8.665-7.323 8.665-8.385 0-1.006-1.174-1.509-3.578-1.509-1.006 0-1.957-0.168-2.18-0.335-0.615-0.615 1.398-3.075 5.702-6.764 2.348-2.068 4.36-3.913 4.416-4.193 0.447-1.006-1.845-0.335-5.814 1.789-3.522 1.845-4.752 2.236-7.379 2.236-5.255-0.056-10.118-2.236-16.603-7.491l-1.677-1.398 2.012-0.839c1.062-0.447 2.292-1.23 2.683-1.677 0.615-0.727 0.559-0.95-0.28-1.23-3.13-1.006-4.137-1.565-3.969-2.124 0.335-1.118 9.895-6.373 12.242-6.764l2.292-0.391-1.062-0.615c-4.64-2.516-7.826-7.211-9.503-13.975-0.447-1.901-1.006-3.913-1.118-4.416-0.447-1.565 3.019-1.286 5.534 0.447 1.174 0.783 2.236 1.342 2.404 1.23 0.112-0.112-0.168-2.46-0.671-5.143-0.447-2.739-0.727-5.031-0.559-5.199 0.391-0.447 10.454 1.398 13.249 2.348 3.801 1.342 6.373 3.41 11.236 9.056 2.516 2.851 4.752 5.199 4.975 5.199 0.28 0 0.503-1.677 0.503-3.745 0-6.876 2.236-12.634 6.261-16.1 3.298-2.795 10.454-7.547 11.404-7.547 0.559 0 0.783 0.839 0.783 3.354 0 1.845 0.112 3.354 0.28 3.354 1.398 0 6.429-5.367 6.429-6.82 0-0.894-1.957-0.447-2.683 0.671-0.894 1.453-2.012 1.398-2.851-0.112-0.335-0.727-1.118-2.012-1.733-2.963-2.795-4.193-3.522-6.485-3.242-10.286 0.168-2.012 0.727-4.64 1.23-5.814 0.503-1.118 1.286-2.963 1.789-4.137l0.839-2.012-1.565-1.286c-2.292-1.901-2.963-1.677-2.963 0.894 0 1.23-0.224 2.236-0.503 2.236s-2.404-1.174-4.808-2.627c-5.311-3.186-7.267-5.87-7.826-10.957l-0.447-3.466-1.286 2.739c-2.012 4.193-4.919 7.379-7.603 8.385-2.627 0.95-16.1 1.509-16.1 0.727 0-0.28 0.447-1.174 1.006-1.957 2.18-3.13 2.18-3.075-1.23-2.795-1.957 0.168-3.13 0.056-3.13-0.335 0-0.28 0.615-2.571 1.398-5.087 1.789-5.981 3.578-8.218 8.218-10.454 2.068-1.006 3.745-2.012 3.745-2.236 0.056-0.28-1.23-0.447-2.739-0.447-3.857 0-6.429-1.453-10.677-6.037-3.298-3.578-7.435-10.565-8.609-14.59l-0.391-1.286 2.963 0.335c1.677 0.224 3.689 0.503 4.528 0.671l1.509 0.28-1.118-2.907c-1.118-2.907-1.733-10.062-0.95-10.845 1.006-1.006 15.541 2.627 19.621 4.919 1.342 0.783 2.683 2.18 3.578 3.913l1.509 2.683 0.95-4.64c0.95-4.584 3.186-11.124 4.528-13.305 1.398-2.236 2.571-1.342 5.031 3.913 1.286 2.795 2.516 5.031 2.739 5.031 0.168 0 1.286-1.398 2.46-3.075 1.118-1.677 2.46-3.075 2.851-3.075 1.006 0 4.36 6.708 5.255 10.565 1.453 6.261-0.559 11.795-6.652 18.168l-3.689 3.857 6.205-4.249c7.77-5.255 8.721-5.478 13.249-3.242 1.901 0.95 4.249 2.236 5.143 2.795 1.565 1.006 4.752 1.062 4.752 0.112 0-0.168-2.012-1.789-4.472-3.578-2.46-1.845-4.472-3.466-4.472-3.745 0-0.615 4.64-2.516 10.398-4.249 3.913-1.174 6.485-1.565 12.242-1.733l7.267-0.28 5.982 2.012c6.093 2.068 7.714 2.348 7.714 1.565 0-0.28-1.006-3.13-2.236-6.373-2.46-6.54-3.522-12.41-3.019-16.491 0.391-2.851 6.596-15.149 7.938-15.652 0.391-0.168 2.851 1.509 5.534 3.689 2.851 2.292 5.087 3.745 5.422 3.41 0.28-0.28 0.224-2.068-0.056-4.304-0.559-3.801-0.335-4.584 1.286-4.64 0.335 0 3.13 2.124 6.205 4.696l5.59 4.64 3.857-4.808c4.696-5.814 5.87-6.205 7.211-2.627 1.118 2.907 1.677 3.186 2.18 1.174s2.236-1.789 3.578 0.447c1.957 3.186 4.584 9.783 5.199 12.913 0.727 3.913 0.112 5.367-3.857 9.503-2.012 2.012-2.739 3.13-2.068 2.907 3.634-1.006 7.938-2.012 8.832-2.012 0.559 0 2.683-1.677 4.752-3.69 4.975-4.863 11.013-7.882 17.497-8.832l4.696-0.671-2.795-1.565c-5.255-3.019-7.267-4.416-10.509-7.547-4.64-4.416-5.255-5.59-5.982-12.242-0.727-6.093-0.447-10.51 0.839-12.913 1.342-2.627 11.795-12.354 13.249-12.354 0.224 0 0.447 1.174 0.447 2.627v2.627l2.404-2.348c1.286-1.286 2.683-2.348 2.963-2.348 0.335 0 1.174 2.18 1.901 4.863 2.18 8.609 3.354 11.404 6.708 16.435 1.789 2.683 3.69 6.037 4.193 7.491 1.565 4.081 2.124 3.41 3.019-3.69 1.062-7.938 1.677-8.609 12.578-13.025 5.982-2.404 7.323-2.571 6.82-0.727-0.224 0.671-0.503 2.404-0.727 3.913l-0.335 2.627 2.068-0.839c1.118-0.447 2.851-1.342 3.801-1.957 1.006-0.615 2.292-1.118 2.851-1.118h1.006l-0.447 3.242c-0.224 1.733-0.391 6.429-0.335 10.398l0.168 7.267-2.236 3.466c-1.286 1.901-2.795 3.913-3.354 4.416-1.733 1.565-1.342 2.012 0.783 1.006l1.901-0.894 2.404 1.23 2.348 1.23 2.292-2.683c4.752-5.646 7.435-8.162 8.273-7.826 0.447 0.168 1.006 1.398 1.23 2.739l0.391 2.404 1.062-1.398c3.186-4.193 3.522-4.528 4.64-4.36 0.839 0.112 1.845 1.957 4.36 7.938 3.522 8.329 3.801 9.671 2.404 11.851-0.503 0.727-0.783 1.509-0.615 1.677 0.112 0.168 1.789-0.503 3.634-1.453 4.248-2.236 8.665-2.739 12.969-1.453 1.677 0.503 5.646 1.118 8.832 1.286 3.13 0.168 5.702 0.391 5.702 0.503 0 0.056-1.398 2.18-3.186 4.752l-3.13 4.584 4.807-0.28c2.683-0.112 4.863-0.168 4.863-0.112s-0.95 1.621-2.124 3.41-3.242 5.255-4.64 7.659c-3.242 5.758-4.584 6.429-12.913 6.485-3.298 0-6.149 0.224-6.317 0.559-0.168 0.28 0.783 1.174 2.068 2.012 3.969 2.46 9.112 6.82 10.174 8.609 1.006 1.733 3.913 15.038 3.41 15.541-0.112 0.168-1.733-0.391-3.578-1.23-4.416-1.957-4.752-1.901-4.36 0.671 0.168 1.118 0.503 3.689 0.727 5.646l0.391 3.522 2.012-0.335c5.311-0.783 9.559-1.006 9.559-0.447 0 0.28-1.174 3.13-2.627 6.205-1.398 3.13-2.404 5.814-2.236 6.037 0.503 0.447 7.603-1.286 8.553-2.124 0.447-0.335 0.783-1.621 0.783-2.795v-2.18h2.124c1.174 0 3.41 0.391 4.975 0.839 4.416 1.286 8.106 6.205 6.317 8.385-0.559 0.671-0.559 1.006 0 1.677 0.95 1.174 0.335 1.677-1.901 1.509-1.509-0.168-1.901 0.056-2.18 0.95-0.168 0.671-0.727 1.174-1.342 1.174-1.453 0-6.876-2.627-6.876-3.354 0-1.733-1.006 0-2.46 4.081-3.186 9.112-6.708 14.702-13.472 21.354-2.46 2.516-5.311 4.863-6.317 5.255-2.236 0.95-2.236 1.342 0.056 2.795 2.795 1.733 5.311 4.584 6.205 7.099 1.398 3.969 2.236 10.342 1.789 13.808l-0.447 3.242-3.13-1.733c-1.677-0.894-3.298-1.677-3.578-1.677-0.224 0-0.447 2.404-0.447 5.311v5.311h-0.95c-1.453-0.056-10.51-3.913-14.926-6.373-4.36-2.404-6.485-5.255-7.938-10.509-0.503-1.789-1.118-3.242-1.398-3.242-0.224 0-0.95 0.839-1.565 1.901-1.565 2.46-4.975 5.534-7.994 7.155l-2.404 1.286h-13.92l-0.447 2.348c-0.559 3.522-2.46 6.764-5.758 9.895l-3.019 2.851h4.025c5.59 0.056 8.162 1.342 14.031 7.155l4.808 4.752-4.081 1.621c-2.18 0.894-4.025 1.901-4.025 2.18s1.677 0.727 3.801 1.006c2.068 0.224 3.745 0.615 3.745 0.839-0.056 0.559-6.373 4.975-9.783 6.764-5.143 2.683-10.454 2.236-16.547-1.453-1.733-1.062-3.466-1.901-3.801-1.901s0.391 1.509 1.565 3.354c2.795 4.304 3.13 6.261 1.789 10.118-1.398 3.969-4.528 10.565-5.031 10.565-0.224 0-1.23-1.174-2.18-2.571-2.292-3.242-3.354-3.075-4.64 0.839-0.615 1.677-1.118 3.13-1.23 3.242s-2.012-1.509-4.249-3.578c-4.416-4.081-6.485-7.1-7.044-10.342-0.224-1.174-0.503-2.124-0.671-2.124s-1.286 0.783-2.46 1.733l-2.18 1.733 1.901 2.18c3.186 3.522 5.59 9.112 7.826 18.503l0.335 1.509-4.025-1.398c-2.236-0.727-4.416-1.23-4.807-1.062-0.615 0.224-0.727 1.286-0.391 5.422l0.391 5.087-1.006-0.447c-0.615-0.224-1.957-0.671-3.019-0.95-1.062-0.335-3.466-1.342-5.255-2.236l-3.298-1.677-0.894 1.118c-0.559 0.783-1.677 1.23-3.13 1.342l-2.236 0.168-0.168 2.124c-0.168 1.733-0.391 2.068-1.509 2.068-0.727 0-3.466 0.503-6.093 1.118l-4.752 1.174-2.683-0.671c-2.124-0.559-3.522-1.509-6.708-4.584-2.236-2.18-4.248-3.801-4.416-3.578-0.168 0.168 0.112 2.18 0.615 4.416 1.062 4.752 0.783 9.056-0.95 12.466-0.615 1.23-2.851 4.025-5.031 6.205l-3.857 3.969 5.478 0.335c3.019 0.224 6.876 0.727 8.553 1.23 1.677 0.447 4.64 0.839 6.596 0.839 1.901 0 3.466 0.168 3.466 0.447 0 0.224-1.509 2.683-3.354 5.422-1.845 2.795-3.354 5.199-3.354 5.478 0 0.224 2.124 0.391 4.752 0.391s4.752 0.168 4.752 0.447c0 0.224-2.404 3.578-5.311 7.491-7.099 9.447-10.957 12.187-17.05 12.187-3.019 0-6.149 0.559-6.149 1.062 0 0.335 1.677 1.398 6.708 4.081 1.677 0.894 4.249 2.795 5.646 4.193l2.627 2.516 2.012-0.671c1.118-0.335 2.124-0.839 2.292-1.118s-1.062-1.453-2.795-2.571c-1.677-1.118-3.075-2.236-3.075-2.404s2.236-1.565 4.919-3.13l4.863-2.739 3.69-0.224c3.075-0.168 4.081 0 6.541 1.23 3.857 1.957 4.472 1.845 2.683-0.503-2.068-2.739-3.13-5.422-3.13-8.106 0-2.571 2.068-9.224 4.36-14.031l1.509-3.186-2.124-2.404c-1.174-1.342-3.13-4.193-4.36-6.317-1.789-3.13-2.124-4.025-1.509-4.584 1.342-1.286 6.764-2.46 11.404-2.46h4.584l1.789 1.453c1.733 1.509 4.528 6.485 5.255 9.336 0.391 1.621 0.335 1.677-3.13 1.509-2.46-0.112-2.627 0.335-0.894 2.516 0.671 0.894 1.286 2.012 1.286 2.571 0.056 0.503 0.894 1.901 1.901 3.019 2.124 2.46 3.801 5.87 4.249 8.832l0.335 2.124 1.957-2.404c3.019-3.634 6.205-5.199 13.305-6.54 3.41-0.671 7.044-1.174 8.106-1.174h1.845l-0.335 2.683c-0.224 1.453-0.559 3.466-0.727 4.472-0.335 2.124 0.112 2.236 3.186 0.671 2.348-1.174 5.031-1.509 5.031-0.559 0 1.509-2.404 11.124-3.298 13.137-1.286 2.851-3.857 5.087-6.932 5.926-4.696 1.286-5.087 1.398-5.311 2.068-0.112 0.391 0.168 0.671 0.671 0.671 2.012 0 7.379 2.571 9.503 4.528 1.286 1.174 2.963 3.578 3.801 5.367 0.783 1.789 2.404 5.255 3.578 7.714 1.174 2.46 2.124 4.696 2.124 4.975 0.056 0.615-4.808 2.012-7.044 2.012-3.242 0-2.46 1.621 1.957 3.913 2.348 1.286 2.627 2.124 0.839 2.46-6.485 1.342-12.242 2.124-13.472 1.789-1.733-0.391-8.385-5.87-12.242-9.951-2.963-3.186-3.913-3.186-3.186-0.056 0.95 4.249 0.615 8.218-0.95 10.565-0.839 1.174-1.845 2.404-2.348 2.683-0.447 0.279-2.907 2.068-5.478 4.025l-4.696 3.578-0.018-3.907zm-70.939-54.672c-0.279-0.503-1.23-1.565-2.068-2.348-1.174-1.118-1.453-1.174-1.174-0.391 0.224 0.559 0.391 1.286 0.391 1.565s0.503 1.006 1.118 1.621c1.342 1.342 2.516 1.007 1.733-0.447zm67.529-17.106c-0.112-0.168-0.95-0.447-1.845-0.671l-1.621-0.391 2.684 3.578 0.503-1.118c0.279-0.671 0.391-1.286 0.279-1.398zm-48.187-7.267c0.783-0.727 0.168-4.36-0.783-4.64-0.503-0.168-2.404 4.472-2.404 5.814 1e-3 0.447 2.516-0.503 3.187-1.174zm-96.486-65.349c3.242-0.95 4.584-2.012 5.199-4.137 0.503-1.565 0.615-1.565-4.919 0.168l-4.584 1.398-0.112 2.012c-0.112 1.398 0.056 1.901 0.559 1.733 0.391-0.168 2.124-0.727 3.857-1.174zm127.12-18.447c1.509-3.019 5.087-5.422 10.901-7.379 2.46-0.839 4.472-1.677 4.472-1.957s-0.727-1.006-1.621-1.621c-1.062-0.783-1.789-1.957-2.236-3.801l-0.671-2.627 0.95-0.727c2.404-1.733 7.77-1.565 10.286 0.28 1.621 1.23 2.236 4.025 0.894 4.025-1.174 0-1.118 0.391 0.224 2.068 1.286 1.621 1.006 2.404-0.727 2.404-0.671 0-2.236 0.391-3.466 0.783l-2.236 0.783-0.447 2.348c-0.279 1.286-0.335 2.46-0.224 2.627 0.168 0.112 1.845-0.559 3.745-1.509l3.466-1.733 0.279 1.118c0.28 1.118 3.41 2.348 9.391 3.745l1.677 0.391-3.466-3.298c-5.143-4.919-5.478-7.1-2.627-16.77 1.565-5.255 2.292-6.093 4.919-5.646l1.901 0.28 0.391-2.18c0.224-1.174 0.615-2.292 0.894-2.516 0.28-0.168 2.18 1.118 4.304 2.907 2.571 2.18 4.304 4.193 5.478 6.429l1.677 3.242 1.118-2.068c1.845-3.522 5.367-6.876 8.888-8.553 3.298-1.565 5.311-2.012 5.311-1.174 0 0.224-0.224 1.23-0.503 2.236-0.559 1.957-0.28 3.466 0.615 3.466s7.211-5.758 6.988-6.373c-0.168-0.559-1.957-0.95-8.329-1.789-1.509-0.224-2.683-0.615-2.683-0.894 0-0.839 5.59-8.944 7.77-11.236 2.516-2.683 4.975-3.969 9.783-5.199 4.025-1.006 4.137-1.342 0.503-2.348-4.919-1.398-11.628-7.659-13.305-12.354-0.839-2.46-2.627-14.087-2.236-14.534 0.168-0.112 2.236 0.671 4.584 1.789 2.404 1.062 4.416 1.789 4.528 1.565 0.056-0.28-0.447-2.404-1.23-4.752-1.006-3.186-1.174-4.416-0.671-4.584 0.894-0.335 8.162 1.23 10.733 2.292 1.118 0.447 2.18 0.839 2.404 0.839 0.168 0 0.335-2.404 0.335-5.311s-0.168-5.311-0.335-5.311c-0.224 0-1.453 0.391-2.739 0.839-1.342 0.447-2.516 0.727-2.683 0.559-0.168-0.168 0.112-2.068 0.615-4.304s0.727-4.193 0.615-4.36c-0.168-0.112-1.342 0.335-2.627 1.118-4.919 2.795-6.485 3.634-6.708 3.354-0.335-0.335-1.509-8.944-1.901-13.808-0.224-2.46 0-4.416 0.615-6.373 1.565-4.696 0.112-4.472-4.081 0.671-1.342 1.677-2.683 3.075-2.907 3.186-0.279 0.112-1.23-1.453-2.236-3.522-0.95-2.012-2.012-3.578-2.348-3.466-0.391 0.112-1.733 1.957-3.075 4.081-1.286 2.124-2.683 3.857-3.019 3.857s-1.901-2.739-3.41-6.037l-2.739-6.037-0.28-5.534-0.335-5.534-1.565 2.18c-2.012 2.795-2.348 2.907-10.286 4.752-3.69 0.839-6.82 1.621-6.988 1.789-0.112 0.112 0.894 1.174 2.236 2.404 1.789 1.509 2.292 2.236 1.677 2.404-0.447 0.168-2.46 0.727-4.416 1.286-2.348 0.671-5.478 2.236-8.888 4.528-7.659 5.143-12.746 6.261-19.51 4.304-1.677-0.503-3.186-0.783-3.298-0.615-0.168 0.168 0.727 1.453 1.957 2.851 2.907 3.354 5.087 6.54 7.099 10.398l1.621 3.075v13.08l2.46 2.46 0.335-1.621c0.615-2.739 0.783-3.019 1.621-3.019 1.733 0 7.826 4.752 9.056 7.155l1.23 2.348 1.062-2.068c0.559-1.174 1.845-2.683 2.851-3.354 2.46-1.621 14.646-4.416 14.646-3.298 0 0.112-0.391 1.118-0.839 2.18-1.118 2.627-1.062 2.683 0.615 2.068 0.783-0.335 2.068-0.559 2.851-0.559h1.453l-0.335 4.752c-0.168 2.571-0.615 5.255-0.95 5.87-0.335 0.671-1.957 2.068-3.634 3.075-1.677 1.062-3.13 2.18-3.298 2.404-0.168 0.28 1.565 0.671 3.801 0.839 5.311 0.391 8.106 1.845 10.845 5.59 2.404 3.242 4.584 6.764 4.584 7.323 0 0.168-1.398 0.335-3.075 0.335s-3.075 0.112-3.075 0.28 0.783 1.677 1.733 3.41c0.95 1.677 1.565 3.242 1.342 3.466-0.168 0.224-3.41 0.391-7.155 0.391h-6.82l-3.075-1.621c-1.677-0.894-3.745-2.068-4.584-2.627-2.404-1.733-2.683-1.23-1.174 2.404 0.95 2.404 1.286 4.137 1.118 5.59-0.279 2.18-2.516 7.267-3.969 9.112l-0.839 1.118-1.453-1.789c-0.839-1.006-1.677-1.845-1.901-1.845s-1.006 1.118-1.677 2.516-1.509 2.516-1.845 2.516c-0.839 0-4.919-4.696-6.708-7.77-1.733-2.851-2.068-6.82-0.95-10.062 0.335-1.006 0.503-1.901 0.335-2.068s-1.398 0.28-2.739 1.062c-1.342 0.783-3.41 1.733-4.696 2.068-1.789 0.559-2.404 1.062-2.963 2.516-0.335 1.006-0.503 2.236-0.28 2.739 0.224 0.615 0.056 0.894-0.559 0.894-0.839 0-7.044 3.242-7.044 3.634 0 0.335 3.466 1.957 4.137 1.957 1.901 0 9.839 11.292 9.839 13.919 0 0.335-1.118 0.615-2.683 0.615-1.509 0-2.851 0.168-3.019 0.335-0.168 0.168 0.279 1.342 1.006 2.627 0.727 1.286 1.342 2.627 1.342 3.019 0 0.335-1.398 0.783-3.354 1.006-1.845 0.224-3.354 0.615-3.354 0.894 0 0.224 0.727 1.621 1.621 3.075 0.894 1.398 2.124 3.801 2.627 5.311 0.559 1.509 1.118 2.739 1.286 2.739 0.229-0.062 0.844-1.125 1.459-2.41zm-70.995-25.436 5.031 0.224 2.516-1.565c3.466-2.236 3.801-3.019 1.398-3.466-1.062-0.224-1.957-0.615-1.957-0.894 0-0.839 3.466-3.186 6.988-4.863l3.354-1.509 10.789 0.112c5.87 0.056 10.733 0 10.733-0.112 0-0.168-1.453-0.671-3.186-1.174-7.211-2.124-10.342-4.919-11.963-10.677-0.559-2.124-1.062-4.919-1.062-6.317v-2.46l2.404 0.335c1.342 0.168 2.851 0.503 3.41 0.727l1.006 0.391-0.224-3.019-0.168-3.019 2.068-0.168c4.696-0.391 12.242 5.367 13.752 10.454 0.391 1.23 0.839 3.913 1.062 5.926 0.168 2.012 0.391 3.634 0.503 3.634s1.565-0.839 3.186-1.901 3.857-2.292 4.975-2.739c1.677-0.727 4.36-3.466 4.36-4.584 0-0.168-0.727-0.615-1.677-0.894-0.894-0.335-1.677-0.894-1.677-1.286 0-0.335 1.621-2.236 3.522-4.193 3.801-3.745 5.59-4.472 10.565-4.528h2.627l-2.236-3.186c-1.23-1.789-3.41-4.975-4.807-7.044-1.845-2.683-2.739-3.578-3.075-3.075-0.559 0.894-1.901 5.646-2.404 8.441-0.224 1.398-0.615 2.068-1.118 1.957-0.391-0.112-2.963-2.18-5.646-4.584-5.59-5.143-8.05-9.391-9.224-16.044-0.391-2.124-0.839-3.857-1.006-3.857-0.224 0-1.062 1.621-1.957 3.578-1.789 4.137-5.367 7.826-9.671 10.006-2.348 1.23-18.056 6.149-18.056 5.702 0-0.168 1.565-8.273 2.012-10.174 0.391-1.957-1.565-1.621-6.373 1.006-2.236 1.23-4.249 2.18-4.36 2.012-0.391-0.391 1.398-11.963 2.236-14.367 1.286-3.857 3.745-6.764 7.882-9.447l3.913-2.571-5.59-0.28c-6.317-0.335-8.721-1.286-12.857-5.087-1.286-1.174-2.571-2.18-2.795-2.18s-1.565 1.062-2.963 2.292c-3.578 3.186-6.932 4.64-9.95 4.249-2.795-0.279-2.907-0.056-1.342 2.516 0.615 1.006 1.118 2.292 1.118 2.851s2.627 3.578 5.758 6.708c4.696 4.64 6.205 6.485 7.938 10.006l2.068 4.304-0.224 3.578c-0.168 2.963-0.615 4.304-2.683 7.882-1.398 2.404-3.298 5.311-4.304 6.429l-1.845 2.012-1.957-2.068c-1.062-1.174-2.068-2.124-2.18-2.124-0.894 0 0.783 5.534 2.795 9.224 3.186 5.981 5.814 13.919 5.814 17.665 0 3.466-1.565 7.211-4.696 11.292-1.118 1.453-2.012 2.739-2.012 2.851 0 0.056 1.453-0.559 3.242-1.453l3.186-1.677 5.034 0.222zm184.14-54.336c3.186-6.429 6.596-9.671 12.019-11.404 2.012-0.671 0.056-1.453-7.267-2.795-3.969-0.727-8.162-1.733-9.28-2.18-2.907-1.23-6.373-5.087-8.441-9.447-1.006-2.068-1.957-3.801-2.124-3.801-0.224 0-0.671 1.118-1.062 2.516l-0.727 2.571 4.472 4.137c7.323 6.764 9.671 11.628 9.671 19.957 0 2.404 0.168 4.36 0.447 4.36 0.224-0.057 1.23-1.79 2.292-3.914z"/><path class="st0" d="m609.76 279.65c-0.894-1.118-2.236-3.41-3.019-5.087-2.348-5.199-1.789-7.938 3.69-17.665 1.453-2.627 2.068-3.242 3.242-3.242 1.733 0 4.584 2.907 7.435 7.603 1.621 2.739 1.957 3.857 2.124 7.211l0.224 3.969-2.46 3.578c-1.342 1.957-2.683 3.634-3.019 3.745s-1.006-0.727-1.453-1.901l-0.783-2.124-1.957 2.907c-1.062 1.621-2.012 2.963-2.18 2.963s-1.005-0.895-1.844-1.957z"/><path class="st0" d="m580.18 267.24c-3.634-3.801-4.36-5.534-4.304-10.342 0-4.416 1.286-8.609 2.907-9.615 0.783-0.503 1.621-0.28 4.025 1.006 8.721 4.528 10.957 9.727 7.547 17.553-0.559 1.286-1.286 2.348-1.509 2.348-0.28 0-0.95-0.727-1.453-1.677-0.559-0.894-1.23-1.677-1.565-1.677-0.279 0-0.783 1.118-1.174 2.516s-0.95 2.516-1.286 2.516-1.734-1.174-3.188-2.628z"/><path class="st0" d="m493.87 318.22c-1.453-2.124-2.124-3.913-2.348-5.758l-0.224-2.683 2.571-2.739 2.627-2.795 1.062 1.286c0.559 0.671 1.118 1.565 1.286 1.957 0.168 0.503 0.447 0.447 1.174-0.168l1.006-0.783 0.783 1.006c2.236 3.13 1.174 9.615-2.068 12.354-2.571 2.124-3.577 1.789-5.869-1.677z"/><path class="st0" d="m640.84 515.22c-2.18-1.398-2.907-3.354-2.516-7.1l0.28-2.963 1.006 0.335c0.615 0.224 1.174-0.056 1.509-0.615l0.503-0.95 1.789 1.286c2.068 1.565 2.18 1.901 2.404 6.988l0.168 3.913-1.677 0.112c-0.895 0.056-2.46-0.391-3.466-1.006z"/><path class="st0" d="m736.88 511.25-2.516-2.795 1.118-0.839c0.559-0.447 1.006-1.118 0.894-1.565-0.224-1.118 1.621-1.901 5.422-2.292 2.571-0.28 3.69-0.168 4.696 0.503 1.23 0.783 5.422 7.938 5.422 9.28 0 0.391-2.068 0.615-6.261 0.615l-6.317-0.056-2.458-2.851z"/><path class="st0" d="m767.68 511.48c-1.789-1.677-2.627-3.745-2.236-5.534 0.279-1.453 3.745-1.23 5.981 0.335 1.733 1.286 4.193 5.199 3.634 5.814-0.224 0.168-1.006 0.056-1.789-0.224-1.174-0.447-1.621-0.391-2.124 0.279-0.894 1.23-1.565 1.118-3.466-0.67z"/><path class="st0" d="m138.28 512.03c-1.006-0.615-1.789-3.186-1.453-4.64 0.447-1.845 1.733-3.242 4.304-4.528l2.18-1.118 0.839 0.839c0.447 0.503 0.95 2.124 1.118 3.634l0.224 2.795-2.348 1.733c-2.404 1.732-3.634 2.067-4.864 1.285z"/><path class="st0" d="m447.31 509.57c0.503-0.95 0.503-1.342-0.224-1.845l-0.894-0.671 1.398-2.012c1.677-2.46 3.913-3.745 6.652-3.745 2.348 0 2.404 0.503 0.447 3.801-2.516 4.025-4.304 5.702-6.317 5.702h-1.733l0.671-1.23z"/><path class="st0" d="m100.94 502.47c-0.894-0.559-2.124-1.565-2.739-2.18l-1.006-1.174 2.906-1.342-0.335-1.901c-0.28-1.509-0.168-1.845 0.615-1.845 2.292 0 6.037 6.317 5.143 8.609-0.447 1.175-2.516 1.119-4.584-0.167z"/><path class="st0" d="m357.03 498.62c-1.118-3.41 2.627-9.615 5.758-9.615 1.23 0 1.509 0.28 1.509 1.286l-0.056 1.23 3.522-0.224c1.901-0.056 3.466-0.056 3.466 0.112 0 0.112-0.671 1.398-1.453 2.795-1.174 2.18-1.901 2.739-4.528 3.745-1.733 0.615-4.193 1.286-5.478 1.509l-2.404 0.279-0.336-1.117z"/><path class="st0" d="m182 496.27c-0.671-2.012 0.839-7.211 2.627-9.28 2.012-2.292 3.634-2.46 4.416-0.447l0.559 1.509 1.006-0.95c1.398-1.286 1.733-1.118 1.733 0.727 0 3.634-1.733 5.926-6.261 8.218-3.185 1.621-3.633 1.677-4.08 0.223z"/><path class="st0" d="m255.06 495.93c-1.621-1.118-3.578-4.975-3.354-6.54 0.112-1.006 0.615-1.23 2.404-1.398 2.907-0.168 4.808 0.839 5.981 3.242 1.453 2.963 1.342 4.137-0.391 3.689-1.006-0.28-1.509-0.056-1.957 0.783-0.727 1.342-1.062 1.398-2.683 0.224z"/><path class="st0" d="m282.62 486.88c-0.28-0.503-0.559-4.137-0.727-7.994l-0.224-6.988 1.23-2.46c2.907-5.758 8.944-10.062 8.944-6.429 0 1.677 0.615 1.789 1.957 0.28 0.559-0.615 1.398-1.118 1.845-1.118 0.671 0 0.783 0.95 0.559 6.037-0.335 7.491-1.118 9.168-6.932 14.59-5.198 4.864-6.093 5.423-6.652 4.082z"/><path class="st0" d="m696.29 484.2c-4.304-2.571-5.143-3.354-7.099-6.317-1.845-2.907-1.957-5.422-0.95-16.938l0.671-7.155h1.174c1.621 0 9.112 4.36 12.634 7.267 3.13 2.627 5.311 5.981 5.87 8.944 0.391 2.516-0.95 12.41-1.733 12.69-0.391 0.112-1.398-0.447-2.348-1.23-0.894-0.783-1.957-1.398-2.236-1.398-0.335 0-0.783 1.398-0.95 3.075-0.224 1.677-0.671 3.075-1.062 3.075-0.337-1e-3 -2.126-0.895-3.971-2.013z"/><path class="st0" d="m817.99 484.47c-5.702-0.95-9.615-4.081-12.187-9.727-1.565-3.466-4.249-16.044-3.578-16.715 0.727-0.783 12.634 0.559 16.882 1.901 4.696 1.453 6.932 3.298 8.609 7.1 1.565 3.522 3.298 10.118 2.795 10.621-0.168 0.168-1.621-0.056-3.186-0.559-3.13-1.006-4.416-1.174-4.416-0.503 0 0.447 1.286 5.255 1.901 7.267l0.391 1.23-2.124-0.056c-1.174-0.056-3.466-0.279-5.087-0.559z"/><path class="st0" d="m208.55 483.64c-2.124-0.894-8.385-6.764-8.385-7.826 0-0.727 1.789-1.342 4.081-1.342 0.839 0 1.509-0.224 1.509-0.503 0-0.28-0.783-2.46-1.677-4.752-0.95-2.348-1.565-4.528-1.342-4.863 0.224-0.335 1.23-0.447 2.683-0.224 5.534 0.95 8.441 3.186 11.236 8.665 2.124 4.137 3.745 8.888 3.41 9.783-0.67 1.844-8.105 2.571-11.515 1.062z"/><path class="st0" d="m432.77 483.08c0.112-0.28 1.062-2.068 2.068-3.969l1.789-3.522h-1.23c-0.727 0.056-1.901 0.391-2.683 0.839-0.783 0.447-1.789 0.783-2.292 0.839h-0.894l0.503-3.186c0.671-4.472 1.453-6.876 3.019-8.944 1.509-1.957 5.87-4.304 10.342-5.478 3.745-1.006 13.081-1.733 13.472-1.062 0.168 0.28-0.559 3.913-1.565 8.05-2.571 10.342-4.808 13.361-11.628 15.429-3.354 1.004-11.181 1.73-10.901 1.004z"/><path class="st0" d="m393.03 480.62c0-0.95-0.224-1.174-0.95-0.839-2.571 1.062-2.795 0.95-3.969-1.901-1.398-3.186-1.453-3.466-0.615-6.429 0.671-2.516 5.199-7.603 6.708-7.603 0.671 0 1.677 1.398 3.242 4.528 1.286 2.516 2.292 4.919 2.292 5.422 0 1.286-3.41 6.708-4.416 7.044-0.503 0.168-1.23 0.503-1.565 0.671-0.448 0.225-0.727-0.111-0.727-0.893z"/><path class="st0" d="m160.48 476.14-1.733-1.621 0.336-5.366 2.18 0.056c1.677 0.056 2.571 0.447 3.522 1.565 1.565 1.845 1.621 3.186 0.168 4.528-0.615 0.559-1.118 1.342-1.118 1.789-1e-3 1.229-1.454 0.838-3.355-0.951z"/><path class="st0" d="m298.11 476.59-1.23-0.615 0.335-2.012c0.224-1.118 0.615-2.516 0.95-3.13 0.894-1.901 3.354-4.193 4.416-4.193h1.006v6.652l-1.733 2.012c-1.899 2.124-1.899 2.124-3.744 1.286z"/><path class="st0" d="m883.84 467.59c-7.826-2.683-10.342-5.087-11.963-11.292-1.677-6.652-4.249-20.516-3.913-21.075 0.95-1.509 13.528 1.342 19.23 4.36 4.528 2.348 6.485 4.64 7.882 9.224 1.174 3.745 2.516 12.634 2.012 13.193-0.224 0.168-1.398-0.335-2.627-1.174-1.23-0.783-2.627-1.453-3.13-1.453h-0.894l0.782 9.504h-1.845c-1.062-1e-3 -3.522-0.616-5.534-1.287z"/><path class="st0" d="m319.18 465.08c-0.839-1.453-1.621-3.354-1.845-4.249-0.559-2.236 0.168-7.603 1.062-7.603 0.335 0 2.571 1.845 4.919 4.081l4.304 4.081v6.372h-1.006c-0.615 0-1.509-0.503-2.068-1.118s-1.23-1.118-1.453-1.118-0.615 0.503-0.783 1.118c-0.559 1.79-1.565 1.287-3.13-1.564z"/><path class="st0" d="m224.54 461.5c-0.503-0.671-0.894-2.124-0.894-3.242 0-2.18 1.845-6.708 2.739-6.708 1.621 0 3.969 4.416 3.969 7.491 0 0.783-0.28 0.95-1.398 0.671-1.118-0.28-1.509-0.056-2.236 1.342-1.062 2.011-1.118 2.011-2.18 0.446z"/><path class="st0" d="m246.62 457.47c-1.398-2.18-1.509-5.702-0.391-8.441 0.839-2.012 2.348-2.571 2.907-1.118 0.503 1.23 1.509 1.006 3.019-0.559 0.727-0.783 1.901-1.398 2.627-1.398h1.286v2.516c0 1.398-0.503 3.522-1.062 4.696-1.23 2.348-5.199 6.205-6.429 6.205-0.447-1e-3 -1.342-0.839-1.957-1.901z"/><path class="st0" d="m194.35 456.97-1.006-0.727 0.839-1.677c1.845-3.522 5.926-6.373 9.168-6.373h1.453l-0.67 3.354h1.621c2.012 0 2.068 0.447 0.447 2.516-2.404 3.075-9.336 4.752-11.852 2.907z"/><path class="st0" d="m347.02 455.46c-1.565-1.23-3.522-5.702-2.907-6.652 0.559-0.95 3.522-0.727 5.367 0.335 1.957 1.174 2.516 2.46 1.342 3.298-0.671 0.503-0.727 0.95-0.28 2.124 0.727 2.012 0.727 2.012-0.783 2.012-0.727 1e-3 -1.957-0.502-2.739-1.117z"/><path class="st0" d="m775.39 454.79c-6.373-3.522-8.609-5.199-10.174-7.659-2.404-3.857-3.801-8.944-3.801-14.087 0-2.404-0.168-4.416-0.391-4.416-0.279 0-1.342 1.957-2.404 4.36-2.292 5.199-6.596 9.783-11.18 12.019-3.242 1.565-12.131 4.137-12.578 3.634-0.168-0.168 0.335-2.068 1.118-4.193 1.509-4.193 1.733-5.758 0.839-5.758-0.279 0-2.46 0.615-4.807 1.398-2.348 0.783-4.752 1.398-5.367 1.398h-1.118l0.335-2.907c1.006-8.05 1.677-11.013 3.298-14.031 2.739-5.255 6.373-7.994 14.311-10.789 0.447-0.168-0.391-0.894-2.18-1.789-3.801-1.957-7.379-5.981-10.118-11.404-1.174-2.404-2.18-4.472-2.18-4.64 0-0.112 2.236-0.112 5.031 0.112l4.975 0.335-1.901-3.689c-1.062-2.012-1.733-3.801-1.509-3.913 0.224-0.168 2.012-0.447 4.025-0.671 2.012-0.224 4.584-0.615 5.758-0.95 6.205-1.789 12.41 4.36 16.044 15.82 1.23 3.913 2.46 6.317 2.012 3.857-0.168-0.783-0.559-3.466-0.894-5.926-1.006-6.988 0.168-8.553 9.112-12.019 2.516-0.95 4.807-1.901 5.087-2.18 0.224-0.28-0.559-1.118-1.789-1.957-2.292-1.509-3.522-3.745-4.248-7.603-0.503-2.907 0.615-3.745 3.578-2.516 1.23 0.503 2.348 0.894 2.46 0.894 0.279 0 1.453-4.752 1.453-5.814v-0.839l-2.012 0.839c-1.062 0.447-4.528 1.062-7.659 1.286l-5.702 0.447-3.634-2.124c-4.472-2.683-6.988-4.863-7.491-6.485-0.335-1.006 0-1.677 1.677-3.186l2.124-1.957-1.565-0.559c-0.839-0.335-1.789-0.615-2.068-0.615-1.006 0-0.447-0.839 2.348-3.801 3.634-3.857 6.988-5.367 10.621-4.919l2.683 0.391-1.677-1.845c-2.236-2.348-4.137-6.652-4.919-10.789-0.95-5.087-0.894-5.478 0.95-5.087 0.839 0.168 2.348 0.503 3.41 0.727l1.845 0.335-0.391-1.342c-0.224-0.727-0.894-2.012-1.509-2.851-0.894-1.286-1.286-1.453-2.124-1.006-1.733 0.95-2.236 0.671-2.236-1.23 0-1.006-0.168-2.404-0.335-3.019l-0.335-1.23-2.46 1.398c-1.342 0.783-2.795 1.286-3.242 1.118s-1.006-2.292-1.453-5.478c-1.118-7.603 0-10.957 5.59-16.659l2.404-2.46-1.901 0.391c-7.882 1.565-15.205 0.839-19.174-1.957l-2.571-1.845-0.783 0.783-0.783 0.839 0.727 3.578c0.783 3.745 0.447 7.938-0.783 9.168-1.398 1.398-0.671 2.068 1.789 1.733l2.404-0.335 3.522 2.46c2.012 1.342 3.578 2.683 3.578 2.963 0 0.335-0.671 0.894-1.509 1.286-1.901 0.95-1.845 1.565 0.391 2.348l1.789 0.671-1.398 0.894c-0.727 0.503-2.124 1.621-3.075 2.404-2.739 2.404-5.199 3.41-8.05 3.298-3.969-0.224-4.025-0.168-3.41 1.453 1.23 3.242-0.056 7.882-3.578 12.522l-1.453 1.901-0.671-1.789c-0.95-2.404-2.124-2.124-3.466 0.894-0.615 1.286-1.286 2.348-1.565 2.348-0.839 0-2.627-3.578-3.242-6.54-0.615-2.739-1.621-3.801-2.46-2.516-1.286 2.068-10.062 5.646-13.975 5.702h-1.006l0.448-7.938-2.124 0.335c-1.118 0.168-2.18 0.168-2.348-0.112-0.112-0.224 0.671-2.404 1.845-4.863 2.683-5.646 5.758-8.777 10.174-10.398 1.845-0.671 3.13-1.398 2.907-1.621-0.224-0.224-2.068-0.95-4.025-1.677-4.808-1.789-7.491-4.416-8.721-8.497-0.503-1.789-0.783-3.466-0.559-3.801 0.168-0.28 1.453-0.559 2.851-0.559 1.342 0 2.46-0.168 2.46-0.391 0-0.224-0.783-1.23-1.789-2.236-0.95-1.006-1.621-1.957-1.453-2.18 0.503-0.503 8.553-1.006 10.006-0.615 1.677 0.447 4.584 3.13 7.491 7.044l2.236 2.907 0.335-3.801c0.168-2.068 0.615-4.304 1.006-4.919 0.447-0.615 2.907-2.907 5.59-5.031 3.466-2.851 5.702-4.249 8.05-4.919 1.733-0.559 3.186-1.174 3.186-1.398s-1.006-1.286-2.236-2.404l-2.236-2.012 1.006-0.894c0.503-0.503 2.739-1.733 4.863-2.739 5.422-2.516 9.671-2.795 13.584-0.783 1.565 0.783 3.019 1.453 3.186 1.453 0.224 0-0.503-1.062-1.565-2.348-2.739-3.41-3.634-5.367-4.304-9.727-0.559-3.41-0.391-7.491 0.279-7.491 0.168 0 1.621 0.671 3.298 1.509 1.733 0.839 3.242 1.342 3.466 1.174 0.168-0.224-0.224-1.565-0.839-3.019-0.671-1.453-1.062-2.739-0.894-2.907 0.503-0.503 6.932 2.236 9.224 3.913 2.683 1.957 4.081 4.528 5.031 9 0.335 1.733 0.783 3.186 1.006 3.186 0.224 0 1.006-1.398 1.733-3.075 0.727-1.733 2.012-3.634 2.907-4.249 1.509-1.062 9.056-2.739 12.41-2.739h1.509l-1.118 2.236c-0.615 1.174-1.118 2.348-1.118 2.572 0 0.168 1.398 0.168 3.13-0.056l3.186-0.391-0.391 1.062c-0.224 0.559-0.671 2.404-1.006 4.081-1.845 9.839-2.18 11.013-3.69 12.466-0.839 0.783-2.236 1.733-3.075 2.012-1.789 0.671-1.565 1.733 0.391 1.733 2.068 0 6.876 2.739 8.497 4.863 1.398 1.845 2.907 5.814 3.857 10.118l0.391 1.789h-2.012c-1.118 0-2.012 0.224-2.012 0.503 0 0.224 0.894 1.621 1.957 3.019 1.062 1.398 1.957 2.627 1.957 2.739 0 0.447-13.361 0.335-14.87-0.112-2.348-0.783-5.255-4.025-8.05-8.944-1.286-2.292-2.18-3.578-1.957-2.795s0.559 4.193 0.671 7.603l0.279 6.205-1.23 2.907c-0.894 1.957-2.404 3.913-4.863 6.205l-3.634 3.298 3.019 0.894c1.621 0.503 4.472 1.062 6.317 1.23 1.845 0.224 4.472 0.95 5.814 1.677 1.342 0.671 2.907 1.286 3.466 1.286 1.342 0 3.019 2.292 4.193 5.758l1.006 2.907 0.503-1.957c2.124-8.162 5.087-12.354 10.677-15.205 1.845-0.95 4.752-2.571 6.373-3.578 1.621-1.062 3.242-1.901 3.69-1.901 0.727 0 1.453 3.354 1.453 7.044 0 1.006 0.224 1.957 0.447 2.124 0.28 0.168 1.565-0.839 2.907-2.236 1.342-1.342 2.683-2.404 3.019-2.292 0.671 0.224 2.46 7.938 2.516 11.013 0.112 3.801-1.006 6.149-4.584 9.727-1.901 1.901-4.193 3.913-5.087 4.528l-1.565 1.118h12.69l2.963 1.621c3.13 1.733 10.733 7.882 10.733 8.665 0 0.839-1.733 1.23-6.54 1.565-2.571 0.168-4.64 0.615-4.64 0.894 0 0.335 1.509 2.124 3.354 4.081 3.242 3.354 4.025 4.696 2.739 4.696-0.335 0-3.354 1.006-6.708 2.236-7.714 2.851-10.733 2.963-15.988 0.559-2.068-0.95-4.584-2.348-5.59-3.13-1.062-0.783-2.068-1.342-2.236-1.174s0.112 1.509 0.615 2.963c1.845 5.422 0.615 11.46-3.466 16.938-1.118 1.509-2.348 3.242-2.683 3.745l-0.615 1.006-1.062-1.789c-1.509-2.627-2.571-2.068-3.298 1.621-0.391 1.733-1.23 4.081-1.901 5.199-0.727 1.118-1.174 2.18-1.006 2.348 0.112 0.168 1.342 0 2.683-0.28 1.342-0.335 4.248-0.615 6.373-0.615 3.13 0 4.416 0.28 6.317 1.398 2.683 1.509 10.174 7.547 10.174 8.218 0 0.224-0.95 0.559-2.068 0.783-3.969 0.671-5.478 1.118-5.478 1.677 0 0.335 1.733 2.068 3.801 3.857 2.124 1.733 3.634 3.41 3.354 3.634-0.783 0.783-9.503 4.416-12.801 5.367-4.36 1.23-8.609 0.783-15.541-1.733-3.019-1.118-5.646-1.845-5.87-1.677-0.168 0.168 0.559 1.006 1.621 1.845 4.081 3.13 8.776 7.994 9.951 10.342 0.839 1.677 1.23 3.522 1.23 5.534 0 3.019-1.901 13.752-2.571 14.367-0.168 0.168-1.398-0.839-2.683-2.292-1.286-1.509-2.627-2.683-2.963-2.683-0.335 0-0.783 1.062-1.006 2.404-0.559 3.634-1.398 6.54-1.845 6.485-0.229-0.056-1.794-0.838-3.471-1.733zm-42.541-163.34c-0.727-0.783-1.509-1.453-1.677-1.453-0.503 0-1.062 4.472-0.671 5.422 0.28 0.615 0.727 0.447 2.012-0.839l1.677-1.733-1.341-1.397z"/><path class="st0" d="m329.24 447.41c-0.112-0.112-3.242-0.894-6.932-1.733-3.69-0.783-8.273-2.18-10.174-3.13-3.689-1.789-8.162-6.093-11.572-11.236-2.404-3.689-6.652-13.249-6.261-14.199 0.503-1.342 6.596-2.124 16.547-2.18h9.783l1.957 1.118c2.627 1.565 6.876 7.826 9 13.305 1.789 4.696 3.13 10.286 2.571 10.845-0.28 0.28-3.466-0.335-6.652-1.286-1.621-0.503-1.23 1.453 1.006 4.752 1.23 1.789 1.789 3.186 1.509 3.466s-0.614 0.39-0.782 0.278z"/><path class="st0" d="m274.91 442.32 0.335-2.516h-1.789c-2.068 0-2.124-0.224-0.559-2.795 2.516-4.193 6.596-7.267 9.727-7.267 0.783 0 1.398 0.056 1.398 0.168 0 0.056-0.447 1.398-1.062 2.907-0.559 1.565-1.23 4.081-1.453 5.59-0.447 3.578-0.615 3.801-3.466 5.255-3.299 1.677-3.579 1.565-3.131-1.342z"/><path class="st0" d="m605.73 440.42c-1.509-0.894-3.186-2.068-3.745-2.627-1.118-1.342-2.963-6.932-3.522-10.733l-0.391-2.907h3.019c4.193 0 8.553 1.398 10.901 3.522 1.453 1.398 2.124 2.627 2.739 5.143 0.391 1.845 0.783 4.081 0.783 4.975v1.621l-1.509-0.391c-0.894-0.168-2.124-0.447-2.795-0.671l-1.23-0.335-0.168 1.845c-0.112 1.006-0.391 1.901-0.727 2.012-0.28 0.055-1.789-0.56-3.355-1.454z"/><path class="st0" d="m632.29 439.64c0-2.516-0.615-2.907-2.795-1.789l-1.677 0.894-0.615-1.565c-0.335-0.839-0.727-3.186-0.894-5.199l-0.28-3.634 1.733-2.348 1.677-2.348-1.621 0.559c-1.062 0.391-2.292 0.391-3.69 0-2.18-0.615-9.168-5.031-9.168-5.814 0-0.224 0.783-0.894 1.789-1.509l1.733-1.062-1.453-0.671c-0.839-0.391-1.509-0.894-1.509-1.118 0-0.839 2.907-2.683 5.87-3.801 3.075-1.174 4.64-1.062 7.491 0.503 1.845 0.95 1.957 0.391 0.615-2.627-1.845-4.081-2.068-7.826-0.671-10.565 0.615-1.174 1.565-2.683 2.012-3.298l0.894-1.118 2.684 3.242 1.174-2.348c0.671-1.23 1.398-2.292 1.677-2.292 1.006 0 3.354 3.41 4.528 6.54l1.23 3.242-0.503 3.913c-0.335 2.18-0.503 4.025-0.391 4.137s1.398-0.894 2.907-2.292c3.298-3.075 5.926-4.025 10.23-3.634 4.416 0.391 4.752 0.671 2.963 2.795l-1.509 1.789 1.342 0.335c0.727 0.224 2.012 0.391 2.907 0.447 0.839 0.056 1.509 0.28 1.509 0.615 0 0.28-1.174 2.068-2.571 3.969-2.46 3.186-5.199 5.031-9.392 6.373l-1.118 0.335 1.677 1.006c3.466 2.068 5.981 6.596 6.485 11.516 0.168 1.398 0 1.621-0.95 1.509-0.615-0.112-1.621-0.224-2.236-0.279l-1.118-0.112 0.168 2.068c0.112 1.174 0.056 2.348-0.112 2.627-0.391 0.615-6.149-0.783-8.329-2.068-0.839-0.503-2.18-1.845-2.907-3.019-1.453-2.236-2.516-2.739-2.516-1.286 0 2.236-2.683 5.926-6.261 8.609l-1.006 0.727-3e-3 -1.954z"/><path class="st0" d="m235.05 438.41c-0.559-1.342 0.168-11.013 1.174-16.323 0.894-4.808 1.398-5.478 5.926-7.714 3.634-1.845 9.839-3.801 10.621-3.298 0.447 0.224 0.559 1.845 0.391 4.808l-0.28 4.472 1.453-0.391c0.783-0.168 2.124-0.503 3.019-0.671l1.509-0.28v1.398c0 0.727-1.006 3.41-2.236 5.87-3.857 7.714-9.783 11.907-17.944 12.801l-3.298 0.335-0.335-1.007z"/><path class="st0" d="m486.66 430.75c0.95-5.814 3.801-9.224 8.106-9.783l2.236-0.335v3.578l1.118-0.615c1.174-0.615 2.236-0.335 2.236 0.559 0 0.28-0.503 1.957-1.174 3.634-1.565 4.249-3.354 5.311-8.777 5.311h-4.137l0.392-2.349z"/><path class="st0" d="m685.56 428.01c-1.509-1.901-2.963-5.646-2.963-7.659 0-2.516 2.068-6.764 4.808-9.895l1.957-2.236 1.957 2.236c4.081 4.584 5.031 8.777 3.075 13.249-1.901 4.137-2.012 4.249-3.689 2.683l-1.398-1.342-1.565 1.845c-1.232 1.511-1.679 1.734-2.182 1.119z"/><path class="st0" d="m202.4 425.05c0-0.224 0.28-0.894 0.615-1.509 0.447-0.95 0.391-1.286-0.447-1.901l-1.006-0.727 1.062-1.118c2.236-2.516 7.826-3.913 8.497-2.124 0.335 0.95-1.453 4.696-2.963 6.037-1.062 0.95-5.758 2.012-5.758 1.342z"/><path class="st0" d="m462.12 421.08c0.391-2.292-0.112-2.46-3.298-1.118-1.118 0.447-2.292 0.839-2.627 0.839s-0.559-1.901-0.559-4.919c0-3.689 0.28-5.367 1.062-6.82 2.348-4.36 7.547-6.708 15.149-6.708 4.36 0 5.422 0.503 4.528 2.124-0.335 0.615-1.118 3.354-1.733 6.093-0.671 2.683-1.733 5.814-2.46 6.876-1.398 2.124-7.155 5.59-9.224 5.59h-1.23l0.392-1.957z"/><path class="st0" d="m719.04 422.09c-1.733-0.335-4.975-3.578-5.478-5.422-0.224-0.894-0.168-3.019 0.112-4.752l0.503-3.13 2.236 0.168c5.255 0.503 8.609 3.634 9.503 8.944l0.391 2.348-2.124-1.23-2.068-1.23 0.335 1.342c0.391 1.509-0.447 3.41-1.453 3.298-0.392-0.057-1.231-0.224-1.957-0.336z"/><path class="st0" d="m845.83 419.85c-1.733-0.615-5.199-4.472-6.764-7.547-0.894-1.789-1.621-3.354-1.621-3.522s0.894-0.727 1.957-1.174c2.516-1.062 7.77-1.006 10.062 0.112 1.733 0.783 5.87 6.093 5.87 7.491 0 0.28-0.727 0.559-1.677 0.559-1.901 0-2.012 0.335-0.783 2.124 0.447 0.671 0.671 1.509 0.503 1.789-0.336 0.559-6.038 0.727-7.547 0.168z"/><path class="st0" d="m346.63 418.06c-2.851-0.894-4.975-2.348-7.211-4.863-2.46-2.851-3.13-5.087-2.627-8.721 0.168-1.342 0.503-3.857 0.671-5.59 0.224-1.789 0.559-3.242 0.783-3.242s1.342 0.615 2.46 1.398 2.18 1.398 2.236 1.398c0.112 0 0.112-1.006-0.056-2.236s-0.112-2.236 0.112-2.236c0.894 0 7.044 4.081 8.05 5.311 0.894 1.174 1.062 2.404 1.118 7.659 0.056 3.466 0.168 7.435 0.224 8.832l0.112 2.516-2.236 0.112c-1.232 0.053-2.853-0.114-3.636-0.338z"/><path class="st0" d="m284.35 411.58c-1.174-0.391-2.963-1.509-3.913-2.46-2.124-2.068-5.255-7.659-4.584-8.273 0.224-0.224 2.404-0.559 4.863-0.671l4.472-0.168 1.845 1.957c1.957 2.068 4.584 6.932 4.081 7.435-0.168 0.168-0.727 0.391-1.342 0.447-0.671 0.112-0.95 0.559-0.839 1.398 0.225 1.398-1.229 1.565-4.583 0.335z"/><path class="st0" d="m701.38 411.02c-4.752-2.012-6.652-3.689-8.777-7.77-1.062-2.012-2.012-3.689-2.18-3.689-0.168 0.056-1.006 1.565-1.957 3.466-1.733 3.41-3.913 5.758-6.317 6.652-1.789 0.671-8.721 2.124-9 1.845-0.112-0.112 0.056-1.174 0.391-2.46 0.28-1.23 0.335-2.348 0.056-2.571-0.279-0.112-1.509 0.056-2.739 0.391-1.23 0.391-2.404 0.559-2.571 0.391-0.559-0.559 1.901-12.019 3.075-14.311 0.615-1.23 1.901-2.851 2.795-3.634l1.677-1.398-2.516-0.391c-3.13-0.447-5.534-2.571-8.329-7.211-2.516-4.304-2.516-4.808 0.28-4.808 1.23 0 2.236-0.168 2.236-0.391 0-0.168-0.671-1.453-1.453-2.851-1.062-1.789-1.286-2.627-0.839-3.075 0.335-0.335 2.963-0.727 5.814-0.839 4.025-0.168 5.646-0.056 6.932 0.615l1.677 0.894v-2.907c-0.056-2.068 0.391-3.745 1.453-5.758 1.789-3.466 8.162-11.628 8.665-11.124 0.224 0.168 0.671 1.118 1.006 2.124 0.783 2.292 1.398 2.404 2.739 0.391 0.615-0.894 1.453-1.677 1.845-1.677 1.286 0 4.249 7.211 4.472 10.957l0.224 3.41-1.789 3.186c-1.006 1.733-1.677 3.298-1.509 3.522 0.168 0.168 1.621-0.503 3.242-1.509 3.186-1.957 7.826-4.081 10.062-4.64 1.789-0.447 5.031 0.615 8.385 2.739l2.404 1.509-2.068 1.733c-2.516 2.068-2.571 2.571-0.447 2.571 3.634 0 3.634 0.503-0.056 4.304-4.528 4.64-5.646 5.199-10.51 5.199-4.137 0-4.807 0.447-2.516 1.677 1.453 0.783 5.255 4.975 6.317 7.044 1.23 2.292 1.789 6.485 1.453 10.006-0.503 4.752-0.839 5.199-2.907 3.689-0.95-0.615-1.901-1.174-2.236-1.174-0.559 0-1.23 3.075-1.23 5.758 1e-3 1.904-0.838 1.904-5.254 0.115z"/><path class="st0" d="m233.37 408.22c-0.168-1.398-0.224-3.913-0.112-5.534 0.224-2.404 0.615-3.41 2.404-5.534 2.348-2.795 3.578-3.298 4.025-1.509l0.279 1.062 1.342-0.894 1.342-0.839v3.019c0 3.801-1.957 7.938-5.087 10.733-2.963 2.683-3.69 2.571-4.193-0.504z"/><path class="st0" d="m880.15 398.33c0.894-4.416 0.894-4.919-0.112-4.919-0.503 0-2.068 0.783-3.466 1.677-3.242 2.124-4.137 2.18-3.634 0.168 0.224-0.894 0.056-4.808-0.335-8.832-0.391-3.969-0.503-8.218-0.28-9.391 0.559-2.963 3.634-6.205 8.888-9.224 2.46-1.398 4.193-2.683 3.801-2.795-0.335-0.112-3.019 0.224-5.981 0.727-9.783 1.677-13.696 0.056-21.131-8.777-1.453-1.789-2.571-3.578-2.404-4.025 0.168-0.447 1.565-0.894 3.298-1.118 4.863-0.615 5.087-1.062 1.845-3.913l-2.739-2.404 4.416-2.068c9.391-4.36 14.702-4.249 19.677 0.391 1.845 1.677 2.124 0.839 0.783-2.683-0.727-1.957-1.174-4.416-1.174-6.708v-3.578l2.683-5.199c1.565-3.075 3.019-5.255 3.578-5.367 0.671-0.112 1.509 0.727 2.739 2.627 0.95 1.565 1.957 2.851 2.292 2.851 0.28 0 1.453-2.012 2.571-4.472s2.348-4.472 2.739-4.472c1.901 0 7.044 11.795 8.162 18.783 0.335 2.292 0.839 4.137 1.062 4.137 0.28 0 0.447-0.391 0.447-0.839 0-1.621 1.677-4.137 3.242-4.975 2.124-1.062 10.957-3.969 14.646-4.808 1.677-0.335 3.969-0.559 5.031-0.447l1.957 0.168-0.056 3.913c-0.056 2.18-0.503 5.031-0.95 6.429-0.503 1.342-0.783 2.571-0.671 2.739 0.168 0.112 1.957-0.224 4.025-0.727 2.124-0.503 3.969-0.894 4.193-0.894 0.615 0-1.677 5.926-3.634 9.503-3.969 7.155-9.615 12.075-16.1 14.031-2.124 0.671-3.969 1.398-4.137 1.621-0.168 0.28 0.671 0.783 1.789 1.118 1.174 0.391 4.304 1.845 7.044 3.186 4.025 2.068 5.143 2.963 6.205 4.863 1.398 2.404 4.137 12.969 3.522 13.528-0.168 0.224-2.012-0.056-4.081-0.559-4.975-1.23-5.367-0.839-3.69 3.857 0.671 1.957 1.23 3.857 1.23 4.137 0 0.894-5.367 0.727-9.112-0.224-7.379-1.901-11.795-5.534-15.485-12.634-2.795-5.422-3.913-5.758-3.913-1.174 0 5.87-1.845 9.783-5.87 12.466-2.124 1.398-11.572 5.534-12.634 5.534-0.276 2e-3 -0.387-0.557-0.276-1.228z"/><path class="st0" d="m643.63 397.6c-0.559-1.509 0.224-9.28 1.23-12.019 1.118-3.13 2.683-4.808 5.199-5.646l1.957-0.671 1.788 2.348 1.398-1.062c0.783-0.615 1.677-1.118 2.012-1.118 0.671 0 1.342 3.801 1.342 7.77 0 4.64-3.466 8.832-8.329 10.062-4.753 1.174-6.206 1.286-6.597 0.336z"/><path class="st0" d="m826.82 394.14c-1.901-0.95-5.311-3.745-9.168-7.491-7.099-6.876-7.099-6.54-0.727-9.615 6.82-3.354 10.733-4.416 15.261-4.193l4.025 0.168 3.13 2.18c1.733 1.174 4.193 3.41 5.478 4.919 2.571 3.075 2.404 3.522-1.286 4.137-3.745 0.615-3.857 1.062-0.839 4.081 1.565 1.565 2.627 3.019 2.404 3.242-0.447 0.447-3.019 1.398-7.826 3.019-4.415 1.454-6.874 1.342-10.452-0.447z"/><path class="st0" d="m303.86 394.3c-6.093-1.565-17.609-7.1-17.609-8.497 0-1.398 3.019-5.422 6.373-8.497 3.801-3.41 8.05-5.199 13.64-5.59 4.137-0.28 10.454 0.727 11.124 1.733 0.168 0.28-0.615 1.342-1.789 2.348-2.404 1.957-2.292 2.795 0.447 3.298 2.068 0.391 7.099 3.354 7.099 4.193 0 0.727-8.553 8.162-11.683 10.174-2.739 1.788-3.521 1.844-7.602 0.838z"/><path class="st0" d="m330.42 387.6c0-1.621 0.391-2.907 1.174-3.913 1.286-1.621 1.901-1.733 4.025-0.727 2.683 1.23 1.733 4.919-1.565 6.317-3.187 1.285-3.634 1.062-3.634-1.677z"/><path class="st0" d="m854.49 375.13c-1.23-0.447-2.907-1.062-3.69-1.398-0.783-0.28-2.012-1.509-2.739-2.739-1.006-1.901-1.174-2.739-0.839-5.255 0.168-1.621 0.671-3.41 1.062-3.969l0.727-1.006 2.739 1.789c1.509 0.95 3.634 2.627 4.696 3.745l1.957 2.012v3.745c1e-3 4.249-0.279 4.473-3.913 3.076z"/><path class="st0" d="m244.05 371.78c-2.236-2.404-2.292-2.795-1.062-4.193 0.727-0.727 0.783-1.174 0.28-1.733-1.118-1.398 0.783-2.236 5.478-2.516l4.36-0.224 2.236 2.124c1.509 1.453 2.516 3.019 2.963 4.64 1.006 3.857 0.839 3.969-6.149 3.969h-6.205l-1.901-2.067z"/><path class="st0" d="m733.52 366.52c-1.677-0.28-3.186-0.615-3.298-0.727-0.112-0.168 0.839-0.894 2.124-1.733 1.286-0.783 2.236-1.733 2.068-2.124-0.112-0.391-1.621-0.727-3.634-0.839l-3.466-0.168v-1.062c0-2.068 1.621-7.323 3.075-9.95 2.963-5.311 8.832-7.938 17.944-7.938h5.255v1.118c0 0.615-0.503 2.571-1.062 4.304-0.615 1.789-1.509 4.752-2.012 6.596-1.342 4.752-2.627 6.988-5.534 9.671-3.857 3.578-5.143 3.858-11.46 2.852z"/><path class="st0" d="m942.32 366.13c-0.168-0.28-0.056-2.795 0.224-5.646 0.335-2.795 0.503-6.485 0.503-8.162-0.112-3.801 0.783-5.199 4.808-7.826 3.913-2.46 4.975-2.571 4.472-0.28-0.391 1.845 0.056 2.068 1.733 0.839 1.453-1.118 3.019-1.062 3.019 0.168 0 0.503 0.391 2.739 0.95 4.975 0.783 3.41 0.783 4.416 0.224 6.373-0.894 3.019-4.696 7.044-8.162 8.665-2.74 1.286-7.212 1.789-7.771 0.894z"/><path class="st0" d="m342.44 362.5c-3.578-3.578-5.199-6.932-4.584-9.391 0.447-1.565-0.335-1.286-1.342 0.559-1.342 2.348-5.031 3.801-10.789 4.249l-4.919 0.335 1.23-2.068 1.286-2.012-2.907 0.391-2.963 0.391 0.28-1.006c0.168-0.615 0.727-2.516 1.23-4.249 1.174-4.081 2.851-6.596 5.478-7.994 1.118-0.615 2.068-1.286 2.068-1.453 0-0.224-1.118-0.559-2.516-0.727-2.963-0.447-7.323-3.242-9-5.814-1.565-2.292-3.745-8.553-3.186-9.112 0.28-0.28 1.398-0.224 2.571 0 2.404 0.559 2.516 0.224 1.174-3.019l-0.839-2.124 4.919 0.28c5.59 0.28 7.826 1.118 11.628 4.472 2.683 2.348 3.019 2.18 1.677-1.062-1.342-3.13-1.062-7.826 0.559-11.18 2.46-4.919 4.808-5.981 5.59-2.46 0.447 2.18 0.95 2.18 2.683 0.056 0.783-0.894 1.789-1.677 2.18-1.677 0.839 0 3.969 4.472 4.919 6.988 0.391 0.95 0.671 2.851 0.615 4.36 0 1.509 0.224 2.516 0.559 2.348 0.28-0.224 0.503-1.286 0.503-2.404 0.056-4.64 5.367-12.131 10.23-14.367l2.683-1.286-4.36-0.224c-2.683-0.112-5.143-0.615-6.485-1.23-2.516-1.23-9-7.379-8.553-8.106 0.168-0.28 1.342-0.671 2.571-0.894 2.571-0.447 3.41-1.342 1.957-2.18-1.565-0.95-4.193-3.186-4.193-3.634 0-0.224 1.677-1.23 3.801-2.236 3.13-1.621 4.528-1.957 8.553-2.18l4.863-0.224 3.578 2.012c2.012 1.118 3.801 2.012 4.025 2.012s-0.335-1.062-1.23-2.348c-2.292-3.41-3.242-5.367-3.969-8.609l-0.671-2.851 1.118-3.298c1.453-4.304 4.975-10.845 5.814-10.845 0.391 0 1.23 1.006 1.957 2.236 0.671 1.23 1.453 2.236 1.733 2.236 0.279 0 0.783-1.118 1.174-2.516 1.006-3.578 1.789-4.025 4.081-2.292l1.845 1.398 0.727-3.466c0.391-1.901 1.062-4.304 1.509-5.367 0.447-1.062 0.671-2.012 0.559-2.18-0.168-0.112-2.236 0.28-4.696 0.95-4.808 1.286-7.714 1.453-10.789 0.615-2.348-0.671-9-4.584-9.336-5.478-0.112-0.391 0.727-1.174 1.789-1.845 1.118-0.615 2.012-1.342 2.012-1.565s-1.174-0.95-2.571-1.621c-1.398-0.671-2.46-1.453-2.348-1.733 0.447-1.23 6.037-5.199 8.721-6.205 2.46-0.95 3.41-1.062 5.031-0.559 3.019 0.839 3.075 0.783 1.006-1.901-2.571-3.41-6.373-12.634-5.143-12.634 0.112 0 1.565 0.615 3.242 1.398 1.621 0.783 3.522 1.398 4.249 1.398h1.286l-0.782-6.26 1.901 0.391c3.019 0.671 6.876 2.851 8.777 4.975 1.509 1.733 2.236 3.857 3.075 9 0.112 0.671 0.559-0.112 1.118-2.012 1.789-5.981 4.025-7.379 12.857-8.05 5.422-0.391 6.429-0.112 4.584 1.398-1.453 1.23-0.95 1.845 1.118 1.453 1.118-0.224 2.18-0.224 2.46-0.056s-0.224 2.627-1.174 5.422c-1.23 3.689-2.236 5.59-3.466 6.708l-1.677 1.565h1.23c1.845 0 5.143 1.845 7.155 4.025 2.068 2.236 5.255 6.373 5.255 6.764 0 0.168-0.95 0.391-2.068 0.503l-2.124 0.168 2.124 2.012c2.348 2.236 2.516 2.739 0.95 2.739-0.559 0-2.516 0.559-4.249 1.174-4.193 1.565-7.714 1.565-10.733 0-1.342-0.671-2.571-1.174-2.683-1.006-0.112 0.112 0.168 1.342 0.671 2.739 0.671 2.012 0.727 3.075 0.28 4.752-0.559 2.068-6.205 10.286-7.323 10.677-0.28 0.112-0.671-0.447-0.894-1.23-0.447-1.957-1.957-1.845-3.466 0.224l-1.23 1.621v5.646c0 3.354 0.224 5.59 0.559 5.59s0.559-0.224 0.559-0.447c0-0.279 0.95-0.894 2.124-1.453l2.068-1.006-2.795 2.739c-1.901 1.789-3.075 3.466-3.522 5.143-0.447 1.286-0.894 2.795-1.062 3.354-0.168 0.503 1.453-1.062 3.689-3.41 2.739-2.907 5.031-4.808 7.211-5.87l3.186-1.565h7.826c8.106 0.056 10.901 0.447 10.901 1.453 0 0.335-0.894 1.845-1.957 3.298-1.062 1.453-1.957 2.795-1.957 3.019 0 0.168 1.621 0.335 3.634 0.335s3.634 0.224 3.634 0.503c0 0.95-4.416 9.783-5.534 11.124-2.012 2.292-5.981 3.634-11.795 3.913-2.907 0.112-5.478 0.391-5.702 0.615-0.28 0.224 1.174 1.453 3.13 2.739 4.64 3.019 8.553 7.379 9.056 10.006 0.503 2.683-0.168 14.199-0.839 14.87-0.335 0.335-1.174 0-2.292-0.95-2.851-2.404-3.354-2.012-3.354 2.46 0 2.18-0.168 3.913-0.391 3.913-0.671 0-6.261-2.18-8.106-3.13-5.199-2.683-8.777-8.273-10.286-16.1-0.559-2.627-1.23-4.808-1.565-4.808-0.391 0-1.565 1.845-2.683 4.081-2.236 4.528-5.646 8.665-8.665 10.51-1.118 0.671-3.913 1.789-6.261 2.46l-4.249 1.174-0.95 2.012c-0.503 1.062-2.012 2.907-3.298 4.025-1.565 1.286-2.068 2.068-1.565 2.236 0.447 0.112 1.845 0.503 3.13 0.839 1.901 0.503 2.795 1.23 4.64 3.801 2.516 3.522 2.627 3.969 1.286 4.919l-0.95 0.727 1.006 1.509c0.559 0.839 0.894 1.565 0.783 1.677-0.112 0.112-1.733 0.503-3.689 0.894-2.683 0.559-4.025 0.559-5.814 0.112-1.342-0.335-2.571-0.503-2.795-0.391-0.168 0.112-0.224 1.118-0.056 2.124 0.335 2.012-1.453 8.329-2.907 10.174l-0.839 1.062-0.615-0.95c-0.839-1.453-2.012-1.23-2.404 0.391-0.224 0.783-0.615 1.398-0.95 1.398-0.334 3e-3 -2.179-1.563-4.135-3.519z"/><path class="st0" d="m213.86 364.96c-1.621-0.671-2.851-2.292-3.634-4.752l-0.727-2.18 1.006-0.727c1.23-0.894 3.298-0.503 5.478 1.006 1.789 1.286 1.957 2.46 0.335 2.851l-1.118 0.279 0.839 1.677c1.175 2.238 0.393 2.853-2.179 1.846z"/><path class="st0" d="m664.48 362.33c-5.031-1.23-9-3.745-11.851-7.603-3.745-5.087-6.373-15.093-3.69-14.255 3.522 1.118 3.466 1.118 3.466-0.224 0-0.727-0.28-2.348-0.559-3.522-0.279-1.23-0.391-2.404-0.279-2.627 0.391-0.615 7.714 0.95 10.901 2.348 1.621 0.671 3.634 2.18 4.752 3.466 3.019 3.466 3.634 6.149 3.634 15.317v7.994l-1.509-0.056c-0.896 1e-3 -3.076-0.391-4.865-0.838z"/><path class="st0" d="m373.46 359.87-2.795-2.739v-2.851c0-1.733 0.559-4.304 1.509-6.708 1.23-3.13 1.733-3.913 2.739-3.913 2.348 0 8.721 6.093 9.447 9.112 0.503 1.789-0.559 6.652-1.733 8.553l-0.95 1.398-1.398-1.286-1.342-1.286-0.839 1.286c-0.503 0.671-1.118 1.23-1.398 1.23-0.277-1e-3 -1.73-1.23-3.24-2.796z"/><path class="st0" d="m710.72 360.71c-1.957-1.398-3.522-4.416-3.522-6.876 0-2.683 0.559-4.249 2.516-7.379l1.398-2.236 1.621 0.783c2.292 1.23 4.919 4.472 5.702 6.988 0.559 1.845 0.503 2.795-0.335 5.926-0.727 2.516-1.174 3.522-1.621 3.075-0.727-0.727-2.571-0.727-2.571 0-2e-3 0.837-1.847 0.669-3.188-0.281z"/><path class="st0" d="m977.31 358.42c-4.081-1.062-4.919-1.565-9-5.478-3.522-3.41-7.155-9.28-6.429-10.509 0.224-0.335 1.398-0.447 3.13-0.28l2.795 0.335-0.391-0.95c-1.398-3.186-1.901-5.087-1.957-6.932v-2.124h1.398c2.236 0 9.671 1.621 12.969 2.907 3.41 1.23 4.248 2.516 6.261 9.112 1.342 4.36 2.851 12.634 2.516 13.249-0.391 0.671-4.248 1.565-6.373 1.509-1.062 0-3.298-0.392-4.919-0.839z"/><path class="st0" d="m1015.7 353.33c-0.783-0.839-1.845-2.292-2.404-3.13l-1.006-1.565 1.174-0.335c1.398-0.335 1.509-0.783 0.615-1.677-1.062-1.062-0.168-1.621 3.857-2.404l3.801-0.671 2.348 1.174c2.907 1.453 5.255 4.919 5.367 7.77l0.056 2.068-6.149 0.168-6.205 0.168-1.454-1.566z"/><path class="st0" d="m279.16 324.82c-1.342-3.634-1.174-6.54 0.671-10.677l1.565-3.466h1.509c1.118 0 2.292 0.783 4.304 2.963 3.634 3.857 4.249 6.485 2.292 10.286-1.733 3.578-2.963 4.249-4.36 2.404l-1.062-1.398-1.286 1.286c-1.956 1.788-2.459 1.565-3.633-1.398z"/><path class="st0" d="m945.34 324.09c0-1.342-2.292-1.565-3.354-0.28-1.118 1.342-2.124 0.95-2.516-0.95-0.224-1.006-1.118-3.634-2.012-5.87l-1.565-4.025 1.006-3.075c1.174-3.634 0.95-3.745-2.963-1.733-3.41 1.733-4.193 1.733-10.23-0.056-2.739-0.783-6.093-1.565-7.547-1.733-1.565-0.168-2.683-0.615-2.683-1.006s0.783-1.621 1.677-2.795c0.95-1.174 1.677-2.348 1.677-2.683s-1.23-0.447-3.354-0.224c-1.845 0.224-3.354 0.168-3.354-0.112 0-0.447 4.64-6.764 7.994-10.901 1.565-1.901 5.646-2.739 10.733-2.18l3.354 0.335-4.248-3.41c-4.808-3.857-7.603-6.82-8.385-8.888-1.062-2.795-0.391-12.466 0.839-12.466 0.391 0 1.398 0.783 2.292 1.677 0.894 0.95 1.789 1.677 2.012 1.677 0.224 0 0.615-1.174 0.783-2.627 0.503-3.242 1.621-5.199 3.075-5.199 2.292 0 7.323 2.404 9.895 4.752 3.242 2.907 5.534 7.267 6.652 12.746 0.447 2.236 0.894 4.304 1.006 4.584 0.056 0.335 0.727-1.118 1.398-3.186 1.565-4.696 4.752-9.615 7.938-12.41 2.292-2.012 11.907-7.044 13.36-7.044 0.503 0 0.559 0.559 0.335 1.677-0.168 0.95-0.503 2.46-0.671 3.41l-0.391 1.733 5.367-0.391 5.422-0.391 0.335 0.839c0.447 1.23-1.845 11.963-3.186 14.758-1.398 2.907-2.124 3.522-5.926 4.919-1.733 0.615-3.019 1.398-2.963 1.677 0.112 0.335 2.068 0.894 4.416 1.286 4.36 0.727 13.472 4.584 13.472 5.646 0 0.335-2.012 1.621-4.472 2.851s-4.472 2.404-4.472 2.571c0 0.168 1.174 1.398 2.627 2.683l2.627 2.404-1.398 0.894c-1.901 1.23-9.559 3.186-12.578 3.186-3.578 0-6.652-1.453-9.168-4.36-1.174-1.453-2.348-2.404-2.571-2.18-0.224 0.168 0.168 1.677 0.839 3.298 1.901 4.584 2.068 7.211 0.671 10.118-1.174 2.46-10.006 11.572-11.18 11.572-0.336 0-0.616-0.503-0.615-1.118z"/><path class="st0" d="m845.38 316.66 0.168-5.702 1.565-2.683c1.118-1.901 2.292-3.019 4.304-4.025 1.509-0.783 2.851-1.398 3.019-1.398 0.112 0 0.391 0.783 0.615 1.677 0.224 0.95 0.447 1.677 0.503 1.677s1.062-0.503 2.236-1.118c1.23-0.559 2.404-0.95 2.739-0.727 0.839 0.503 0.168 9.168-0.894 11.18-1.174 2.18-3.634 3.745-8.832 5.478-5.982 2.07-5.702 2.294-5.423-4.359z"/><path class="st0" d="m819.56 320.79c-1.118-0.335-1.342-0.727-1.23-2.068 0.335-2.851 2.404-6.876 4.64-8.888 2.571-2.292 4.248-2.516 4.975-0.615l0.503 1.398 1.677-0.671c1.23-0.447 2.012-0.447 3.019 0l1.398 0.671-0.783 2.124c-0.391 1.174-0.727 2.683-0.783 3.41 0 1.901-1.509 3.857-3.466 4.528-1.9 0.67-7.77 0.726-9.95 0.111z"/><path class="st0" d="m870.71 315.6c-0.112-0.391-0.335-4.249-0.503-8.553-0.559-13.137 0.615-17.106 6.261-21.243 3.186-2.348 15.317-8.665 16.659-8.665 0.95 0 0.95 0.559-0.112 6.54l-0.335 1.845 3.242-1.957c1.789-1.062 3.745-1.957 4.304-1.957h1.062l-0.224 8.273-0.224 8.218-1.23 2.348c-1.509 2.907-3.075 4.137-8.721 6.876-5.926 2.851-19.286 8.944-19.677 8.944-0.111 2e-3 -0.334-0.333-0.502-0.669z"/><path class="st0" d="m813.69 294.86c-3.298-1.621-7.155-5.478-10.174-10.286-2.795-4.249-3.857-6.764-3.186-7.435 0.783-0.727 14.423-3.354 17.553-3.354 3.913 0 5.926 1.006 9.28 4.528 5.311 5.702 5.814 7.435 2.236 8.05-3.242 0.615-3.466 1.565-0.894 3.298 1.23 0.783 2.236 1.733 2.236 2.068 0 0.28-1.677 1.342-3.745 2.348-5.144 2.404-9.448 2.628-13.306 0.783z"/><path class="st0" d="m429.64 293.35c-0.224-0.335-0.503-2.404-0.671-4.64l-0.28-4.025 1.23-2.683c1.621-3.41 4.696-5.59 7.994-5.646l2.348-0.056 0.168 1.845 0.168 1.789 2.236-0.335 2.18-0.391-0.28 1.789c-0.168 0.95-0.391 2.516-0.559 3.466-0.447 2.851-2.348 4.808-6.596 6.876-4.584 2.235-7.379 2.906-7.938 2.011z"/><path class="st0" d="m330.98 289.1c-8.888-1.789-13.696-4.472-17.721-9.95-3.075-4.081-4.696-7.491-6.373-13.305-1.677-5.702-1.342-6.149 3.801-4.472 2.068 0.671 3.801 1.118 3.913 1.006s-0.056-1.398-0.391-2.963c-0.335-1.509-0.559-4.64-0.447-6.932 0.168-3.466 0.335-4.137 1.174-4.304 1.23-0.224 10.286 3.186 16.1 6.093 4.64 2.292 5.87 3.69 6.988 7.994 0.894 3.354 2.236 24.094 1.677 26.218l-0.335 1.509-2.404-0.056c-1.286-0.055-3.97-0.391-5.982-0.838z"/><path class="st0" d="m876.74 278.25c-0.279-1.006-0.615-1.174-1.789-0.894-2.739 0.671-3.075 0.615-3.466-0.783-0.894-3.13-0.559-7.603 0.783-9.559 1.677-2.516 5.758-4.919 8.497-5.143l2.236-0.112 0.336 11.628-1.398 2.012c-0.783 1.118-2.18 2.516-3.13 3.075l-1.733 1.006-0.336-1.23z"/><path class="st0" d="m731.12 261.37c-3.745-3.578-4.36-4.752-5.199-10.062-0.168-1.174-0.503-2.124-0.671-2.124s-1.174 1.006-2.236 2.236c-2.012 2.292-3.634 3.019-8.944 3.689-3.298 0.391-3.745-0.112-2.068-2.46 1.23-1.789 0.615-2.124-2.404-1.342-1.398 0.391-2.683 0.615-2.795 0.447-0.335-0.335 2.068-11.46 2.963-13.64 0.783-1.901 3.41-3.466 5.926-3.466 0.894-0.056 0.168-0.559-2.068-1.621-3.578-1.621-7.547-4.752-7.547-5.87 0-0.391 1.453-0.95 3.466-1.342 4.64-0.839 4.975-1.342 2.683-3.745-2.236-2.292-1.901-2.963 1.789-3.69 4.081-0.783 7.323-0.559 9.671 0.615 2.739 1.398 2.683 1.398 2.292-0.28-0.559-2.124 1.006-4.863 4.249-7.603 5.534-4.752 7.155-5.422 7.155-3.019 0 1.733 0.391 1.733 2.012 0.224 2.068-1.957 2.739-1.062 3.857 5.031l1.006 5.646-1.006 1.118c-1.23 1.342-0.783 2.012 0.727 1.174 2.348-1.286 7.603-0.224 12.857 2.516 0.839 0.447 2.068 0.783 2.739 0.783 2.012 0 1.901 0.839-0.391 3.075-1.23 1.174-2.068 2.348-1.957 2.571 0.168 0.224 1.286 0.559 2.516 0.783l2.292 0.391-3.466 3.69c-4.64 5.031-5.311 5.311-10.733 5.031-3.075-0.168-4.472-0.056-4.64 0.391-0.168 0.391 0.559 2.012 1.565 3.634 2.46 3.969 2.851 9.336 1.006 14.758-0.671 2.012-1.398 3.69-1.677 3.69-0.224 0-1.118-0.727-1.845-1.677-0.783-0.894-1.677-1.677-1.957-1.677s-1.286 1.286-2.236 2.795c-0.95 1.565-2.068 2.795-2.46 2.795-0.446 1e-3 -2.459-1.565-4.471-3.465z"/><path class="st0" d="m796.69 260.53c-1.174-4.472-2.963-15.764-3.242-20.907-0.503-8.329-0.056-10.174 3.354-13.808 4.36-4.528 19.566-16.044 20.516-15.485 0.224 0.168 1.062 1.901 1.901 3.857 1.621 4.137 2.739 10.286 2.236 12.354-0.168 0.783-0.168 1.398 0.112 1.398 0.224 0 2.236-1.23 4.472-2.795 5.311-3.69 5.814-3.634 5.814 0.447 0 10.957-2.348 18.448-6.876 22.081-2.571 2.068-20.628 12.578-24.094 14.031-3.075 1.287-3.578 1.119-4.193-1.173z"/><path class="st0" d="m848.62 259.81c0-1.845-0.894-2.124-2.907-1.062-1.677 0.894-2.18-0.28-1.789-3.969 0.671-5.534 2.963-8.106 8.777-9.783 4.919-1.398 5.087-1.23 4.752 5.031-0.335 6.093-0.839 7.155-4.696 9.727-3.355 2.18-4.137 2.18-4.137 0.056z"/><path class="st0" d="m1000.4 253.54c0.671-3.075 1.845-5.478 2.683-5.478 2.627 0 4.304 0.727 4.304 1.901 0 1.789-1.509 3.578-3.745 4.528-3.131 1.285-3.69 1.117-3.242-0.951z"/><path class="st0" d="m891.5 254.38c-0.224-0.168-0.391-0.839-0.391-1.398 0-1.23-0.224-1.23-2.012-0.112-1.789 1.23-2.236 0.727-3.075-3.41-0.783-3.913-0.503-5.422 1.453-8.385l1.453-2.124-1.286 0.391c-4.025 1.23-5.367 1.062-8.273-0.783l-2.851-1.845 1.006-1.062 1.006-1.118-0.95-0.671-0.95-0.727 1.789-1.677c3.745-3.578 7.099-4.36 10.342-2.404 2.18 1.342 2.236 1.118 0.391-1.565-0.839-1.23-1.398-2.851-1.398-4.081 0-2.012 1.509-7.211 2.124-7.211 0.168 0 1.006 0.615 1.789 1.398l1.509 1.453 1.006-2.292c0.559-1.23 1.23-2.236 1.509-2.236 0.615 0 2.627 3.298 3.019 5.031 0.615 2.795 0.727 2.851 2.124 1.398 1.509-1.509 6.82-3.242 9.112-2.963 1.677 0.168 1.677 0.391 1.118 3.969l-0.335 2.068h1.677c1.845 0 1.957 0.391 0.839 3.019-1.174 2.851-4.64 6.317-6.932 7.1-3.186 1.006-3.186 1.118-0.056 2.795 3.801 2.068 4.975 3.13 5.87 5.367 1.23 2.851 1.006 4.64-0.503 4.64-1.789 0-2.124 0.503-1.453 1.845 0.894 1.621-0.28 2.18-4.137 1.901l-3.186-0.168-2.124-2.068c-1.174-1.118-2.292-2.068-2.46-2.068s-0.503 0.894-0.671 1.957c-0.224 1.174-1.286 2.907-2.516 4.193-2.067 2.179-2.85 2.626-3.577 1.843z"/><path class="st0" d="m980.38 249.69c-9.28-4.752-11.069-6.317-12.354-10.789-1.286-4.416-1.062-4.808 3.019-4.808 1.845 0 3.354-0.112 3.354-0.28 0-0.112-0.503-1.286-1.174-2.516-1.677-3.13-1.174-4.137 1.901-3.634 4.64 0.783 6.596 2.739 9.671 9.615 1.733 3.913 4.863 15.149 4.416 15.876-0.504 0.785-0.56 0.729-8.833-3.464z"/><path class="st0" d="m926.27 236.5c-1.901-5.087-2.068-12.857-0.224-15.597 0.95-1.509 5.926-4.137 7.77-4.137 0.839 0 0.95 0.28 0.727 1.677-0.335 1.621 0.28 2.292 1.006 1.118 0.168-0.279 0.839-0.559 1.509-0.559h1.118l-0.224 4.081c-0.168 3.41-0.503 4.64-1.845 6.876-1.565 2.46-7.659 8.05-8.777 8.05-0.277 0-0.725-0.671-1.06-1.509z"/><path class="st0" d="m856.06 227.38c-1.733-1.565-3.522-4.863-3.522-6.485 0-0.559 0.783-0.783 2.739-0.783 2.348 0 3.019 0.28 4.472 1.677 0.95 0.95 1.845 2.627 2.068 3.69 0.391 2.18 0 3.019-1.006 2.012-1.006-1.006-2.124-0.783-2.124 0.447 0 1.51-0.503 1.398-2.627-0.558z"/><path class="st0" d="m782.66 224.2c-0.335-1.174-0.783-3.801-0.95-5.87-0.168-2.124-0.503-3.801-0.783-3.801-0.224 0-1.286 0.503-2.292 1.062-2.236 1.342-7.267 2.292-11.795 2.292h-3.298l0.391-2.068c0.224-1.174 0.727-2.795 1.174-3.634 1.174-2.292 1.006-2.683-1.398-2.683-1.23 0-2.348-0.224-2.516-0.447-0.503-0.839 3.354-5.981 6.485-8.721 2.851-2.516 6.82-4.249 9.783-4.249 2.068 0 1.509-0.894-1.621-2.683-5.702-3.298-7.323-5.646-8.05-11.739l-0.391-3.466 3.522 0.391 3.466 0.335-0.559-1.118c-0.335-0.615-1.006-1.398-1.453-1.845-0.503-0.391-0.894-0.894-0.894-1.174 0-0.839 7.211-0.559 8.888 0.335 1.453 0.727 5.646 6.708 7.379 10.509 0.894 1.957 1.621 1.006 1.621-2.124 0-3.354 1.677-5.59 5.422-7.323 3.242-1.453 6.876-2.348 6.876-1.677 0 0.224-0.391 1.23-0.783 2.292l-0.839 1.957h0.783c0.447 0 1.621-0.503 2.627-1.118 2.46-1.509 3.41-1.453 2.907 0.168-0.224 0.671-0.335 3.354-0.335 5.981 0.112 5.087-0.112 5.702-3.242 9.559l-1.901 2.348 1.342-0.391c0.783-0.224 1.845-0.447 2.348-0.447 1.174 0.056 9.391 5.534 9.391 6.317 0 0.28-0.615 0.783-1.342 1.062-1.845 0.671-2.348 1.677-0.95 1.677 3.634 0-1.453 4.025-7.882 6.261-3.13 1.062-3.969 1.174-4.919 0.559-1.677-1.006-3.019-0.894-2.46 0.335 1.062 2.516 0.894 5.199-0.615 8.106-1.845 3.69-3.41 5.59-4.193 5.143-0.335-0.168-0.95-1.23-1.398-2.292-0.447-1.062-1.006-1.901-1.286-1.901-0.279 0-1.453 1.398-2.571 3.075s-2.236 3.075-2.571 3.075c-0.28 1e-3 -0.783-0.95-1.118-2.068z"/><path class="st0" d="m958.75 220.84c-0.447-0.168-1.677-0.671-2.739-1.062l-1.901-0.783 0.95-1.062 0.95-1.006-1.286-0.894-1.286-0.839 3.242-1.509c2.516-1.174 3.857-1.453 5.758-1.23 2.516 0.28 8.721 3.13 8.721 4.081 0.056 0.28-1.789 1.453-3.969 2.627-3.8 1.957-6.316 2.46-8.44 1.677z"/><path class="st0" d="m977.25 213.3c-4.193-9.447-4.528-10.621-4.528-14.367 0-4.472 0.839-7.435 3.801-13.249 4.752-9.224 7.099-11.683 9.168-9.336 1.342 1.509 6.373 11.013 7.659 14.479 0.671 1.677 1.174 3.857 1.174 4.752 0 3.913-6.596 19.845-7.994 19.342-0.28-0.056-1.006-1.398-1.677-2.907-0.615-1.565-1.23-2.907-1.342-3.019-0.447-0.559-1.957 1.565-2.907 4.137-0.559 1.509-1.286 2.851-1.565 2.907-0.279 0.112-1.062-1.117-1.789-2.739z"/><path class="st0" d="m391.91 212.01c-2.292-1.342-4.863-3.242-5.702-4.137-1.621-1.789-3.522-7.267-4.137-11.795-0.447-3.242-1.677-3.745-3.13-1.23-2.907 4.919-11.795 10.174-19.118 11.292-2.124 0.335-3.969 0.447-4.137 0.28-0.168-0.168 0.335-1.677 1.174-3.41 0.839-1.677 1.509-3.186 1.509-3.354 0-0.112-1.23-0.112-2.739 0.112-3.13 0.391-8.385-0.615-8.832-1.789-0.447-1.118 5.926-12.913 8.329-15.373 1.509-1.565 2.739-2.292 4.36-2.516l2.292-0.391-5.087-2.404c-5.255-2.516-10.062-5.981-10.062-7.267 0-0.783 0.559-1.006 5.367-1.901 5.199-1.006 5.367-1.23 2.571-4.025-1.286-1.342-2.348-2.739-2.348-3.075 0-0.391 0.95-0.839 2.124-1.006 1.118-0.168 3.466-0.559 5.199-0.894 6.932-1.174 12.634 1.901 17.218 9.28 2.068 3.354 2.18 3.13 0.391-0.894-1.789-4.137-2.739-8.497-2.292-10.565 0.503-2.292 5.646-7.547 10.342-10.565l3.634-2.348 0.168 2.236c0.112 1.286 0.391 2.292 0.727 2.292 0.279 0 0.503-0.224 0.503-0.503 0-0.615 3.466-2.851 4.36-2.851 0.28 0 0.727 1.174 0.894 2.683 0.224 1.453 0.783 4.696 1.23 7.211l0.894 4.64-1.453 1.733c-0.839 0.95-1.398 1.901-1.23 2.012 0.112 0.112 1.398-0.168 2.795-0.615 3.801-1.286 5.534-1.118 10.565 1.118 2.46 1.062 5.87 2.348 7.547 2.739 3.689 0.95 4.081 1.286 2.627 2.068-0.559 0.335-2.18 1.677-3.522 2.907l-2.516 2.292 1.621 0.335c0.894 0.224 2.571 0.391 3.745 0.447 1.118 0 2.068 0.168 2.068 0.28 0 0.559-10.118 10.118-11.069 10.509-1.789 0.727-4.975 0.447-8.218-0.671-1.845-0.615-3.522-1.062-3.801-0.95-0.28 0.056 0.95 1.845 2.739 3.913 4.696 5.422 7.491 10.174 7.491 12.801 0 1.789-3.019 11.069-3.634 11.069-0.112 0-0.839-1.174-1.677-2.571-0.839-1.398-1.733-2.46-2.068-2.348s-1.118 1.733-1.677 3.578c-0.615 1.789-1.286 3.466-1.453 3.69-0.222 0.167-2.29-0.728-4.582-2.069z"/><path class="st0" d="m1030.7 211.34c-0.224-0.168-0.391-1.453-0.391-2.739 0-1.957 0.335-2.739 1.901-4.36 1.23-1.342 2.348-2.012 3.354-2.012h1.453v2.292c0 2.46-0.615 4.025-2.404 5.981-1.118 1.173-3.13 1.62-3.913 0.838z"/><path class="st0" d="m1002.3 207.43c-4.304-0.671-1.006-10.23 3.466-10.23h1.621v3.354c0 2.571-0.335 3.857-1.23 5.311-0.727 1.062-1.509 1.901-1.845 1.845-0.279-1e-3 -1.229-0.168-2.012-0.28z"/><path class="st0" d="m503.43 206.64c-1.23-0.224-3.41-0.447-4.808-0.447-1.901-0.056-2.851-0.391-3.689-1.286-2.46-2.739-2.851-4.919-0.894-4.919h0.839l-0.95-1.453c-1.23-1.845-0.727-2.18 3.745-2.683 3.969-0.391 5.981 0.391 8.832 3.298 1.565 1.565 1.901 2.46 2.124 5.031l0.224 3.075-1.565-0.056c-0.895-0.057-2.628-0.28-3.858-0.56z"/><path class="st0" d="m721.39 205.86c-0.224-0.447-0.224-4.304-0.112-8.553 0.224-5.534 0.559-8.497 1.342-10.733l1.062-3.075 3.354-1.789c3.745-2.012 11.348-4.752 12.019-4.36 0.839 0.503 1.174 4.472 0.615 6.876l-0.503 2.404 3.019-0.391c3.522-0.391 3.522-0.335 2.012 4.304-2.236 6.764-7.714 12.69-13.808 14.982-3.745 1.397-8.553 1.564-9 0.335z"/><path class="st0" d="m1066 204.63c-1.23-3.075 1.901-8.218 3.41-5.702 0.391 0.559 0.783 0.503 1.901-0.224 1.901-1.286 2.012-1.23 2.012 0.894 0 2.348-1.23 4.025-3.913 5.422-2.739 1.399-2.683 1.399-3.41-0.39z"/><path class="st0" d="m862.54 204.8c-4.137-1.118-6.261-2.627-7.099-5.143-0.783-2.348-1.789-12.354-1.398-13.472 0.447-1.174 2.18-0.839 6.205 1.118 2.068 1.062 5.199 2.516 6.988 3.242 3.69 1.453 4.081 2.012 5.478 7.491 1.509 5.814 1.509 5.87-1.957 4.416l-1.062-0.391 0.335 1.733 0.391 1.789-2.683-0.056c-1.452 0-3.8-0.335-5.198-0.727z"/><path class="st0" d="m825.31 204.63c-1.006-0.391-0.894-1.845 0.391-4.249 0.615-1.118 1.118-2.18 1.118-2.348s-0.894-0.28-1.957-0.28c-2.236 0-2.348-0.28-0.95-2.292 3.522-5.311 10.398-8.05 16.379-6.652l2.851 0.727-0.279 2.012c-0.224 1.118-1.398 4.137-2.739 6.764-2.963 5.814-4.36 6.708-10.23 6.652-2.125 1e-3 -4.249-0.167-4.584-0.334z"/><path class="st0" d="m890.66 204.18c-3.019-1.342-6.876-4.36-6.708-5.255 0.224-1.006 5.087-2.739 7.938-2.795 1.398-0.056 3.298 0.559 5.422 1.677 3.13 1.677 4.304 3.298 2.46 3.298-1.006 0-1.062 0.671-0.168 1.565 1.118 1.118-0.335 1.957-3.857 2.18-2.069 0.113-3.913-0.111-5.087-0.67z"/><path class="st0" d="m950.03 203.85c-1.621-0.839-3.019-3.41-3.186-5.926l-0.112-2.124 1.789-0.168c1.398-0.168 2.236 0.224 3.857 1.733l2.124 1.901-1.23 0.671c-1.006 0.559-1.118 0.839-0.671 2.068 0.335 0.783 0.559 1.677 0.559 1.957 1e-3 0.671-1.62 0.615-3.13-0.112z"/><path class="st0" d="m1018.7 194.79c-1.062-1.174-2.907-5.478-2.907-6.932 0-1.286 4.249-0.894 5.87 0.559 1.957 1.677 2.18 4.528 0.447 4.752-0.839 0.112-1.286 0.559-1.286 1.23 1e-3 1.621-0.838 1.789-2.124 0.391z"/><path class="st0" d="m1038.2 187.69c-3.186-0.727-3.13-1.23 0.168-5.087 7.099-8.162 7.379-8.329 12.41-8.329h1.957l-0.391 1.845c-0.224 0.95-0.447 2.068-0.503 2.348 0 0.335 0.894 0.615 2.068 0.727 1.118 0.112 2.068 0.391 2.068 0.615 0 1.23-4.64 7.435-5.926 7.882-1.677 0.67-9.168 0.67-11.851-1e-3z"/><path class="st0" d="m499.13 185.12c-1.565-0.839-3.354-3.69-4.025-6.485l-0.335-1.565 1.398-0.335c1.677-0.391 5.143 1.23 6.317 3.075l0.839 1.23-1.23 0.335c-1.006 0.224-1.174 0.615-0.894 1.509 0.893 3.019 0.39 3.578-2.07 2.236z"/><path class="st0" d="m444.68 183.67c-0.503-1.006-1.398-2.46-1.957-3.186-1.286-1.621-1.342-3.466-0.168-5.702 0.447-0.95 0.727-1.845 0.615-2.012-0.168-0.168-1.398 0.335-2.739 1.118-4.36 2.516-6.093 2.795-9.056 1.565-2.795-1.23-3.13-1.901-1.509-2.963 0.839-0.503 0.95-0.839 0.503-1.398-0.335-0.391-0.894-0.727-1.286-0.727-0.391 0-0.95-0.335-1.286-0.727-1.006-1.174 1.677-4.528 4.696-5.981 2.18-1.062 3.13-1.23 6.205-0.95l3.634 0.335-2.795-2.907c-3.634-3.913-4.752-6.149-4.808-9.895-0.056-3.186 0.224-3.466 2.571-2.516 0.727 0.28 1.006-0.112 1.398-2.068 0.615-3.019 2.012-3.354 5.367-1.398 3.69 2.18 4.752 3.634 4.975 6.82l0.168 2.795 1.342-2.516c1.453-2.851 4.416-6.149 5.422-6.149 0.391 0 0.894 1.062 1.118 2.516 0.335 2.46 0.894 3.13 1.621 1.957 0.839-1.342 2.404-0.559 2.739 1.342 0.783 3.969-1.733 9.28-4.36 9.28-0.447 0-1.062 0.391-1.453 0.839l-0.671 0.839h3.019c1.789 0 3.466 0.335 4.249 0.894 1.006 0.727 4.584 6.708 4.584 7.77 0 0.168-0.671 0.28-1.453 0.28h-1.453l0.95 1.453c0.503 0.783 0.783 1.565 0.615 1.789-0.503 0.503-7.826 0.112-8.385-0.503-1.342-1.23-2.012-0.503-1.677 1.901l0.28 2.348-2.236 3.019c-1.286 1.621-2.292 3.186-2.292 3.466s-0.391 0.503-0.839 0.503-0.839-0.391-0.839-0.839c0-1.23-2.068-1.006-2.404 0.28-0.448 1.62-1.343 1.34-2.405-0.672z"/><path class="st0" d="m886.3 184.06c-0.615-2.516 0.224-10.901 1.453-14.479 2.292-6.764 7.267-12.41 14.814-16.938 4.472-2.683 8.944-4.528 9.559-3.969 0.168 0.224-0.056 2.292-0.503 4.64l-0.783 4.304 1.174-0.391c4.696-1.509 7.155-1.957 9.559-1.845l2.795 0.168 0.168 1.845c0.224 2.348-1.621 9.336-4.193 16.156l-2.124 5.367-2.795 1.286c-4.808 2.236-15.373 4.416-24.149 5.087l-4.584 0.335-0.391-1.566z"/><path class="st0" d="m954.95 183.05c-1.006-1.174 0.783-6.205 2.907-8.385 1.621-1.621 7.714-4.863 9.168-4.863 0.894 0 0.839 1.006-0.168 3.857l-0.783 2.292 1.342 0.335c0.783 0.168 1.398 0.559 1.398 0.839 0 0.783-3.913 4.304-5.758 5.199-2.852 1.285-7.268 1.732-8.106 0.726z"/><path class="st0" d="m1007.9 178.64c0-2.795 1.23-5.422 3.354-7.379 2.851-2.571 4.472-2.683 4.472-0.28v1.733l3.186-0.224c4.081-0.224 4.472 0.783 1.453 3.913-2.404 2.516-5.031 3.466-9.503 3.466h-2.963l1e-3 -1.229z"/><path class="st0" d="m749.12 178.47c-8.162-2.292-14.758-7.77-18.839-15.652-3.466-6.764-5.087-13.137-3.298-13.137 0.391 0 1.845 0.503 3.186 1.062 1.342 0.559 3.075 1.23 3.801 1.453l1.342 0.391-0.447-1.006c-0.95-2.404-1.342-5.758-1.006-9.559 0.279-3.242 0.503-4.081 1.23-4.081 2.851 0 18.615 6.932 20.516 9.056 2.683 2.907 4.137 11.46 4.137 24.317v7.994l-4.025-0.056c-2.237 0-5.2-0.391-6.597-0.782z"/><path class="st0" d="m685.5 176.06c-1.565-1.565-2.236-6.037-1.118-7.211 0.839-0.783 3.969-0.615 5.255 0.28 0.95 0.727 4.752 6.932 4.416 7.267-0.168 0.168-1.901 0.447-3.857 0.559-3.019 0.223-3.746 0.055-4.696-0.895z"/><path class="st0" d="m1071.7 175.17c0-0.224 0.391-0.95 0.894-1.733l0.839-1.286-0.894-0.503c-2.348-1.342 2.012-4.64 6.093-4.64 1.398 0 2.572 0.224 2.572 0.503 0 1.398-2.907 6.093-4.137 6.652-1.733 0.783-5.367 1.454-5.367 1.007z"/><path class="st0" d="m543.85 174.28c-6.485-0.839-12.634-5.478-15.932-11.963l-1.398-2.795 0.671-4.863c0.335-2.683 0.559-6.373 0.503-8.162-0.112-3.745 0-3.801 4.137-1.174 1.453 0.95 2.795 1.565 2.907 1.453 0.168-0.168 0.056-1.509-0.224-3.019-0.28-1.509-0.391-2.907-0.28-3.13 0.28-0.447 10.565 4.808 12.131 6.205 1.733 1.453 2.068 2.571 2.571 8.162 0.279 2.907 1.23 8.218 2.068 11.795 0.894 3.745 1.286 6.596 1.006 6.876-0.837 0.783-4.75 1.062-8.16 0.615z"/><path class="st0" d="m950.59 169.41c-1.621-0.335-5.814-3.969-5.814-4.975 0-0.447 0.615-1.062 1.398-1.342 1.621-0.615 1.677-0.894 0.559-2.795-0.447-0.783-0.783-1.957-0.839-2.627 0-1.677 1.789-1.677 4.752 0 1.789 1.006 2.627 2.124 4.416 5.646 1.789 3.634 2.012 4.472 1.398 5.087-0.894 0.838-4.081 1.397-5.87 1.006z"/><path class="st0" d="m495.89 164.27c-3.13-1.174-8.05-4.36-10.565-6.708-1.565-1.453-1.789-1.901-1.118-2.348 0.447-0.28 1.342-0.503 2.068-0.503 1.733 0 1.509-0.839-0.447-1.677-0.894-0.391-1.957-1.062-2.348-1.509-0.95-1.174 0.894-2.571 7.435-5.758l5.031-2.516 3.186 1.23c9.336 3.578 17.553 6.82 17.833 7.044 0.503 0.559-0.671 1.901-5.367 6.205-5.143 4.752-9.615 7.603-11.795 7.547-0.783-1e-3 -2.516-0.448-3.913-1.007z"/><path class="st0" d="m1025.9 161.7c-2.404-4.025-3.13-7.1-2.571-10.677 0.28-2.012 0.783-3.298 1.23-3.298 1.174 0 7.379 5.311 8.329 7.155 1.118 2.18 1.677 7.938 0.783 8.441-0.335 0.224-1.398-0.224-2.348-1.006-2.124-1.789-2.516-1.789-2.963-0.056-0.504 1.901-1.119 1.733-2.46-0.559z"/><path class="st0" d="m1065.9 158.29c-2.907-1.062-8.162-5.143-8.162-6.373 0-0.28 1.397-0.783 3.13-1.118 3.242-0.671 3.298-0.783 2.18-3.466l-0.391-1.006h2.124c4.807 0.056 9.671 3.186 12.187 7.826 1.677 3.075 1.565 3.186-2.46 4.304-3.297 0.895-5.924 0.839-8.608-0.167z"/><path class="st0" d="m562.07 148.84c-0.168-0.447-0.168-1.062 0.056-1.398 0.559-0.894-1.733-0.671-2.516 0.28-1.286 1.565-2.068 0.894-2.46-1.901-0.224-1.565-0.727-3.69-1.174-4.752-1.174-2.795-1.062-4.081 0.783-7.994 1.174-2.404 2.348-3.969 3.969-5.143 2.627-1.901 7.211-3.578 9.056-3.298l1.286 0.168 0.112 17.888-1.006 1.286c-0.95 1.23-6.876 5.702-7.547 5.702-0.112 0-0.391-0.391-0.559-0.838z"/><path class="st0" d="m835.04 142.97c-1.453-0.894-2.627-1.789-2.627-1.901 0-0.168 0.671-0.671 1.509-1.118l1.565-0.783-1.565-0.727c-0.839-0.391-1.509-0.894-1.509-1.118 0-0.894 5.646-4.472 7.547-4.808 2.683-0.447 6.317 1.062 8.776 3.634 2.907 2.963 2.907 4.025 0.168 5.031-1.23 0.447-3.801 1.398-5.758 2.124-4.417 1.735-4.92 1.679-8.106-0.334z"/><path class="st0" d="m681.42 140.79c-2.012-1.509-4.975-3.578-6.596-4.528-3.186-1.957-3.969-3.298-3.969-6.876 0-1.286-0.224-3.298-0.503-4.416l-0.503-2.124h1.23c0.671 0 1.789 0.447 2.571 0.95l1.342 0.95-0.447-1.118c-0.95-2.236-0.671-2.739 1.174-2.683 2.348 0.112 8.944 3.186 10.957 5.087l1.509 1.509-0.056 4.752c-0.056 6.037-1.006 10.901-2.236 11.124-0.448 0.056-2.461-1.118-4.473-2.627z"/><path class="st0" d="m469.56 136.15c-0.224-2.683 0.224-16.491 0.503-16.994 0.224-0.335 1.901-1.901 3.689-3.522 3.969-3.466 5.926-3.801 5.926-1.062 0 1.398 0.168 1.621 0.671 1.118 0.391-0.391 1.118-0.671 1.621-0.671 1.23 0 2.404 4.919 2.46 10.118 0 4.808-0.615 5.478-7.938 9-6.093 2.852-6.82 3.075-6.932 2.013z"/><path class="st0" d="m1105.9 131.12c-1.062-1.062-0.783-4.584 0.503-6.261l1.174-1.509 0.95 0.839 0.95 0.894 1.118-0.839c0.559-0.447 1.509-0.839 2.068-0.839 0.783 0 0.95 0.28 0.671 1.286-0.95 3.298-1.733 4.472-3.913 5.702-2.683 1.622-2.627 1.622-3.521 0.727z"/><path class="st0" d="m586.17 125.92c-2.683-3.913-3.13-6.988-1.453-10.23 1.118-2.236 4.304-5.143 5.59-5.143 0.671 0 0.727 0.056 3.41 7.323l1.789 4.808-1.118 2.236c-1.453 2.851-2.627 3.857-3.13 2.683-0.391-1.062-2.012-1.118-2.012-0.056-2e-3 1.845-1.064 1.23-3.076-1.621z"/><path class="st0" d="m563.97 102.89c-1.789-0.447-3.242-1.174-3.242-1.509 0-0.391 0.783-1.733 1.733-3.019 1.901-2.571 2.012-2.404-2.739-3.466-1.565-0.391-3.075-0.894-3.242-1.174-0.168-0.28 0.894-1.286 2.348-2.292 1.398-1.006 4.472-3.354 6.708-5.255 4.64-3.801 9.168-5.646 12.969-5.143 4.863 0.671 13.528 6.037 13.528 8.385 0 1.845-9.112 10.454-13.361 12.634l-3.578 1.789-3.969-0.056c-2.18-0.056-5.422-0.447-7.155-0.894z"/></svg>